<svg xmlns="http://www.w3.org/2000/svg" id="レイヤー_1" width="1500" height="1500" data-name="レイヤー 1" version="1.1"><defs id="defs71"><style id="style69">.cls-1{fill:#221714}@media (prefers-color-scheme:dark){.cls-1{fill:#dde8eb}}</style></defs><path id="path73" d="M1358.208 787.78a.557.557 0 0 1-.112-.173.93.93 0 0 1-.11-.748c.333-1.245.394-1.447 24.639 3.855-15.412-4.048-16.373-4.564-16.757-5.16a1.012 1.012 0 0 1-.102-.76c.152-.566.253-.88 2.56-.445.365-.78 2.146-.597 22.262 1.538 4.534.476 9.593 1.012 13.762 1.427-3.309-.87-7.144-1.842-10.615-2.732-19.054-4.867-19.074-4.999-19.368-5.576a1.012 1.012 0 0 1-.11-.769c.323-1.174.323-1.174 22.666 1.933l1.487.202-3.633-.94c-19.883-5.172-20.005-5.293-20.369-5.9a1.012 1.012 0 0 1-.102-.76 1.012 1.012 0 0 1 .456-.576c.354-.212.516-.303 5.444 1.012.384-.648 2.024-.455 15.452 1.012 2.297.253 4.857.556 7.295.82l-2.155-.547c-12.143-3.036-12.335-3.268-12.689-3.734-6.072-1.64-6.122-1.852-6.325-2.165a1.012 1.012 0 0 1-.08-.76c.242-.93.242-.93 13.498.466 1.842.193 3.876.425 5.87.618-9.28-2.318-9.35-2.47-9.624-2.965a1.012 1.012 0 0 1-.121-.729c-1.559-.486-1.65-.607-1.781-.88a1.012 1.012 0 0 1-.102-.749c.182-.668.182-.668 9.107-2.671l5.586-1.265-3.44-.911c-7.226-1.902-7.215-1.882-7.479-2.348a1.012 1.012 0 0 1-.08-.769c.222-.718.222-.718 6.627-.92l2.176-.081c-3.036-.8-3.036-.84-3.208-1.194a1.062 1.062 0 0 1-.08-.689c.221-.89.221-.89 4.421-.344h.273a1.78 1.78 0 0 1 .527-.192 1.012 1.012 0 0 1 .809-.435.89.89 0 0 1 .334.06l.415.102c.486.131.89.243 1.012.79a1.012 1.012 0 0 1 0 .171.749.749 0 0 1 .283.375.951.951 0 0 1 0 .647c2.297.638 2.246.81 2.024 1.569-.223.759-.213.83-8.702 1.103l1.011.273c7.225 1.892 7.215 1.872 7.468 2.337a.92.92 0 0 1 .102.729c-.182.678-.182.678-9.775 2.843l-5.06 1.154c3.036.84 7.843 2.084 11.708 3.036 12.396 3.217 12.386 3.207 12.143 4.3-.233.83-.294 1.073-5.373-.131-.334.82-1.62.688-17.344-1.012l-2.348-.253c2.722.728 5.697 1.508 8.44 2.226 15.178 4.048 15.279 3.967 15.583 4.553a.88.88 0 0 1 .09.73c-.242.9-.678 1.011-3.319.293-1.184.263-4.917-.162-17.991-1.64l-4.26-.475 7.65 1.963c18.882 4.816 18.862 4.938 19.226 5.565a1.012 1.012 0 0 1 .101.749c-.212.78-.293 1.073-5.99-.334-.455.557-2.428.273-15.553-1.538-3.329-.465-7.144-1.012-10.625-1.457l8.197 2.105c19.53 4.978 19.57 5.15 19.873 5.727a1.012 1.012 0 0 1 .102.769c-.304 1.073-.304 1.073-23.81-1.407-4.341-.465-8.945-.95-12.74-1.325 5.06 1.356 11.637 3.036 17.476 4.553 21.543 5.525 21.665 5.637 21.998 6.274a1.012 1.012 0 0 1 .102.76v.15a.951.951 0 0 1 .081.76c-.324 1.265-.324 1.265-26.998-4.594l-9.45-2.075 8.439 2.196c24.812 6.426 24.812 6.486 25.186 7.144a1.012 1.012 0 0 1 .101.76 1.012 1.012 0 0 1-1.548.485c-1.477-.628-13.54-3.754-24.204-6.527-26.624-6.83-29.811-7.812-30.53-8.48z" class="cls-1" style="stroke-width:1.0119"/><path id="path75" d="M1014.353 1073.348c-.232-.232-.182-.455-.111-.728.303-1.134.303-1.134 21.19 2.793l7.335 1.376-5.91-1.528c-24.872-6.446-25.135-6.618-25.51-7.306a1.012 1.012 0 0 1-.1-.76c.333-1.193.364-1.304 20.339 3.188-23.497-6.071-24.7-6.658-25.197-7.316a1.103 1.103 0 0 1-.101-.759c.192-.688.303-1.012 4.35-.11-2.934-.902-3.713-1.235-3.885-1.67a1.012 1.012 0 0 1-.111-.77c.141-.485.222-.789 1.841-.586-7.923-2.176-8.014-2.378-8.277-2.743a.93.93 0 0 1-.09-.748c.343-1.265.343-1.265 38.512 5.332a4596.593 4596.593 0 0 0 22.737 3.896l-13.094-3.724-11.505-2.924c-32.694-8.308-37.946-9.836-38.887-10.787a.486.486 0 0 1-.122-.172 1.204 1.204 0 0 1-.081-.162c-1.356-.465-1.457-.617-1.589-.85a1.012 1.012 0 0 1-.091-.739c.395-1.426.476-1.72 51.971 8.298a2775.188 2775.188 0 0 0 17.648 3.41c-6.315-1.64-13.792-3.521-20.522-5.221-31.703-7.964-36.125-9.158-36.701-10.312a1.154 1.154 0 0 1-.102-.799c.375-1.386.425-1.528 38.918 6.638 8.844 1.872 18.842 4.048 26.572 5.545-9.107-2.489-21.715-5.737-32.067-8.429-32.745-8.47-32.907-8.58-33.301-9.32a1.012 1.012 0 0 1-.102-.759c.374-1.376.405-1.457 42.287 8.571l-2.732-.708c-35.022-9.016-36.762-9.664-37.319-10.463a1.012 1.012 0 0 1-.101-.769c.141-.506.232-.84 2.206-.536a.546.546 0 0 1 0-.223c.233-.86.344-1.265 8.57.638-2.54-.79-3.238-1.184-3.46-1.518a1.062 1.062 0 0 1-.102-.77c.142-.515.233-.819 2.368-.465-1.67-.567-2.277-1.012-2.429-1.214a1.083 1.083 0 0 1-.101-.79c.374-1.396.385-1.436 41.65 8.207l11.536 2.692c-38.392-9.927-44.524-11.88-45.05-12.8a1.012 1.012 0 0 1-.112-.78c.375-1.346.385-1.406 43.876 7.184 7.57 1.488 15.553 3.036 22.353 4.382-5.343-1.396-11.363-2.945-17.101-4.422-37.44-9.643-42.5-11.13-42.965-12.143a1.012 1.012 0 0 1-.102-.789c.375-1.366.415-1.498 39.14 6.324 9.29 1.862 19.773 3.987 27.95 5.535-5.87-1.548-12.953-3.39-19.935-5.21-39.677-10.282-45.263-11.82-45.84-12.913a1.012 1.012 0 0 1-.1-.769c.363-1.295.363-1.295 35.618 7.013l5.292 1.244c-28.93-7.488-34.647-9.208-35.609-10.18l-.12-.14a1.123 1.123 0 0 1-.103-.79c.233-.87.345-1.245 9.674.93-8.095-2.236-9.835-3.035-10.19-3.54a1.012 1.012 0 0 1-.09-.79c.374-1.397.424-1.579 45.221 7.771 6.618 1.376 13.57 2.833 19.743 4.048a2404.436 2404.436 0 0 0-15.594-4.048c-39.666-10.352-44.27-11.758-44.817-12.639a1.012 1.012 0 0 1-.102-.758c.405-1.468.476-1.74 46.426 7.64 12.143 2.468 26.128 5.322 35.336 7.012-8.834-2.429-22.262-5.859-33.868-8.844-35.133-9.006-38.898-10.12-39.464-11.04a1.073 1.073 0 0 1-.102-.79c.395-1.396.465-1.69 49.583 7.914 7.417 1.447 15.26 3.035 21.888 4.24a5274.586 5274.586 0 0 0-18.113-4.706c-38.453-9.987-43.917-11.555-44.524-12.557a1.012 1.012 0 0 1-.102-.77c.203-.758.304-1.112 6.163.233a.678.678 0 0 1-.284-.283 1.143 1.143 0 0 1-.11-.79c.08-.283.14-.505.546-.586 0-.081-.122-.142-.172-.223a1.012 1.012 0 0 1-.102-.759c.384-1.386.425-1.568 47.377 7.883 6.79 1.366 13.974 2.813 20.127 4.048-8.197-2.206-18.417-4.868-27.524-7.236-34.738-9.056-38.553-10.18-39.262-10.898a.486.486 0 0 1-.121-.172 1.012 1.012 0 0 1-.091-.759c.364-1.356.394-1.467 43.927 6.568 11.9 2.206 24.76 4.584 33.504 6.07-8.096-2.185-19.57-5.16-29.629-7.75-32.219-8.308-33.575-8.763-34.09-9.563a1.012 1.012 0 0 1-.092-.759c.375-1.325.385-1.376 43.39 6.74 8.663 1.639 17.88 3.38 25.298 4.735-6.638-1.77-14.693-3.875-22.262-5.858-35.507-9.28-39.464-10.474-40.152-11.202a.364.364 0 0 1-.111-.142.951.951 0 0 1-.091-.759c.334-1.234.344-1.275 32.017 6.497l-1.458-.385c-34.86-9.036-35.032-9.168-35.416-9.917a1.012 1.012 0 0 1-.102-.769c.365-1.345.385-1.437 45.769 7.418 10.959 2.135 22.707 4.422 31.46 6.07-7.924-2.134-18.326-4.846-28.07-7.376-37.987-9.886-40.102-10.483-40.477-11.384a.951.951 0 0 1-.101-.759c.354-1.305.354-1.305 42.662 8.096 7.194 1.608 15.026 3.349 22.18 4.928l-16.19-4.27c-38.634-10.12-40.345-10.818-40.88-11.506a1.012 1.012 0 0 1-.102-.759c.243-.87.344-1.255 9.987 1.012-6.071-1.67-6.547-1.933-6.74-2.368a1.012 1.012 0 0 1-.1-.749c.374-1.366.394-1.457 38.31 6.689 7.66 1.64 16.19 3.46 23.466 4.979l-12.69-3.259c-34.546-8.864-40.951-10.726-41.973-11.758a.718.718 0 0 1-.102-.142.587.587 0 0 1-.101-.273c-5.222-1.467-6.294-2.024-6.517-2.398a1.012 1.012 0 0 1-.101-.77c.384-1.426.425-1.568 46.183 8.642 9.603 2.146 19.803 4.423 28.03 6.203-9.108-2.448-20.512-5.413-30.105-7.913-32.967-8.55-33.028-8.712-33.392-9.32a1.012 1.012 0 0 1-.102-.768c.354-1.275.415-1.488 29.972 5.768-24.67-6.376-25.924-6.912-26.4-7.59a1.012 1.012 0 0 1-.121-.668c-1.194-.445-1.66-.738-1.771-1.012a1.012 1.012 0 0 1-.102-.769c.314-1.183.415-1.538 25.885 4.514-25.116-6.628-26.4-7.134-26.674-7.792a1.012 1.012 0 0 1-.102-.749c.243-.87.344-1.234 9.553 1.012a.941.941 0 0 1-.385-.354 1.012 1.012 0 0 1-.101-.749c.364-1.275.364-1.275 35.922 6.193 9.613 2.024 20.36 4.28 29.163 6.071l-14.39-3.754c-41.598-10.817-45.353-12.001-45.96-12.983a1.012 1.012 0 0 1-.101-.769.8.8 0 0 1 .283-.506l-.081-.1a1.012 1.012 0 0 1-.091-.8c.395-1.427.476-1.72 51.101 9.107l10.483 2.257a3156.778 3156.778 0 0 0-14.166-3.633c-35.811-9.178-42.409-11.07-43.441-12.143a.455.455 0 0 1-.111-.142 1.012 1.012 0 0 1-.102-.789c.182-.658.273-1.012 4.442-.223-2.246-.748-2.924-1.123-3.177-1.487a1.073 1.073 0 0 1-.102-.79c.375-1.376.385-1.396 42.996 8.369l12.406 2.833a1398.052 1398.052 0 0 0-15.695-4.047c-36.428-9.512-37.855-9.876-38.28-10.757a1.012 1.012 0 0 1-.101-.749c.394-1.396.414-1.517 41.65 7.013 11.727 2.418 25.186 5.201 34.455 6.962-8.298-2.237-20.005-5.222-30.246-7.832-33.585-8.55-39.555-10.271-40.476-11.253a.476.476 0 0 1-.121-.131 1.012 1.012 0 0 1-.102-.78c.405-1.477.486-1.79 50.018 8.157 9.108 1.821 18.76 3.764 26.31 5.22-8.804-2.397-20.633-5.484-31.055-8.195-36.51-9.533-36.672-9.715-36.996-10.383a1.012 1.012 0 0 1-.101-.759c.364-1.305.364-1.305 40.577 7.478l21.817 4.736-12.001-3.37c-2.763-.728-5.525-1.436-8.177-2.124-30.741-7.995-33.777-8.905-34.404-9.512l-.07-.071c-4.827-1.417-5.475-1.771-5.738-2.186a1.012 1.012 0 0 1-.101-.759c.212-.738.303-1.012 6.79.476a1.012 1.012 0 0 1-.253-.273 1.012 1.012 0 0 1-.102-.77c.233-.85.354-1.264 9.795.901-6.071-1.71-7.265-2.337-7.518-2.722a1.012 1.012 0 0 1-.112-.769c.375-1.326.375-1.326 36.985 7.134 8.096 1.872 17.03 3.926 24.913 5.707-5.899-1.558-12.355-3.238-18.538-4.847-39.575-10.321-41.488-10.969-41.852-11.768a1.012 1.012 0 0 1-.101-.75c.222-.819.344-1.234 7.933.527a1.902 1.902 0 0 1-.182-.212 1.012 1.012 0 0 1-.091-.76c.354-1.264.354-1.264 35.649 6.902 8.095 1.872 17.445 4.047 25.783 5.93l-10.23-2.834-10.423-2.691c-31.976-8.278-35.548-9.33-36.236-10.028a.516.516 0 0 1-.121-.162 1.012 1.012 0 0 1-.102-.77 1.012 1.012 0 0 1 .466-.586.759.759 0 0 1 .243-.101.688.688 0 0 1 .587-.476c-1.073-.415-1.508-.708-1.64-.931a1.083 1.083 0 0 1-.101-.79c.354-1.224.354-1.224 34.323 5.404 13.287 2.59 29.66 5.788 40.557 7.721-6.668-1.801-15.29-4.047-23.354-6.132-40.163-10.463-42.278-11.323-42.774-12.072a1.062 1.062 0 0 1-.101-.769c.374-1.386.405-1.498 41.488 7.63l15.178 3.37-1.66-.466-15.866-4.139c-35.356-9.107-39.393-10.392-39.828-11.191a1.012 1.012 0 0 1-.111-.77 1.062 1.062 0 0 1 .475-.607c.344-.192.931-.222 4.877.75 1.013-.699 6.335.343 42.774 7.74 7.245 1.478 14.865 3.036 21.492 4.341l-18.598-4.907c-38.453-10.12-42.622-11.344-43.35-12.083a.536.536 0 0 1-.102-.141 1.012 1.012 0 0 1-.111-.76c.364-1.315.364-1.315 33.838 6.872 6.557 1.598 13.964 3.41 20.936 5.06l-13.246-3.41c-33.09-8.5-36.054-9.533-36.53-10.251a1.012 1.012 0 0 1-.101-.76c.385-1.406.405-1.487 42.44 8.51l10.999 2.611-.334-.09-1.538-.405c-21.25-5.505-33.616-8.763-40.72-10.777-11.798-3.147-12.517-3.501-12.73-4.048a1.012 1.012 0 0 1-.1-.749 1.012 1.012 0 0 1 .495-.627c.405-.233 1.609-.142 5.13.688 3.765.395 14.42 2.722 45.425 9.684l14.733 3.279-9.552-2.49c-40.578-10.594-44.848-11.96-45.354-12.77a1.012 1.012 0 0 1-.101-.769c.182-.658.293-1.073 4.391-.263a.941.941 0 0 1 0-.476c.365-1.345.375-1.376 39.657 6.669 13.802 2.823 29.72 6.071 40.263 8.044-7.822-2.094-18.558-4.836-28.545-7.417-39.465-10.119-46.67-12.143-47.772-13.306a.678.678 0 0 1-.112-.142 1.012 1.012 0 0 1-.101-.78c.395-1.426.445-1.608 55.017 9.604 13.813 2.833 28.698 5.89 39.343 7.963-8.773-2.357-20.35-5.393-31.177-8.226-47.62-12.467-53.782-14.309-54.643-15.24a.577.577 0 0 1-.111-.12 1.083 1.083 0 0 1-.102-.78s0-.122.07-.182c-1.386-.506-1.932-.81-2.104-1.103a1.012 1.012 0 0 1-.102-.77c.192-.687.283-1.011 5.231.082a.334.334 0 0 1-.08-.112 1.012 1.012 0 0 1-.102-.759c.445-1.609.546-2.023 61.321 13.62 11.06 2.834 22.758 5.84 32.725 8.329-12.274-3.3-27.321-7.225-40.8-10.747-48.39-12.638-55.149-14.561-56.07-15.502a.476.476 0 0 1-.09-.122.93.93 0 0 1-.102-.748c.465-1.71.648-2.348 78.645 16.585 14.005 3.4 28.252 6.86 38.968 9.37-14.48-3.987-35.74-9.512-54.268-14.329-50.17-13.043-55.402-14.51-55.938-15.512a1.012 1.012 0 0 1-.091-.76.769.769 0 0 1 .192-.353 1.63 1.63 0 0 1-.587-.486 1.123 1.123 0 0 1-.11-.81c.485-1.75.647-2.347 77.005 17.638 15.108 3.946 31.278 8.186 43.43 11.222-14.854-4.048-36.053-9.532-54.642-14.329-49.867-12.881-54.906-14.369-55.412-15.32a1.012 1.012 0 0 1-.08-.769c.414-1.578.515-1.943 71.106 14.076 19.843 4.503 41.488 9.41 54.116 12.031-13.155-3.724-36.56-9.724-57.992-15.239-50.99-13.155-62.677-16.302-64.033-17.678a.951.951 0 0 1-.091-.121 1.103 1.103 0 0 1-.102-.78c.425-1.578.496-1.82 67.383 15.887 21.887 5.788 47.407 12.538 62.454 16.19-16.838-4.826-47.468-12.719-71.774-18.993-49.654-12.8-54.531-14.166-55.128-15.178a1.012 1.012 0 0 1-.102-.759c.415-1.518.456-1.71 67.464 15.178 20.713 5.232 44.523 11.263 60.43 15.027-14.986-4.108-37.36-9.947-58.052-15.35-59.703-15.604-67.717-17.89-68.364-18.984a1.012 1.012 0 0 1-.091-.769c.455-1.639.576-2.084 77.4 16.474 18.78 4.554 39.12 9.472 52.538 12.507-13.357-3.653-33.828-8.915-52.74-13.772-56.202-14.42-70.52-18.376-72.078-19.944a.648.648 0 0 1-.102-.132 1.012 1.012 0 0 1-.101-.8c.232-.9.384-1.426 12.071 1.387-10.908-3.036-15.826-4.715-16.676-5.576l-.09-.121a1.184 1.184 0 0 1-.112-.81c.445-1.619.567-2.023 81.69 17.294 21.382 5.06 44.646 10.645 58.833 13.792-13.681-3.795-36.095-9.502-56.667-14.784-54.855-14.004-73.039-18.872-74.88-20.693a.364.364 0 0 1-.112-.142 1.123 1.123 0 0 1-.111-.81c.536-1.952 4.958-1.558 94.107 19.733 15.512 3.713 31.369 7.478 42.864 10.119-15.593-4.28-39.575-10.504-61.726-16.241-65.52-16.98-79.687-20.987-80.395-22.323a1.143 1.143 0 0 1-.102-.8c.455-1.659.587-2.165 81.58 16.97 26.582 6.284 55.735 13.155 70.701 16.252-14.51-4.15-42.925-11.516-68.81-18.215-62.454-16.19-77.36-20.309-78.806-21.786a.395.395 0 0 1-.091-.111 1.012 1.012 0 0 1-.102-.79c.557-2.023 5.292-1.497 100.978 23.052 17.9 4.583 36.145 9.279 48.814 12.395-18.77-5.292-50.696-13.529-78.109-20.602-62.221-16.049-76.277-19.904-77.704-21.351l-.101-.111a1.012 1.012 0 0 1-.091-.79c.425-1.578.506-1.852 81.337 19.287 22.19 5.808 45.99 12.042 63.75 16.494a4702.098 4702.098 0 0 1-27.767-7.68c-9.36-2.409-19.115-4.898-28.556-7.306-61.088-15.563-81.306-20.957-83.27-22.94l-.1-.142a1.113 1.113 0 0 1-.112-.82 1.012 1.012 0 0 1 .313-.505 1.143 1.143 0 0 1 0-.607c.112-.425.213-.77 1.448-.729-4.17-1.275-5.708-1.953-5.88-2.327a1.012 1.012 0 0 1-.101-.78c.394-1.457.455-1.649 56.91 11.728 2.59.608 5.2 1.235 7.78 1.832l-9.916-2.56c-42.318-10.939-48.278-12.77-48.885-13.701a1.012 1.012 0 0 1-.131-.547c-5.87-1.66-6.568-2.023-6.7-2.398a1.012 1.012 0 0 1-.1-.749c.363-1.346.394-1.437 44.432 6.466 9.775 1.751 20.238 3.623 28.232 5a2929.558 2929.558 0 0 0-19.55-5.06c-38.452-9.917-45.404-11.94-46.436-12.993a.304.304 0 0 1-.112-.142 1.012 1.012 0 0 1-.101-.759c.364-1.366.364-1.366 34.85 6.598 8.429 1.953 17.8 4.118 25.763 5.9-7.58-2.025-16.434-4.332-24.428-6.426-35.78-9.32-35.912-9.431-36.296-10.19a1.012 1.012 0 0 1-.102-.739c.384-1.386.405-1.437 35.78 6.699l7.66 1.76-5.95-1.517c-31.368-8.004-36.994-9.634-37.935-10.585a.688.688 0 0 1-.122-.131 1.073 1.073 0 0 1-.101-.79c.182-.688.293-1.082 5.484 0a.85.85 0 0 1-.526-.435 1.012 1.012 0 0 1-.102-.759c.334-1.224.334-1.224 31.116 3.967 9.856 1.67 21.119 3.572 29.082 4.796-6.203-1.67-14.43-3.804-22.1-5.788-30.822-7.994-32.239-8.449-32.553-9.208a.951.951 0 0 1-.09-.759c.11-.435.202-.759 1.386-.698-.941-.374-1.316-.567-1.437-.86a1.012 1.012 0 0 1-.102-.78c.365-1.325.385-1.406 36.429 5.89 7.528 1.518 15.958 3.228 22.818 4.564-7.792-2.095-17.81-4.696-26.704-6.993-31.288-8.095-31.44-8.237-31.845-8.945a1.012 1.012 0 0 1-.09-.749c.293-1.163.293-1.163 30.771 4.048 10.12 1.72 22.353 3.825 30.995 5.18-7.083-1.922-16.757-4.441-25.298-6.657-31.207-8.146-31.369-8.308-31.672-8.946a1.012 1.012 0 0 1-.091-.759c.364-1.345.384-1.426 37.44 6.446a2986.857 2986.857 0 0 0 19.48 4.119l-13.985-3.663c-34.354-8.935-35.994-9.462-36.287-10.251a1.012 1.012 0 0 1-.111-.749c.364-1.325.374-1.346 33.524 5.525 4.381.89 9.107 1.872 13.57 2.793l-3.603-.93c-28.04-7.165-32.138-8.42-32.947-9.24a.617.617 0 0 1-.122-.161 1.062 1.062 0 0 1-.111-.77c.354-1.274.364-1.315 29.548 5.414-23.527-6.071-23.426-6.213-23.73-6.78a1.012 1.012 0 0 1-.101-.758c.344-1.245.344-1.245 35.76 5.008 6.608 1.174 13.63 2.399 19.48 3.41-6.649-1.79-14.835-3.936-22.161-5.848-29.548-7.741-29.79-7.913-30.185-8.54a1.012 1.012 0 0 1-.102-.76c.324-1.103.365-1.295 20.967 3.3-9.107-2.42-10.554-2.966-10.868-3.623a1.012 1.012 0 0 1-.102-.77c.365-1.315.385-1.355 29.082 4.23 3.542.698 7.357 1.447 11 2.146l-5.666-1.457c-25.44-6.527-26.755-7.084-27.261-7.772a1.012 1.012 0 0 1-.102-.769c.172-.607.253-.9 3.512-.293-3.279-1.012-3.623-1.245-3.886-1.62a1.012 1.012 0 0 1-.091-.758c.253-.961.334-1.225 10.514 1.153-.07 0-.091-.1-.142-.141-6.365-1.74-6.446-1.923-6.638-2.287a1.012 1.012 0 0 1-.091-.76c.283-1.011.283-1.011 22.768 1.013 4.816.455 10.007.93 13.68 1.234l.122-.07.425.121-.445-.121.435-.86c.243.1 1.69.465 2.63.708 2.42.617 2.43.577 2.662 1.012a.91.91 0 0 1 .081.708c-.243 1.012-.243 1.012-19.793-.83-4.25-.394-8.985-.83-12.942-1.174 1.923.436 5.394 1.346 11.86 3.147 1.072.294 2.165.567 3.228.85 24.285 6.365 24.285 6.456 24.589 7.033.627.263.708.405.81.587a1.012 1.012 0 0 1 .101.77c-.192.718-.273 1.011-4.857.08 2.378.719 2.62 1.012 2.803 1.245a1.012 1.012 0 0 1 .09.759c-.171.657-.262 1.012-4.25.172 3.694 1.012 3.836 1.224 4.049 1.588a1.012 1.012 0 0 1 .11.75c-.363 1.305-.384 1.386-29.698-4.332-4.362-.86-9.108-1.78-13.438-2.6 4.867 1.275 10.3 2.65 15.026 3.855 21.149 5.404 21.25 5.505 21.635 6.152a1.012 1.012 0 0 1 .101.76c-.313 1.193-.313 1.193-28.404-5.06l-2.024-.456c34.75 9.108 34.962 9.29 35.346 10.039a1.012 1.012 0 0 1 .091.748c-.334 1.215-.334 1.215-34.465-4.806a5749.436 5749.436 0 0 0-19.58-3.42l10.736 2.772c30.296 7.802 31.723 8.45 32.198 9.107a1.073 1.073 0 0 1 .112.77c-.354 1.295-.375 1.335-29.932-5.485 23.506 6.071 23.739 6.213 24.103 6.84a1.123 1.123 0 0 1 .102.77c-.375 1.325-.385 1.406-36.054-5.981l-13.64-2.823c5.575 1.477 11.737 3.086 17.394 4.563 32.765 8.52 32.958 8.652 33.322 9.401a1.012 1.012 0 0 1 .09.759c-.364 1.356-.404 1.508-39.787-6.87-5.06-1.073-10.251-2.187-15.118-3.198l10.362 2.701c34.495 9.006 36.084 9.573 36.428 10.312a1.012 1.012 0 0 1 .102.759c-.364 1.335-.395 1.477-43.107-5.829a7332.43 7332.43 0 0 0-15.179-2.59 3533.887 3533.887 0 0 0 17.203 4.472c36.883 9.532 40.243 10.574 40.85 11.546a1.154 1.154 0 0 1 .102.78c-.375 1.345-.405 1.446-37.947-6.153-7.083-1.407-14.48-2.915-20.693-4.139 6.466 1.71 14.288 3.724 21.25 5.505 27.605 7.083 28.778 7.498 29.274 8.237a1.012 1.012 0 0 1 .102.759c-.142.516-.223.82-2.024.556 1.75.577 2.024.79 2.165 1.063a.93.93 0 0 1 .102.748c-.364 1.346-.405 1.528-40.81-5.302a868.442 868.442 0 0 0-16.94-2.823c6.305 1.69 14.167 3.734 21.544 5.667 35.923 9.39 37.562 9.916 37.845 10.685a1.012 1.012 0 0 1 .112.76c-.193.697-.284 1.011-5.96-.294a2.682 2.682 0 0 1 1.254.759 1.012 1.012 0 0 1 .091.769c-.364 1.376-.394 1.487-37.582-7.084l-3.035-.708 4.533 1.194c38.806 10.119 43.269 11.384 43.775 12.335a1.012 1.012 0 0 1 .101.759c-.404 1.457-.486 1.72-46.132-8.834l-8.652-2.024c7.083 1.852 14.672 3.825 21.371 5.566 32.958 8.51 33.12 8.692 33.464 9.35a1.012 1.012 0 0 1 .101.759c-.364 1.346-.374 1.396-43.056-6.264-10.797-1.933-22.393-4.048-30.833-5.444 8.48 2.287 20.3 5.383 31.278 8.257 46.052 12.214 51.314 13.742 51.89 14.754a1.336 1.336 0 0 1 .132.445c4.635 1.336 5.707 1.801 5.97 2.277a1.012 1.012 0 0 1 .102.759c-.364 1.376-.364 1.376-45.05-9.199a3299.096 3299.096 0 0 0-37.734-8.844c16.535 4.564 42.43 11.354 66.34 17.628 68.607 17.971 82.663 21.867 83.432 23.152a1.012 1.012 0 0 1 .111.769c-.152.546-.263.92-3.288.374a6.071 6.071 0 0 1 1.963 1.073 1.174 1.174 0 0 1 .101.283c3.289 1.083 4.857 1.802 5.16 2.328a1.154 1.154 0 0 1 .112.82c-.324 1.193-.485 1.77-32.38-6.325 22.737 6.071 31.783 8.976 32.38 10.119a1.164 1.164 0 0 1 .111.82c-.414 1.538-.465 1.69-67.018-15.381-30.934-7.944-70.64-18.123-89.047-22.14 14.5 4.138 42.5 11.414 68.07 18.052 62.89 16.312 77.917 20.45 79.354 21.938a.445.445 0 0 1 .09.111 1.012 1.012 0 0 1 .102.78c-.465 1.71-.607 2.215-82.348-17.102-26.31-6.233-55.28-13.064-70.084-16.12 14.601 4.19 43.511 11.688 69.922 18.528 62.93 16.302 77.967 20.45 79.454 21.959a.445.445 0 0 1 .091.111 1.083 1.083 0 0 1 .112.79c-.415 1.487-.446 1.618-61.726-13.014-30.438-7.275-70.014-16.726-85.678-19.65 12.568 3.774 41.417 11.13 67.565 17.829 52.467 13.408 68.809 17.779 70.448 19.428a1.143 1.143 0 0 1 .102.132 1.103 1.103 0 0 1 .11.8c-.434 1.558-.505 1.83-73.716-15.635-26.522-6.314-55.655-13.266-70.418-16.372 15.047 4.381 45.657 12.264 71.561 18.943 54.37 14.014 66.715 17.394 68.04 18.73l.092.101a1.012 1.012 0 0 1 .09.79c-.263 1.011-.424 1.568-14.733-1.893 7.255 2.085 9.664 3.036 10.028 3.633a1.083 1.083 0 0 1 .111.79c-.425 1.568-.506 1.85-69.183-14.744-20.835-5.06-44.929-10.858-60.28-14.288 13.388 3.663 33.596 8.935 52.276 13.822 60.582 15.816 75.012 19.803 76.378 21.19a.769.769 0 0 1 .08.11 1.012 1.012 0 0 1 .092.78c-.405 1.528-.526 2.024-64.256-14.076 40.598 10.565 56.666 15.088 58.286 16.768a.536.536 0 0 1 .101.121 1.164 1.164 0 0 1 .112.82c-.253.94-.405 1.477-14.562-1.933 3.198 1.012 4.422 1.64 4.746 2.074a1.154 1.154 0 0 1 .102.8c-.415 1.548-.496 1.831-66.563-13.155-19.763-4.483-41.185-9.36-54.977-12.244 10.544 2.823 25.54 6.709 40.264 10.514 57.425 14.824 72.796 19.094 74.374 20.693a.587.587 0 0 1 .112.132 1.154 1.154 0 0 1 .101.799c-.435 1.579-.526 1.913-64.377-14.794-22.859-5.99-49.684-13.003-64.377-16.403 8.338 2.115 22.414 5.96 45.758 12.457 8.794 2.287 17.658 4.563 25.783 6.668 47.408 12.234 49.675 12.871 50.12 13.792a1.012 1.012 0 0 1 .102.75 1.073 1.073 0 0 1-.486.626c-.334.183-1.407.112-3.906-.425a.293.293 0 0 1 0 .102c-.415 1.497-.455 1.69-58.103-12.305-21.898-5.323-47.357-11.505-62.83-14.885 10.95 2.975 26.735 7.083 41.377 10.928 55.554 14.511 65.217 17.263 66.391 18.457a.425.425 0 0 1 .081.122 1.012 1.012 0 0 1 .102.769c-.365 1.336-.486 1.78-35.245-7.023 17.202 4.615 22.323 6.375 22.748 7.175a1.083 1.083 0 0 1 .111.789c-.172.617-.304 1.073-4.048.405a1.224 1.224 0 0 1 0 .688c-.182.617-.273 1.012-4.867 0a.668.668 0 0 1 0 .152c-.384 1.437-.435 1.629-55.584-9.694-15.006-3.087-31.267-6.426-41.882-8.45 9.532 2.6 23.526 6.193 35.72 9.32 34.617 8.874 39.818 10.372 40.688 11.262a.506.506 0 0 1 .102.132 1.012 1.012 0 0 1 .111.769c-.405 1.457-.495 1.811-53.479-9.036-8.237-1.69-16.595-3.4-23.395-4.746 7.083 1.882 15.857 4.047 23.679 6.071 31.945 8.095 35.335 9.107 35.76 10.059a1.012 1.012 0 0 1 .112.779c-.081.273-.132.485-.425.597 3.622 1.012 3.703 1.204 3.895 1.568a1.012 1.012 0 0 1 .091.739c-.364 1.376-.374 1.396-43.511-8.277l-15.817-3.542 15.27 4.392c13.59 3.551 22.262 5.869 27.807 7.417 9.502 2.55 9.745 2.722 10.038 3.238a1.012 1.012 0 0 1 .091.739 1.012 1.012 0 0 1-.465.607 1.012 1.012 0 0 1-.557.121c-1.366.516-7.761-.93-43.016-9.31l-1.083-.262c30.246 7.781 35.771 9.41 36.682 10.341a.385.385 0 0 1 .101.132 1.012 1.012 0 0 1 .112.779c-.344 1.224-.456 1.64-28.334-5.06 26.462 6.982 26.745 7.266 27.16 7.812a1.073 1.073 0 0 1 .102.77c-.355 1.325-.365 1.345-41.347-6.983-8.874-1.801-18.305-3.714-25.955-5.211 2.63.728 5.606 1.538 8.945 2.479 6.79 1.791 14.167 3.693 20.977 5.464 34.293 8.875 35.568 9.219 35.983 10.12a1.012 1.012 0 0 1-.384 1.345c-.415.253-1.66.132-6.983-1.214-1.194.567-6.749-.628-38.452-7.67-6.699-1.488-14.035-3.127-20.592-4.544 7.174 1.913 15.401 4.048 22.879 6 35.295 9.21 35.417 9.371 35.862 10.12a1.012 1.012 0 0 1 .08.749c-.384 1.447-.485 1.79-54.004-8.652a4102.306 4102.306 0 0 0-19.49-3.785c9.654 2.641 23.021 6.072 34.03 8.925 33.97 8.743 33.89 8.844 34.243 9.563a1.012 1.012 0 0 1 .091.759c-.182.668-.283 1.062-4.189.283 2.368.749 3.107 1.164 3.309 1.477a1.073 1.073 0 0 1 .102.79c-.395 1.396-.456 1.629-48.987-9.593.86.222 1.71.455 2.55.658 36.925 9.603 38.827 10.27 39.14 11.03a.92.92 0 0 1 .102.758c-.172.648-.273 1.012-4.047.263 1.194.415 1.437.658 1.538.85a.951.951 0 0 1 .102.76c-.375 1.426-.446 1.649-48.815-9.523l-5.93-1.356 13.358 3.461c37.157 9.603 38.837 10.26 39.464 11.05a1.012 1.012 0 0 1 .102.759c-.334 1.174-.375 1.356-23.588-4.463 15.523 4.048 15.796 4.321 16.049 4.847a1.012 1.012 0 0 1 .111.76c-.152.526-.243.87-2.57.505 1.164.405 1.315.557 1.427.79.111.232.07.162.101.232a1.832 1.832 0 0 1 .678.506 1.012 1.012 0 0 1 .081.77c-.364 1.365-.384 1.436-46.132-8.551l-13.793-3.117c3.643.961 7.397 1.943 11.04 2.884 40.345 10.534 44.615 11.9 45.1 12.7a1.012 1.012 0 0 1 .102.779c-.374 1.366-.405 1.477-41.326-6.75-13.155-2.64-28.444-5.707-38.28-7.478 7.873 2.135 19.297 5.06 29.871 7.741 36.57 9.3 41.488 10.848 42.065 11.799a1.012 1.012 0 0 1 .102.79c-.385 1.436-.456 1.7-47.236-7.974-8.095-1.67-16.615-3.43-23.74-4.858 6.477 1.72 14.168 3.714 21.342 5.596 40.89 10.656 42.986 11.516 43.512 12.244a1.073 1.073 0 0 1 .101.77c-.364 1.355-.364 1.355-41.214-8.005l-18.215-4.159c6.163 1.61 12.821 3.31 18.963 4.878 32.948 8.449 34.233 9.107 34.709 9.724a1.012 1.012 0 0 1 .101.78c-.202.738-.293 1.082-5.778-.132 6.77 1.861 8.015 2.418 8.247 2.873a1.012 1.012 0 0 1 .112.76c-.365 1.274-.365 1.274-34.921-6.143-12.295-2.641-27.392-5.88-37.694-7.923 8.946 2.428 21.615 5.687 32.695 8.53 33.13 8.49 34.607 9.047 35.113 9.816a1.012 1.012 0 0 1 .102.769 1.012 1.012 0 0 1-.466.587c-.172.101-.374.151-1.012.09a1.012 1.012 0 0 1 0 .345c-.384 1.386-.445 1.609-48.632-8.51l-13.55-2.834c5.222 1.387 10.838 2.844 16.02 4.2 34.98 9.107 35.133 9.279 35.558 10.028a1.012 1.012 0 0 1 .09.749c-.192.718-.293 1.092-5.615-.07 1.78.576 1.882.718 2.023 1.011a.941.941 0 0 1 .102.739c-.364 1.305-.364 1.305-33.393-6.669-5.06-1.214-10.675-2.57-16.19-3.865l14.49 3.734c34.638 8.915 38.149 9.977 38.726 10.868a1.012 1.012 0 0 1 .09.759 1.012 1.012 0 0 1-.485.617c-.324.192-1.083.192-3.248-.263-.334.87-1.66.85-17.78-3.036 15.574 4.159 18.64 5.181 19.055 5.93a1.012 1.012 0 0 1 .101.769c-.384 1.427-.425 1.568-46.193-8.652-7.66-1.71-15.725-3.501-22.849-5.06l4.149 1.134 11.465 2.924c35.922 9.188 42.5 11.131 43.593 12.143a.455.455 0 0 1 .11.142 1.012 1.012 0 0 1 .102.79 1.012 1.012 0 0 1-.465.586c-.162.102-.294.172-.86.102-.415 1.214-2.388 1.012-43.512-7.822-4.867-1.012-9.927-2.125-14.683-3.127l8.844 2.267c35.194 9.036 41.71 10.918 42.753 11.97a.607.607 0 0 1 .112.142 1.012 1.012 0 0 1 .101.8c-.233.86-.344 1.244-9.684-.952 12.629 3.4 13.53 3.845 13.853 4.351a1.012 1.012 0 0 1 .102.76c-.375 1.355-.385 1.406-47.863-9.179l-14.744-3.278c4.473 1.174 9.107 2.378 13.62 3.541 37.026 9.644 41.225 10.919 41.984 11.688a.425.425 0 0 1 .112.162 1.012 1.012 0 0 1 .101.769c-.354 1.336-.394 1.447-46.446-7.529-9.937-1.932-20.521-4.047-28.86-5.565 5.819 1.538 12.69 3.319 19.47 5.06 40.719 10.564 46.173 12.304 46.74 13.154a1.012 1.012 0 0 1 .1.77c-.282 1.011-.363 1.315-16.19-2.48 16.332 4.361 16.494 4.554 16.788 5.12a.92.92 0 0 1 .09.749c-.343 1.305-.353 1.326-41.598-6.466-9.431-1.781-19.5-3.683-27.403-5.06a3022.766 3022.766 0 0 0 19.034 4.928c35.417 9.108 40.223 10.595 40.679 11.486a1.012 1.012 0 0 1 .11.779c-.373 1.376-.414 1.528-45.535-6.81-10.523-1.943-21.826-4.048-30.124-5.475 7.448 2.024 17.293 4.564 26.502 6.962 37.44 9.765 42.985 11.364 43.866 12.254a.607.607 0 0 1 .11.122 1.012 1.012 0 0 1 .092.759c-.354 1.325-.354 1.325-37.542-6.163-10.27-2.074-21.847-4.402-30.822-6.122 5.879 1.569 12.81 3.37 19.358 5.06 38.047 9.906 40.05 10.574 40.364 11.384a.92.92 0 0 1 .102.759c-.142.526-.243.89-2.378.596a.88.88 0 0 1 0 .365c-.142.526-.243.88-2.297.617 2.115.658 2.226.82 2.388 1.123a1.012 1.012 0 0 1 .09.76c-.374 1.315-.394 1.375-39.372-6.244-12.7-2.49-27.322-5.353-37.086-7.084 7.589 2.024 18.123 4.746 27.908 7.256 36.58 9.36 43.32 11.303 44.362 12.365a.455.455 0 0 1 .11.142 1.012 1.012 0 0 1 .102.79c-.394 1.446-.475 1.74-46.891-7.722-11.86-2.418-24.66-5.06-33.545-6.688 8.895 2.438 21.716 5.778 32.897 8.692 34.8 9.107 34.941 9.218 35.255 9.896a1.012 1.012 0 0 1 .09.76c-.363 1.345-.384 1.426-40.374-6.912-10.422-2.176-22.262-4.645-31.015-6.375 8.379 2.267 19.692 5.15 29.67 7.7 34.92 8.925 38.937 10.12 39.463 11.07a1.073 1.073 0 0 1 .112.79c-.294 1.073-.395 1.427-18.032-2.904 11.394 3.036 11.495 3.167 11.758 3.683a1.012 1.012 0 0 1 .09.749c-.394 1.417-.434 1.568-46.223-9.218l-.283-.081 11.536 3.035c34.09 8.844 34.263 9.006 34.586 9.684a1.012 1.012 0 0 1 .091.759c-.384 1.407-.455 1.66-43.511-7.033-8.834-1.79-18.285-3.703-25.51-5.06 8.439 2.298 20.076 5.283 30.296 7.914 32.684 8.399 34.303 8.935 34.648 9.714a1.012 1.012 0 0 1 .101.77c-.344 1.315-.344 1.315-40.85-6.68a2931.895 2931.895 0 0 0-30.236-5.889c9.957 2.743 24.448 6.487 36.277 9.553 30.954 7.994 30.984 8.095 31.298 8.732a1.012 1.012 0 0 1 .09.75c-.384 1.436-.444 1.618-47.73-9.452l-11.02-2.57 10.119 2.58c33.14 8.44 36.62 9.613 37.197 10.443a1.012 1.012 0 0 1 .112.78c-.152.505-.233.85-2.297.576 1.265.445 1.517.708 1.639.9a1.073 1.073 0 0 1 .101.77c-.253.9-.364 1.315-10.119-1.012 7.397 2.024 7.488 2.226 7.68 2.6a1.062 1.062 0 0 1 .092.75c-.132.455-.203.768-1.548.627a.739.739 0 0 1 0 .334c-.344 1.274-.375 1.386-32.553-6.315 24.882 6.517 29.132 7.954 29.658 8.723a1.012 1.012 0 0 1 .112.779c-.385 1.396-.445 1.609-41.043-7.012-7.913-1.67-16.312-3.451-23.152-4.848 6.628 1.73 14.682 3.755 21.897 5.576 29.528 7.427 34.931 8.976 35.903 9.967a.82.82 0 0 1 .131.152 1.103 1.103 0 0 1 .102.8c-.344 1.214-.344 1.214-34.081-5.353-11.283-2.196-24.873-4.837-35.123-6.7 3.521 1.013 7.913 2.197 13.377 3.745l8.368 2.186c42.217 11.02 47.853 12.709 48.744 13.62a.637.637 0 0 1 .111.131 1.093 1.093 0 0 1 .091.78 1.073 1.073 0 0 1-.475.596c-.456.264-1.66.162-6.84-1.184-2.166.142-9.675-1.163-37.563-5.98-8.014-1.396-16.544-2.863-23.425-4.047l20.582 5.454c39.656 10.463 40.112 10.675 40.527 11.444a1.012 1.012 0 0 1 .09.76c-.202.758-.293 1.092-6.567-.335a1.012 1.012 0 0 1 .112.77c-.122.445-.203.748-1.235.708 1.68.516 1.73.647 1.872.9a.93.93 0 0 1 .091.75 1.012 1.012 0 0 1-.465.596c-.324.182-.527.304-4.473-.718-1.012.374-4.756-.385-20.43-3.896 15.35 4.048 15.451 4.128 15.765 4.695a1.062 1.062 0 0 1 .102.749c-.354 1.265-.354 1.265-25.824-3.532l-.678-.121 2.155.556c20.552 5.384 20.491 5.485 20.805 5.99a.93.93 0 0 1 .091.75c-.243 1.012-.243 1.012-14.632.425l-6.456-.253c1.65.435 3.43.9 5.06 1.315 11.414 2.955 11.414 3.036 11.687 3.481a.93.93 0 0 1 .091.749c-.263.951-.263.951-10.028-.455l-1.76-.253a.395.395 0 0 1 0 .151c6.587 1.781 6.607 1.802 6.354 2.733a1.012 1.012 0 0 1-1.174.688h-.141c-.436-.142-3.34-.931-5.92-1.62-3.663-1.011-5.657-1.527-6.699-1.912h-.192c-.83-.324-1.012-.536-.951-.83-1.316-.364-1.387-.465-1.528-.748a.92.92 0 0 1-.091-.73c.233-.839.273-1.01 6.699-.1-9.684-2.52-9.664-2.632-9.401-3.613.263-.982.273-1.012 14.49-.435l6.912.263c-3.876-1.012-8.976-2.378-13.742-3.623-16.909-4.452-20.845-5.484-21.614-6.263zm280.216-258.824c-10.028-2.651-19.783-5.221-28.05-7.336 8.207 2.196 17.941 4.725 28.05 7.336zm65.52 15.29c-6.81-1.791-14.51-3.785-22.534-5.87a2825.02 2825.02 0 0 0 22.535 5.87z" class="cls-1" style="stroke-width:1.0119"/><path id="path77" d="M208.212 626.867c-56.859 0-101.14-36.732-112.787-93.601l39.343-11.04c4.604 32.38 29.274 67.19 72.493 67.19 35.78 0 74.395-26.977 74.395-70.56 0-41.488-33.039-56.595-64.975-71.197l-23.79-10.382c-49.775-22.606-78.756-45.07-78.756-92.64 0-52.548 43.512-92.164 101.281-92.164 40.173 0 74.304 20.471 93.601 56.16l-32.168 20.644c-16.14-27.919-34.212-39.363-62.384-39.363-29.476 0-59.995 21.007-59.995 56.15 0 31.106 32.613 45.809 56.423 56.545l24.225 10.666c55.027 24.133 86.872 48.57 86.872 101.746-.02 62.718-49.988 111.846-113.778 111.846z" class="cls-1" style="stroke-width:1.0119"/><path id="path79" d="M566.283 620.623V493.427c0-37.814-3.592-69.113-47.509-69.113-51.83 0-56.18 46.082-56.18 89.28v107.03H424.14V224.635h38.453v155.377a19.651 19.651 0 0 0 28.91 17.344c10.675-5.697 22.91-8.57 36.428-8.57 32.978 0 76.783 10.119 76.783 97.921v133.915Z" class="cls-1" style="stroke-width:1.0119"/><path id="path81" d="M728.026 620.623V395.02h38.391v225.654zm19.226-283.19a27.321 27.321 0 1 1 27.321-27.322 27.392 27.392 0 0 1-27.342 27.322z" class="cls-1" style="stroke-width:1.0119"/><path id="path83" d="M1004.973 626.867a100.512 100.512 0 0 1-51.415-13.701 19.681 19.681 0 0 0-10.119-2.783 19.803 19.803 0 0 0-17.202 10.22h-38.392V224.636h38.392V384.82a19.651 19.651 0 0 0 29.547 16.99 96.86 96.86 0 0 1 48.713-13.023c62.86 0 108.476 50.058 108.476 119.04.061 67.868-46.426 119.04-108 119.04zm-7.195-202.553c-47.69 0-73.444 41.802-73.444 81.115 0 42.692 25.39 85.92 73.87 85.92 52.042 0 75.366-42.915 75.366-85.445.05-39.292-23.699-81.59-75.792-81.59z" class="cls-1" style="stroke-width:1.0119"/><path id="path85" d="M1298.718 626.867c-61.554 0-107.98-50.97-107.98-118.555 0-69.264 45.616-119.525 108.476-119.525a96.13 96.13 0 0 1 50.332 14.227 19.671 19.671 0 0 0 27.878-7.964h38.452v225.654h-38.452a19.702 19.702 0 0 0-27.494-7.427c-14.915 8.996-32.158 13.59-51.212 13.59zm4.806-202.553c-47.69 0-73.443 41.802-73.443 81.115 0 42.692 25.388 85.92 73.868 85.92 52.052 0 75.367-42.915 75.367-85.445.05-39.292-23.699-81.59-75.792-81.59z" class="cls-1" style="stroke-width:1.0119"/><path id="path87" d="M189.036 1022.156V707.455h-59.945v381.598h159.8v-57.102h-90.009a9.866 9.866 0 0 1-9.846-9.795z" class="cls-1" style="stroke-width:1.0119"/><path id="path89" d="M520.819 849.283a9.866 9.866 0 0 1-6.163 5.06 9.107 9.107 0 0 1-2.62.384 9.896 9.896 0 0 1-5.131-1.478 106.108 106.108 0 0 0-55.473-15.664c-68.556 0-118.301 54.4-118.301 129.331 0 73.201 50.595 128.39 117.806 128.39 20.875 0 39.828-5.059 56.332-15.097a9.826 9.826 0 0 1 5.06-1.427 10.514 10.514 0 0 1 2.59.344 9.987 9.987 0 0 1 6.072 4.807l2.792 5.12h54.036V843.798h-54.33zm.92 115.245c0 34.87-17.202 75.61-65.55 75.61-42.065 0-64.095-38.301-64.095-76.106 0-34.556 22.262-71.278 63.629-71.278 45.586 0 66.016 36.044 66.016 71.774z" class="cls-1" style="stroke-width:1.0119"/><path id="path91" d="M796.997 837.585a106.624 106.624 0 0 0-53.631 14.36 9.795 9.795 0 0 1-4.928 1.325 9.654 9.654 0 0 1-4.898-1.326 9.836 9.836 0 0 1-4.938-8.51v-170H670.53v415.64h54.016l2.793-5.06a10.048 10.048 0 0 1 6.07-4.787 9.482 9.482 0 0 1 2.53-.334 9.967 9.967 0 0 1 5.06 1.397 110.358 110.358 0 0 0 56.454 15.077c67.17 0 117.816-55.391 117.816-128.866.02-74.718-49.725-128.916-118.271-128.916Zm59.297 126.943c0 34.87-17.202 75.61-65.55 75.61-42.076 0-64.105-38.301-64.105-76.106 0-34.556 22.262-71.278 63.629-71.278 45.596 0 66.026 36.044 66.026 71.774z" class="cls-1" style="stroke-width:1.0119"/><path id="path95" d="m133.392 1171.998 32.077 74.102 32.209-74.102 17.9 93.308H205.46l-11.353-59.702h-.223l-28.465 63.355-28.333-63.355h-.243l-11.353 59.702H115.42z" class="cls-1" style="stroke-width:1.0119"/><path id="path97" d="M278.863 1265.306h-9.36v-7.61h-.253a23.092 23.092 0 0 1-18.963 9.108c-16.19 0-26.31-13.702-26.31-28.91 0-15.685 9.957-29.163 26.451-29.163a23.8 23.8 0 0 1 18.822 9.41h.253v-7.832h9.36zm-45.323-28.1c0 10.766 6.324 20.966 18.032 20.966 12.062 0 18.376-9.724 18.376-20.855s-6.901-19.904-18.488-19.904c-10.898 0-17.92 9.471-17.92 19.793z" class="cls-1" style="stroke-width:1.0119"/><path id="path99" d="m306.852 1230.638 20.046-20.36h12.527l-23.547 23.406 27.99 31.622H331.45l-22.14-25.055-2.46 2.46v22.595h-9.339V1168.7h9.34z" class="cls-1" style="stroke-width:1.0119"/><path id="path101" d="M367.89 1189.555a6.679 6.679 0 0 1-13.347 0 6.679 6.679 0 1 1 13.347 0zm-2.024 75.75h-9.33v-55.026h9.36z" class="cls-1" style="stroke-width:1.0119"/><path id="path103" d="M396.608 1216.957h.242c3.866-5.282 8.895-8.216 15.695-8.216 15.179 0 18.73 11.01 18.73 23.9v32.665h-9.37v-31.035c0-8.895-.698-16.858-11.596-16.858-12.872 0-13.701 11.93-13.701 21.776v26.117h-9.37v-55.027h9.37z" class="cls-1" style="stroke-width:1.0119"/><path id="path105" d="M500.49 1262.665c0 8.783 0 16.393-5.617 23.658-5.15 6.547-13.154 9.704-21.31 9.704-15.35 0-26.704-9.704-27.059-25.297h9.36c.142 10.18 7.499 16.615 17.567 16.615 14.531 0 17.698-10.655 17.698-23.071v-6.547h-.253a24.286 24.286 0 0 1-19.074 9.107c-16.049 0-26.229-13.448-26.229-28.799 0-15.35 10.292-29.274 26.573-29.274a22.91 22.91 0 0 1 18.73 9.38h.253v-7.832h9.36zm-45.324-25.409c0 10.767 6.325 20.967 18.032 20.967 12.062 0 18.377-9.725 18.377-20.856 0-11.13-6.902-19.904-18.488-19.904-10.898-.05-17.92 9.421-17.92 19.743z" class="cls-1" style="stroke-width:1.0119"/><path id="path107" d="m563.642 1207.01 21.898 21.898 21.786-21.898 6.537 6.436-21.888 21.898 21.888 21.887-6.537 6.436-21.786-21.898-21.898 21.908-6.456-6.436 21.898-21.898-21.898-21.897z" class="cls-1" style="stroke-width:1.0119"/><path id="path109" d="M737.446 1196.345a37.764 37.764 0 0 0-26.926-11.708c-19.682 0-35.64 17.081-35.64 36.54s16.05 36.54 35.822 36.54c9.957 0 19.681-4.695 26.704-11.718v12.143a45.536 45.536 0 0 1-26.31 8.641c-24.943 0-46.02-20.238-46.02-45.302a46.173 46.173 0 0 1 46.02-46.022 42.621 42.621 0 0 1 26.31 8.672z" class="cls-1" style="stroke-width:1.0119"/><path id="path111" d="M764.778 1216.239H765c3.279-4.341 6.072-7.498 12.143-7.498a16.565 16.565 0 0 1 8.44 2.59l-4.453 8.54c-1.872-1.285-3.157-2.458-5.616-2.458-10.311 0-10.766 13.225-10.766 20.38v27.513h-9.39v-55.027h9.39z" class="cls-1" style="stroke-width:1.0119"/><path id="path113" d="M801.57 1239.776c.112 10.18 7.377 18.396 18.033 18.396 7.943 0 13.154-4.807 16.726-11.374l7.964 4.584c-5.252 9.816-14.167 15.432-25.389 15.432-16.413 0-26.946-12.528-26.946-28.334 0-16.271 9.501-29.75 26.694-29.75 17.677 0 27.048 14.653 26.117 31.036zm33.393-7.964c-1.285-7.954-7.973-14.4-16.19-14.4a17.415 17.415 0 0 0-16.757 14.4z" class="cls-1" style="stroke-width:1.0119"/><path id="path115" d="M909.642 1265.306h-9.37v-7.61h-.243a23.092 23.092 0 0 1-18.963 9.108c-16.19 0-26.31-13.702-26.31-28.91 0-15.685 9.957-29.163 26.451-29.163a23.8 23.8 0 0 1 18.852 9.37h.243v-7.832h9.34zm-45.323-28.1c0 10.766 6.324 20.966 18.032 20.966 12.051 0 18.376-9.724 18.376-20.855s-6.911-19.904-18.488-19.904c-10.878 0-17.9 9.471-17.9 19.793z" class="cls-1" style="stroke-width:1.0119"/><path id="path117" d="M938.623 1265.306h-9.37v-46.365h-5.728v-8.662h5.727v-19.803h9.37v19.803h9.836v8.662h-9.835z" class="cls-1" style="stroke-width:1.0119"/><path id="path119" d="M971.752 1189.555a6.668 6.668 0 0 1-13.337 0 6.668 6.668 0 1 1 13.337 0zm-2.024 75.75h-9.37v-55.026h9.37z" class="cls-1" style="stroke-width:1.0119"/><path id="path121" d="m1009.365 1247.274 16.402-36.995h10.544l-26.946 58.69-27.049-58.69h10.656z" class="cls-1" style="stroke-width:1.0119"/><path id="path123" d="M1051.773 1239.776c.112 10.18 7.377 18.396 18.033 18.396 7.943 0 13.154-4.807 16.726-11.374l7.964 4.584c-5.252 9.816-14.167 15.432-25.409 15.432-16.393 0-26.927-12.528-26.927-28.334 0-16.271 9.502-29.75 26.694-29.75 17.678 0 27.048 14.653 26.117 31.036zm33.393-7.964c-1.295-7.954-7.974-14.4-16.19-14.4a17.354 17.354 0 0 0-16.717 14.4z" class="cls-1" style="stroke-width:1.0119"/><path id="path125" d="m1152.751 1207.01 21.898 21.898 21.786-21.898 6.537 6.436-21.888 21.898 21.888 21.887-6.537 6.436-21.786-21.898-21.898 21.908-6.456-6.436 21.898-21.887-21.898-21.898z" class="cls-1" style="stroke-width:1.0119"/><path id="path127" d="m1263.666 1240.251-10.645 25.055h-10.767l40.78-92.498 39.696 92.498h-10.877l-10.423-25.055zm19.094-44.523-15.097 35.345h29.86z" class="cls-1" style="stroke-width:1.0119"/><path id="path129" d="M1342.958 1216.239h.253c3.269-4.341 6.072-7.498 12.143-7.498a16.504 16.504 0 0 1 8.44 2.59l-4.443 8.54c-1.872-1.285-3.157-2.458-5.616-2.458-10.321 0-10.797 13.225-10.797 20.38v27.513h-9.31v-55.027h9.34z" class="cls-1" style="stroke-width:1.0119"/><path id="path131" d="M1387.26 1265.306h-9.37v-46.365h-5.728v-8.662h5.727v-19.803h9.37v19.803h9.846v8.662h-9.846z" class="cls-1" style="stroke-width:1.0119"/></svg>