<?xml version="1.0" encoding="UTF-8" standalone="no"?>
<svg
   id="レイヤー_1"
   data-name="レイヤー 1"
   viewBox="0 0 1499.9999 1499.9999"
   version="1.1"
   sodipodi:docname="shibalab-logo-black.svg"
   width="1500"
   height="1500"
   xmlns:inkscape="http://www.inkscape.org/namespaces/inkscape"
   xmlns:sodipodi="http://sodipodi.sourceforge.net/DTD/sodipodi-0.dtd"
   xmlns="http://www.w3.org/2000/svg"
   xmlns:svg="http://www.w3.org/2000/svg">
  <sodipodi:namedview
     id="namedview134"
     pagecolor="#ffffff"
     bordercolor="#000000"
     borderopacity="0.25"
     inkscape:showpageshadow="2"
     inkscape:pageopacity="0.0"
     inkscape:pagecheckerboard="0"
     inkscape:deskcolor="#d1d1d1"
     showgrid="false" />
  <defs
     id="defs71">
    <style
       id="style69">
       .cls-1{fill:#221714;}
       @media (prefers-color-scheme: dark) {
       .cls-1 { fill: #dde8eb }
       }
       </style>
  </defs>
  <path
     class="cls-1"
     d="m 1358.2077,787.77941 a 0.55654588,0.55654588 0 0 1 -0.1114,-0.17203 0.93094946,0.93094946 0 0 1 -0.1112,-0.7488 c 0.3339,-1.24463 0.3946,-1.44701 24.6398,3.85535 -15.4114,-4.04762 -16.3725,-4.56367 -16.7571,-5.1607 a 1.0119016,1.0119016 0 0 1 -0.1015,-0.75893 c 0.1517,-0.56666 0.253,-0.88036 2.5601,-0.44524 0.3643,-0.77915 2.1453,-0.59701 22.2618,1.53809 4.5334,0.4756 9.5929,1.01191 13.7619,1.4268 -3.3089,-0.87024 -7.144,-1.84167 -10.6149,-2.73215 -19.0541,-4.86724 -19.0743,-4.99879 -19.3678,-5.57557 a 1.0119016,1.0119016 0 0 1 -0.1112,-0.76905 c 0.3237,-1.17381 0.3237,-1.17381 22.6666,1.93274 l 1.4875,0.20238 -3.6328,-0.94106 c -19.8838,-5.17082 -20.0053,-5.29225 -20.3694,-5.8994 a 1.0119016,1.0119016 0 0 1 -0.1016,-0.75893 1.0119016,1.0119016 0 0 1 0.4555,-0.57678 c 0.3542,-0.2125 0.5161,-0.30358 5.4439,1.01189 0.3845,-0.64761 2.0239,-0.45534 15.4518,1.01192 2.2971,0.25296 4.8571,0.55654 7.2958,0.81962 l -2.1554,-0.54642 c -12.1429,-3.0357 -12.335,-3.26843 -12.6891,-3.73391 -6.0715,-1.63929 -6.1221,-1.85178 -6.3245,-2.16546 a 1.0119016,1.0119016 0 0 1 -0.081,-0.75894 c 0.2427,-0.93095 0.2427,-0.93095 13.4987,0.46549 1.8418,0.19225 3.8756,0.42499 5.8691,0.61725 -9.2792,-2.31726 -9.35,-2.46904 -9.6232,-2.96487 a 1.0119016,1.0119016 0 0 1 -0.1215,-0.72857 c -1.5583,-0.48571 -1.6494,-0.60715 -1.7809,-0.88037 a 1.0119016,1.0119016 0 0 1 -0.1016,-0.7488 c 0.1821,-0.66786 0.1821,-0.66786 9.107,-2.67142 l 5.5858,-1.26487 -3.4405,-0.91071 c -7.225,-1.90238 -7.2148,-1.88214 -7.4779,-2.34762 a 1.0119016,1.0119016 0 0 1 -0.081,-0.76904 c 0.2224,-0.71845 0.2224,-0.71845 6.6278,-0.92082 l 2.1756,-0.0809 c -3.0357,-0.7994 -3.0357,-0.83989 -3.2078,-1.19406 a 1.0624966,1.0624966 0 0 1 -0.081,-0.68808 c 0.2224,-0.89046 0.2224,-0.89046 4.4219,-0.34406 h 0.2733 a 1.7809468,1.7809468 0 0 1 0.5262,-0.19226 1.0119016,1.0119016 0 0 1 0.8095,-0.43512 0.89047339,0.89047339 0 0 1 0.3338,0.0607 l 0.415,0.10118 c 0.4857,0.13154 0.8905,0.24286 1.0118,0.78929 a 1.0119016,1.0119016 0 0 1 0,0.172 0.74880717,0.74880717 0 0 1 0.2833,0.37441 0.95118748,0.95118748 0 0 1 0,0.64763 c 2.297,0.63749 2.2464,0.80951 2.024,1.56845 -0.2228,0.75892 -0.2127,0.82974 -8.7024,1.10297 l 1.0118,0.2732 c 7.2249,1.89225 7.2148,1.87202 7.4678,2.3375 a 0.92083044,0.92083044 0 0 1 0.1016,0.72857 c -0.1821,0.67797 -0.1821,0.67797 -9.7749,2.84345 l -5.0594,1.15356 c 3.0356,0.83987 7.8421,2.08452 11.7076,3.0357 12.3959,3.21784 12.3856,3.20772 12.1429,4.30058 -0.2328,0.82976 -0.2935,1.07261 -5.3733,-0.13153 -0.3339,0.81963 -1.619,0.68808 -17.344,-1.01192 l -2.3476,-0.25297 c 2.722,0.72857 5.697,1.50774 8.4393,2.22618 15.1784,4.0476 15.2797,3.96666 15.5832,4.55355 a 0.88035438,0.88035438 0 0 1 0.091,0.72858 c -0.2429,0.90059 -0.6781,1.0119 -3.3192,0.29344 -1.1839,0.26311 -4.9177,-0.1619 -17.9915,-1.63927 l -4.2601,-0.4756 7.65,1.9631 c 18.882,4.81666 18.8619,4.93807 19.2261,5.56546 a 1.0119016,1.0119016 0 0 1 0.1016,0.7488 c -0.2124,0.77917 -0.2934,1.07262 -5.9904,-0.33392 -0.4553,0.55654 -2.4285,0.2732 -15.5528,-1.5381 -3.3292,-0.46547 -7.1441,-1.0119 -10.6251,-1.45714 l 8.1965,2.10475 c 19.5296,4.97857 19.5702,5.15059 19.8738,5.72737 a 1.0119016,1.0119016 0 0 1 0.1016,0.76906 c -0.3036,1.0726 -0.3036,1.0726 -23.81,-1.40655 -4.341,-0.46548 -8.9453,-0.9512 -12.7399,-1.3256 5.0596,1.35595 11.637,3.03571 17.4756,4.55356 21.5434,5.52499 21.6649,5.6363 21.9987,6.27379 a 1.0119016,1.0119016 0 0 1 0.1016,0.75893 v 0.091 0.0607 a 0.95118748,0.95118748 0 0 1 0.081,0.75893 c -0.3238,1.26488 -0.3238,1.26488 -26.9976,-4.59403 l -9.451,-2.0744 8.4392,2.19583 c 24.8119,6.42557 24.8119,6.48628 25.1862,7.14402 a 1.0119016,1.0119016 0 0 1 0.1016,0.75892 1.0119016,1.0119016 0 0 1 -1.5483,0.48572 c -1.4773,-0.62738 -13.5392,-3.75416 -24.2046,-6.52677 -26.6231,-6.83033 -29.8107,-7.81188 -30.529,-8.47974 z"
     id="path73"
     style="stroke-width:1.0119" />
  <path
     class="cls-1"
     d="m 1014.3533,1073.3483 c -0.2327,-0.2328 -0.1822,-0.4554 -0.1113,-0.7287 0.3035,-1.1333 0.3035,-1.1333 21.1892,2.7929 l 7.3362,1.3762 -5.9095,-1.5281 c -24.8726,-6.4458 -25.1356,-6.6177 -25.51,-7.3057 a 1.0119016,1.0119016 0 0 1 -0.1016,-0.7591 c 0.334,-1.194 0.3643,-1.3053 20.3393,3.1876 -23.4964,-6.0715 -24.7005,-6.6583 -25.1964,-7.3162 a 1.1029727,1.1029727 0 0 1 -0.1015,-0.7588 c 0.1923,-0.6881 0.3035,-1.012 4.3511,-0.1112 -2.9344,-0.9007 -3.7137,-1.2345 -3.8857,-1.6695 a 1.0119016,1.0119016 0 0 1 -0.1113,-0.7691 c 0.1417,-0.4858 0.2227,-0.7893 1.8416,-0.587 -7.9232,-2.1756 -8.0142,-2.3779 -8.2773,-2.7423 a 0.93094946,0.93094946 0 0 1 -0.091,-0.7488 c 0.3441,-1.2648 0.3441,-1.2648 38.5129,5.3328 7.7613,1.3458 15.9881,2.7624 22.7374,3.8957 l -13.0939,-3.7236 -11.5053,-2.9245 c -32.6946,-8.3078 -37.9463,-9.8357 -38.88738,-10.7868 a 0.48571277,0.48571277 0 0 1 -0.12149,-0.1721 1.2041629,1.2041629 0 0 1 -0.0813,-0.1619 c -1.35595,-0.4654 -1.45713,-0.6173 -1.58868,-0.85 a 1.0119016,1.0119016 0 0 1 -0.0914,-0.7387 c 0.39466,-1.4267 0.47562,-1.7202 51.97125,8.2976 6.0714,1.194 12.3148,2.3982 17.6476,3.41 -6.3143,-1.6391 -13.7922,-3.5213 -20.5214,-5.2213 -31.7029,-7.9636 -36.1249,-9.1578 -36.7017,-10.3114 a 1.1535678,1.1535678 0 0 1 -0.1016,-0.7992 c 0.3745,-1.3865 0.4251,-1.5282 38.9178,6.638 8.844,1.872 18.8417,4.0476 26.5726,5.5452 -9.1072,-2.4893 -21.7155,-5.7375 -32.0672,-8.4292 -32.7452,-8.4696 -32.907,-8.5809 -33.3017,-9.3195 a 1.0119016,1.0119016 0 0 1 -0.1016,-0.7591 c 0.3745,-1.376 0.4048,-1.4571 42.2873,8.5709 l -2.7321,-0.7083 c -35.0218,-9.016 -36.7623,-9.6637 -37.3189,-10.463 a 1.0119016,1.0119016 0 0 1 -0.1016,-0.769 c 0.1417,-0.506 0.2328,-0.8399 2.206,-0.5365 a 0.54642684,0.54642684 0 0 1 0,-0.2225 c 0.2328,-0.8601 0.344,-1.2649 8.5708,0.6376 -2.5399,-0.7895 -3.2381,-1.1841 -3.4607,-1.518 a 1.0624966,1.0624966 0 0 1 -0.1016,-0.7691 c 0.1417,-0.516 0.2328,-0.8196 2.3679,-0.4654 -1.6697,-0.5667 -2.2768,-1.012 -2.4286,-1.2143 a 1.0827347,1.0827347 0 0 1 -0.1016,-0.7893 c 0.3745,-1.3964 0.3846,-1.4369 41.6499,8.2066 l 11.5357,2.6917 c -38.3915,-9.9268 -44.5237,-11.8798 -45.0499,-12.8007 a 1.0119016,1.0119016 0 0 1 -0.1113,-0.7791 c 0.3744,-1.3459 0.3846,-1.4065 43.876,7.1844 7.569,1.4876 15.5529,3.0358 22.3529,4.3816 -5.3429,-1.3964 -11.3636,-2.9446 -17.1012,-4.4219 -37.4402,-9.6435 -42.4997,-11.1309 -42.9652,-12.1429 a 1.0119016,1.0119016 0 0 1 -0.1016,-0.7892 c 0.3745,-1.3661 0.4149,-1.4977 39.1404,6.3243 9.2892,1.862 19.7725,3.9869 27.9488,5.5351 -5.8691,-1.5482 -12.9524,-3.3899 -19.9345,-5.2112 -39.6767,-10.2809 -45.2625,-11.8191 -45.8392,-12.9119 a 1.0119016,1.0119016 0 0 1 -0.1015,-0.7691 c 0.3642,-1.2951 0.3642,-1.2951 35.6189,7.0126 l 5.2922,1.2445 c -28.9302,-7.488 -34.6475,-9.2082 -35.6088,-10.1797 l -0.1214,-0.1416 a 1.1232108,1.1232108 0 0 1 -0.1016,-0.7892 c 0.2327,-0.8703 0.3441,-1.2448 9.6738,0.9308 -8.0952,-2.2363 -9.8357,-3.0358 -10.1899,-3.5416 a 1.0119016,1.0119016 0 0 1 -0.091,-0.7894 c 0.3744,-1.3964 0.4251,-1.5785 45.2218,7.7714 6.6178,1.3763 13.5697,2.8334 19.7424,4.0476 -4.8775,-1.2851 -10.2608,-2.6815 -15.5935,-4.0476 -39.6665,-10.3518 -44.2707,-11.7583 -44.8172,-12.63867 a 1.0119016,1.0119016 0 0 1 -0.1015,-0.7588 c 0.4048,-1.4674 0.4756,-1.7405 46.4259,7.63977 12.143,2.4691 26.1275,5.3227 35.3357,7.0125 -8.8339,-2.4286 -22.2617,-5.8589 -33.8684,-8.8439 -35.1331,-9.00607 -38.8974,-10.11917 -39.4641,-11.03997 a 1.0726157,1.0726157 0 0 1 -0.1015,-0.7893 c 0.3946,-1.3964 0.4654,-1.6899 49.5831,7.91307 7.4172,1.4469 15.2595,3.0357 21.8875,4.2399 -5.4845,-1.4368 -11.8393,-3.0864 -18.1131,-4.7054 -38.4522,-9.98747 -43.9165,-11.55577 -44.5236,-12.55767 a 1.0119016,1.0119016 0 0 1 -0.1016,-0.7691 c 0.2023,-0.7588 0.3036,-1.113 6.1624,0.2328 a 0.67797407,0.67797407 0 0 1 -0.2833,-0.2834 1.1434488,1.1434488 0 0 1 -0.1113,-0.7892 c 0.081,-0.2834 0.1417,-0.506 0.5465,-0.5869 0,-0.081 -0.1215,-0.1417 -0.1721,-0.2227 a 1.0119016,1.0119016 0 0 1 -0.1016,-0.7589 c 0.3845,-1.3863 0.425,-1.5684 47.3772,7.8827 6.7899,1.3661 13.9744,2.8132 20.1268,4.0477 -8.1965,-2.206 -18.4167,-4.8674 -27.5238,-7.2352 -34.7385,-9.0566 -38.5534,-10.17969 -39.2618,-10.89819 a 0.48571277,0.48571277 0 0 1 -0.1214,-0.17199 1.0119016,1.0119016 0 0 1 -0.091,-0.75883 c 0.3644,-1.35606 0.3945,-1.46739 43.9266,6.56721 11.9,2.2059 24.7613,4.5839 33.504,6.0713 -8.0952,-2.1857 -19.5701,-5.1607 -29.6285,-7.7512 -32.2188,-8.30763 -33.5748,-8.76301 -34.0908,-9.56234 a 1.0119016,1.0119016 0 0 1 -0.091,-0.75902 c 0.3744,-1.32549 0.3844,-1.37619 43.3904,6.73931 8.662,1.63925 17.8802,3.37985 25.2976,4.73575 -6.6381,-1.7708 -14.6929,-3.8756 -22.2619,-5.85887 -35.5076,-9.27925 -39.4643,-10.47332 -40.1523,-11.20185 a 0.36428458,0.36428458 0 0 1 -0.1112,-0.1417 0.95118748,0.95118748 0 0 1 -0.091,-0.7589 c 0.3341,-1.2345 0.3441,-1.27503 32.0167,6.49643 l -1.4572,-0.38459 c -34.8599,-9.03622 -35.032,-9.16777 -35.4165,-9.91661 a 1.0119016,1.0119016 0 0 1 -0.1016,-0.76895 c 0.3643,-1.34584 0.3845,-1.43695 45.7683,7.41713 10.959,2.13511 22.7071,4.42208 31.4602,6.07142 -7.9233,-2.13509 -18.3256,-4.84697 -28.0703,-7.3767 -37.9867,-9.88625 -40.1016,-10.48336 -40.4761,-11.38396 a 0.95118748,0.95118748 0 0 1 -0.1016,-0.75889 c 0.3543,-1.3053 0.3543,-1.3053 42.6619,8.09519 7.1945,1.60892 15.0267,3.34939 22.1808,4.92793 l -16.1904,-4.2702 c -38.6344,-10.11897 -40.3446,-10.81723 -40.8806,-11.50534 a 1.0119016,1.0119016 0 0 1 -0.1016,-0.75891 c 0.2428,-0.87023 0.344,-1.2547 9.9874,1.01195 -6.0714,-1.66966 -6.5471,-1.93275 -6.7394,-2.36781 a 1.0119016,1.0119016 0 0 1 -0.1015,-0.74887 c 0.3744,-1.36602 0.3946,-1.45716 38.3106,6.68863 7.6601,1.6393 16.1903,3.46072 23.466,4.97864 l -12.6891,-3.25839 c -34.5464,-8.86425 -40.9518,-10.7261 -41.9739,-11.75826 a 0.71845012,0.71845012 0 0 1 -0.1016,-0.14171 0.58690292,0.58690292 0 0 1 -0.1015,-0.27313 c -5.2215,-1.46734 -6.2941,-2.02388 -6.5167,-2.3982 a 1.0119016,1.0119016 0 0 1 -0.1016,-0.76907 c 0.3845,-1.42678 0.4252,-1.56848 46.1832,8.6416 9.6029,2.14527 19.8028,4.42208 28.0297,6.20297 -9.1071,-2.44878 -20.5113,-5.4137 -30.104,-7.91308 -32.9679,-8.55056 -33.0285,-8.71248 -33.3928,-9.31963 a 1.0119016,1.0119016 0 0 1 -0.1016,-0.76906 c 0.3542,-1.27492 0.4149,-1.48743 29.9724,5.76791 -24.6701,-6.37506 -25.9249,-6.91129 -26.4005,-7.58934 a 1.0119016,1.0119016 0 0 1 -0.1213,-0.66777 c -1.194,-0.44522 -1.6596,-0.7387 -1.7708,-1.01195 a 1.0119016,1.0119016 0 0 1 -0.1016,-0.76907 c 0.3137,-1.1839 0.4149,-1.53801 25.8845,4.51309 -25.1154,-6.62798 -26.4006,-7.13384 -26.6737,-7.79157 a 1.0119016,1.0119016 0 0 1 -0.1016,-0.74884 c 0.2427,-0.87024 0.344,-1.23452 9.5523,1.01195 a 0.94106847,0.94106847 0 0 1 -0.3846,-0.35422 1.0119016,1.0119016 0 0 1 -0.1016,-0.74886 c 0.3643,-1.27495 0.3643,-1.27495 35.9226,6.19293 9.6129,2.02376 20.3595,4.28025 29.163,6.07142 l -14.3893,-3.75418 c -41.5993,-10.81726 -45.3534,-12.00118 -45.9605,-12.98272 a 1.0119016,1.0119016 0 0 1 -0.1016,-0.76905 0.79940226,0.79940226 0 0 1 0.2833,-0.50596 l -0.081,-0.10118 a 1.0119016,1.0119016 0 0 1 -0.091,-0.7994 c 0.3947,-1.42678 0.4758,-1.72023 51.1011,9.10708 l 10.4833,2.2566 c -4.6042,-1.19407 -9.4714,-2.43872 -14.1666,-3.63281 -35.8112,-9.17789 -42.4088,-11.07014 -43.441,-12.14277 a 0.45535573,0.45535573 0 0 1 -0.1113,-0.14165 1.0119016,1.0119016 0 0 1 -0.1015,-0.78929 c 0.182,-0.65773 0.2731,-1.0119 4.4422,-0.22261 -2.2464,-0.74882 -2.9244,-1.12323 -3.1774,-1.48751 a 1.0726157,1.0726157 0 0 1 -0.1016,-0.78929 c 0.3744,-1.37618 0.3846,-1.39641 42.9958,8.36843 l 12.4059,2.83332 c -5.2113,-1.37617 -10.6249,-2.77261 -15.6946,-4.04758 -36.4285,-9.51189 -37.8552,-9.87617 -38.2802,-10.75652 a 1.0119016,1.0119016 0 0 1 -0.1016,-0.7488 c 0.3947,-1.39644 0.4148,-1.51787 41.6499,7.01246 11.728,2.41845 25.1863,5.20118 34.4552,6.96189 -8.2975,-2.23631 -20.0051,-5.22142 -30.2457,-7.83211 -33.585,-8.55058 -39.5552,-10.2708 -40.476,-11.25235 a 0.47559374,0.47559374 0 0 1 -0.1213,-0.13155 1.0119016,1.0119016 0 0 1 -0.1016,-0.77917 c 0.4047,-1.47738 0.4856,-1.79107 50.0183,8.15592 9.1072,1.82144 18.7606,3.76429 26.3095,5.22142 -8.8036,-2.39821 -20.6328,-5.48451 -31.0553,-8.1964 -36.5094,-9.53212 -36.6714,-9.71426 -36.9952,-10.38212 a 1.0119016,1.0119016 0 0 1 -0.1016,-0.75892 c 0.3643,-1.30535 0.3643,-1.30535 40.5774,7.47796 l 21.8165,4.7357 -12.0011,-3.36964 c -2.7625,-0.72857 -5.525,-1.4369 -8.1762,-2.125 -30.7416,-7.99403 -33.7773,-8.90472 -34.4047,-9.51187 l -0.07,-0.0708 c -4.8268,-1.41667 -5.4744,-1.77083 -5.7375,-2.18571 a 1.0119016,1.0119016 0 0 1 -0.1016,-0.75893 c 0.2124,-0.73868 0.3035,-1.0119 6.7899,0.4756 a 1.0119016,1.0119016 0 0 1 -0.2529,-0.27321 1.0119016,1.0119016 0 0 1 -0.1016,-0.76906 c 0.2328,-0.84999 0.3541,-1.26487 9.7952,0.9006 -6.0714,-1.71012 -7.2654,-2.33749 -7.5184,-2.72202 a 1.0119016,1.0119016 0 0 1 -0.1114,-0.76905 c 0.3744,-1.32558 0.3744,-1.32558 36.9851,7.13391 8.0952,1.87202 17.0302,3.92619 24.913,5.70713 -5.8993,-1.55832 -12.3554,-3.23808 -18.538,-4.84701 -39.5755,-10.32139 -41.4881,-10.96901 -41.8523,-11.76841 a 1.0119016,1.0119016 0 0 1 -0.1016,-0.7488 c 0.2227,-0.81965 0.344,-1.23453 7.9332,0.52617 a 1.9023749,1.9023749 0 0 1 -0.182,-0.21249 1.0119016,1.0119016 0 0 1 -0.091,-0.75893 c 0.3542,-1.26488 0.3542,-1.26488 35.6493,6.90117 8.0952,1.87201 17.4453,4.04761 25.7833,5.92975 l -10.2304,-2.83333 -10.4225,-2.69167 c -31.9761,-8.27734 -35.5481,-9.32972 -36.2363,-10.02794 a 0.5160698,0.5160698 0 0 1 -0.1214,-0.16189 1.0119016,1.0119016 0 0 1 -0.1015,-0.76906 1.0119016,1.0119016 0 0 1 0.4654,-0.58689 0.75892619,0.75892619 0 0 1 0.2429,-0.10118 0.68809308,0.68809308 0 0 1 0.587,-0.4756 c -1.0728,-0.41486 -1.5079,-0.70832 -1.6394,-0.93095 a 1.0827347,1.0827347 0 0 1 -0.1016,-0.78928 c 0.3541,-1.22439 0.3541,-1.22439 34.3238,5.40355 13.2862,2.59046 29.6588,5.78807 40.5568,7.72082 -6.6684,-1.8012 -15.2898,-4.04762 -23.3546,-6.13212 -40.1624,-10.46307 -42.2772,-11.32319 -42.7731,-12.07199 a 1.0624966,1.0624966 0 0 1 -0.1015,-0.76906 c 0.3744,-1.38629 0.4048,-1.4976 41.4878,7.62975 l 15.1786,3.36963 -1.6595,-0.46547 -15.8667,-4.13869 c -35.3557,-9.10711 -39.3932,-10.39223 -39.8284,-11.19164 a 1.0119016,1.0119016 0 0 1 -0.1112,-0.76902 1.0624966,1.0624966 0 0 1 0.4756,-0.60715 c 0.3441,-0.19226 0.931,-0.22261 4.8773,0.74881 1.0121,-0.69821 6.3346,0.34404 42.7732,7.74104 7.2451,1.47737 14.8649,3.03571 21.4927,4.34107 l -18.5988,-4.90773 c -38.4522,-10.11902 -42.6211,-11.34341 -43.3499,-12.08211 a 0.53630784,0.53630784 0 0 1 -0.1016,-0.14167 1.0119016,1.0119016 0 0 1 -0.1113,-0.75891 c 0.3644,-1.31547 0.3644,-1.31547 33.838,6.8708 6.5571,1.59881 13.9643,3.41011 20.9362,5.05951 l -13.2458,-3.41011 c -33.0893,-8.49998 -36.054,-9.53212 -36.5295,-10.25055 a 1.0119016,1.0119016 0 0 1 -0.1016,-0.75893 c 0.3845,-1.40654 0.4047,-1.48751 42.4391,8.51009 l 10.9994,2.6107 -0.3338,-0.091 -1.5382,-0.40477 c -21.2499,-5.50473 -33.6154,-8.76306 -40.7189,-10.77674 -11.7987,-3.14702 -12.5172,-3.50118 -12.7298,-4.04762 a 1.0119016,1.0119016 0 0 1 -0.1015,-0.7488 1.0119016,1.0119016 0 0 1 0.4958,-0.62737 c 0.4048,-0.23274 1.6089,-0.14167 5.1303,0.68809 3.7642,0.39464 14.4196,2.72201 45.4243,9.6839 l 14.7334,3.27856 -9.5524,-2.48928 c -40.5774,-10.59462 -44.8475,-11.96068 -45.3535,-12.7702 a 1.0119016,1.0119016 0 0 1 -0.1015,-0.76906 c 0.1821,-0.65772 0.2934,-1.0726 4.3915,-0.26308 a 0.94106847,0.94106847 0 0 1 0,-0.4756 c 0.3644,-1.34582 0.3745,-1.37619 39.6565,6.66844 13.8024,2.8232 29.7195,6.07139 40.2636,8.04461 -7.822,-2.09463 -18.5583,-4.83688 -28.5457,-7.41722 -39.4643,-10.11904 -46.669,-12.14284 -47.772,-13.30651 a 0.67797407,0.67797407 0 0 1 -0.1112,-0.14168 1.0119016,1.0119016 0 0 1 -0.1016,-0.77915 c 0.3947,-1.4268 0.4453,-1.60894 55.0171,9.60294 13.8127,2.83333 28.6976,5.88926 39.3429,7.96365 -8.7733,-2.35771 -20.3495,-5.39344 -31.1768,-8.22675 -47.6201,-12.46663 -53.7825,-14.30828 -54.6428,-15.23924 a 0.57678391,0.57678391 0 0 1 -0.1113,-0.12143 1.0827347,1.0827347 0 0 1 -0.1016,-0.77915 c 0,0 0,-0.12144 0.07,-0.18215 -1.3863,-0.50596 -1.9328,-0.80952 -2.1048,-1.10298 a 1.0119016,1.0119016 0 0 1 -0.1016,-0.76904 c 0.1923,-0.68809 0.2833,-1.01191 5.2315,0.0809 a 0.33392753,0.33392753 0 0 1 -0.081,-0.11133 1.0119016,1.0119016 0 0 1 -0.1015,-0.75894 c 0.4452,-1.60892 0.5463,-2.02379 61.3211,13.62021 11.06,2.83332 22.7576,5.83866 32.7248,8.32795 -12.2743,-3.2988 -27.3212,-7.22498 -40.7999,-10.74641 -48.3891,-12.63863 -55.1485,-14.56126 -56.0694,-15.50232 a 0.47559374,0.47559374 0 0 1 -0.091,-0.12143 0.93094946,0.93094946 0 0 1 -0.1016,-0.74881 c 0.4655,-1.71011 0.6476,-2.34761 78.6451,16.58506 14.0046,3.4 28.2522,6.86071 38.9683,9.37022 -14.4804,-3.9869 -35.7405,-9.51188 -54.2683,-14.32852 -50.1702,-13.04341 -55.4017,-14.51067 -55.938,-15.51246 a 1.0119016,1.0119016 0 0 1 -0.091,-0.75894 0.76904521,0.76904521 0 0 1 0.1923,-0.35414 1.6291616,1.6291616 0 0 1 -0.5869,-0.48572 1.1232108,1.1232108 0 0 1 -0.1113,-0.80952 c 0.4856,-1.75059 0.6475,-2.3476 77.0058,17.63744 15.1077,3.9464 31.2778,8.18628 43.431,11.22199 -14.8548,-4.0476 -36.0542,-9.53211 -54.6429,-14.32852 -49.8666,-12.88153 -54.9058,-14.36901 -55.4118,-15.3202 a 1.0119016,1.0119016 0 0 1 -0.081,-0.76905 c 0.415,-1.57856 0.5162,-1.94284 71.1064,14.07556 19.8433,4.50296 41.4879,9.41068 54.1165,12.03151 -13.1549,-3.7238 -36.5602,-9.72436 -57.9921,-15.23924 -50.9897,-13.15473 -62.6772,-16.30173 -64.0332,-17.67791 a 0.95118748,0.95118748 0 0 1 -0.091,-0.12144 1.1029727,1.1029727 0 0 1 -0.1016,-0.77917 c 0.425,-1.57856 0.4958,-1.82142 67.3825,15.88686 21.8874,5.78807 47.4076,12.53746 62.4547,16.19042 -16.8382,-4.82676 -47.4684,-12.7196 -71.7743,-18.99339 -49.6541,-12.80055 -54.5314,-14.16663 -55.1284,-15.17851 a 1.0119016,1.0119016 0 0 1 -0.1015,-0.75893 c 0.4148,-1.51786 0.4554,-1.71012 67.4635,15.17851 20.7135,5.23154 44.5236,11.26247 60.4306,15.02674 -14.9862,-4.10831 -37.3594,-9.94698 -58.0527,-15.35055 -59.7022,-15.60351 -67.7165,-17.89042 -68.3641,-18.98326 a 1.0119016,1.0119016 0 0 1 -0.091,-0.76905 c 0.4554,-1.63929 0.5768,-2.08452 77.4003,16.47376 18.781,4.55356 39.1201,9.47139 52.538,12.5071 -13.3572,-3.65296 -33.8279,-8.91485 -52.7404,-13.77198 -56.201,-14.4196 -70.5193,-18.37613 -72.0777,-19.94458 a 0.64761701,0.64761701 0 0 1 -0.1016,-0.13155 1.0119016,1.0119016 0 0 1 -0.1016,-0.7994 c 0.2327,-0.90059 0.3845,-1.42679 12.0719,1.38631 -10.9083,-3.03572 -15.8262,-4.71547 -16.6761,-5.57559 l -0.091,-0.12142 a 1.1839249,1.1839249 0 0 1 -0.1113,-0.80952 c 0.4452,-1.61904 0.5665,-2.0238 81.6909,17.2934 21.3814,5.05951 44.645,10.64521 58.832,13.79222 -13.681,-3.79464 -36.0947,-9.50176 -56.6666,-14.78388 -54.8551,-14.00473 -73.0391,-18.87197 -74.8807,-20.6934 a 0.36428458,0.36428458 0 0 1 -0.1113,-0.14166 1.1232108,1.1232108 0 0 1 -0.1113,-0.80952 c 0.5363,-1.95297 4.9584,-1.55833 94.1068,19.73207 15.5124,3.71368 31.369,7.47796 42.8642,10.11902 -15.5933,-4.28033 -39.5754,-10.50353 -61.726,-16.24102 -65.5207,-16.9797 -79.6872,-20.98684 -80.3955,-22.32255 a 1.1434488,1.1434488 0 0 1 -0.1016,-0.7994 c 0.4554,-1.65951 0.587,-2.16546 81.5794,16.96959 26.5828,6.28391 55.7355,13.15472 70.7017,16.25114 -14.5107,-4.14879 -42.9249,-11.51544 -68.8093,-18.21422 -62.4545,-16.19043 -77.3599,-20.30888 -78.8069,-21.78625 a 0.39464162,0.39464162 0 0 1 -0.091,-0.11133 1.0119016,1.0119016 0 0 1 -0.1015,-0.78929 c 0.5566,-2.0238 5.2921,-1.49763 100.9776,23.05112 17.9006,4.58391 36.1451,9.27913 48.8141,12.39579 -18.7706,-5.29224 -50.6962,-13.52913 -78.1086,-20.60231 -62.2219,-16.04877 -76.2771,-19.90412 -77.704,-21.35113 l -0.1015,-0.11134 a 1.0119016,1.0119016 0 0 1 -0.091,-0.78928 c 0.4251,-1.57856 0.506,-1.85178 81.3368,19.28685 22.191,5.80831 45.9909,12.04162 63.7498,16.494 -7.0024,-1.9125 -16.0792,-4.41189 -27.7666,-7.68034 -9.3601,-2.40832 -19.1148,-4.8976 -28.5559,-7.30593 -61.0885,-15.56304 -81.3061,-20.95647 -83.2694,-22.93982 l -0.1015,-0.14166 a 1.1130918,1.1130918 0 0 1 -0.1114,-0.81964 1.0119016,1.0119016 0 0 1 0.3137,-0.50595 1.1434488,1.1434488 0 0 1 0,-0.60713 c 0.1114,-0.42501 0.2126,-0.76905 1.4471,-0.72857 -4.1691,-1.27501 -5.7071,-1.95298 -5.8792,-2.32738 a 1.0119016,1.0119016 0 0 1 -0.1016,-0.77917 c 0.3946,-1.45713 0.4554,-1.64939 56.9094,11.72794 2.5904,0.60715 5.2011,1.23453 7.7815,1.83155 l -9.9167,-2.56012 c -42.3176,-10.93865 -48.2778,-12.77018 -48.8849,-13.70113 a 1.0119016,1.0119016 0 0 1 -0.1315,-0.54644 c -5.8691,-1.6595 -6.5673,-2.0238 -6.6988,-2.39821 a 1.0119016,1.0119016 0 0 1 -0.1016,-0.7488 c 0.3642,-1.34582 0.3946,-1.43691 44.4324,6.46605 9.7751,1.75059 20.2381,3.6226 28.2322,4.9988 -5.7375,-1.50774 -12.6893,-3.30893 -19.55,-5.05951 -38.4521,-9.91663 -45.404,-11.94044 -46.4362,-12.99281 a 0.30357047,0.30357047 0 0 1 -0.1112,-0.14167 1.0119016,1.0119016 0 0 1 -0.1016,-0.75893 c 0.3645,-1.36607 0.3645,-1.36607 34.8499,6.59759 8.4292,1.95298 17.7995,4.11843 25.7631,5.89939 -7.5793,-2.0238 -16.4333,-4.33094 -24.4273,-6.42557 -35.7809,-9.31961 -35.9124,-9.43093 -36.2968,-10.18984 a 1.0119016,1.0119016 0 0 1 -0.1016,-0.73871 c 0.3843,-1.3863 0.4046,-1.43688 35.7806,6.69881 l 7.6602,1.76069 -5.95,-1.51785 c -31.369,-8.00413 -36.9951,-9.6333 -37.9362,-10.58449 a 0.68809308,0.68809308 0 0 1 -0.1215,-0.13153 1.0726157,1.0726157 0 0 1 -0.1016,-0.78929 c 0.1821,-0.6881 0.2934,-1.08274 5.4845,0 a 0.84999733,0.84999733 0 0 1 -0.5263,-0.43512 1.0119016,1.0119016 0 0 1 -0.1016,-0.75894 c 0.334,-1.22439 0.334,-1.22439 31.116,3.96667 9.8559,1.66963 21.1185,3.572 29.0821,4.79641 -6.203,-1.66963 -14.4298,-3.80476 -22.0999,-5.78808 -30.8226,-7.99403 -32.2392,-8.44938 -32.5529,-9.2083 a 0.95118748,0.95118748 0 0 1 -0.091,-0.75893 c 0.1112,-0.43512 0.2023,-0.75893 1.3862,-0.69821 -0.941,-0.37442 -1.3155,-0.56667 -1.4368,-0.86013 a 1.0119016,1.0119016 0 0 1 -0.1016,-0.77915 c 0.3644,-1.3256 0.3845,-1.40654 36.4285,5.88927 7.5286,1.51785 15.9578,3.22796 22.8184,4.56368 -7.7917,-2.09464 -17.8094,-4.69524 -26.7041,-6.99225 -31.288,-8.09521 -31.4397,-8.23688 -31.8446,-8.9452 a 1.0119016,1.0119016 0 0 1 -0.091,-0.74881 c 0.2934,-1.16369 0.2934,-1.16369 30.7719,4.0476 10.1191,1.72023 22.3528,3.82499 30.9944,5.18093 -7.0831,-1.92261 -16.7569,-4.44225 -25.2974,-6.65831 -31.2072,-8.1458 -31.3691,-8.30772 -31.6725,-8.9452 a 1.0119016,1.0119016 0 0 1 -0.091,-0.75893 c 0.3642,-1.34582 0.3846,-1.42679 37.4404,6.4458 6.3344,1.35595 13.2659,2.83333 19.4791,4.11844 l -13.9845,-3.66307 c -34.3541,-8.9351 -35.9935,-9.46129 -36.2869,-10.25058 a 1.0119016,1.0119016 0 0 1 -0.1113,-0.7488 c 0.3642,-1.32558 0.3744,-1.34583 33.5243,5.52499 4.3815,0.89046 9.1072,1.87202 13.5696,2.79284 l -3.6025,-0.93095 c -28.0398,-7.16426 -32.138,-8.41902 -32.9474,-9.23866 a 0.61725997,0.61725997 0 0 1 -0.1214,-0.16191 1.0624966,1.0624966 0 0 1 -0.1113,-0.76902 c 0.3541,-1.27501 0.3642,-1.31548 29.5476,5.41366 -23.5267,-6.0714 -23.4256,-6.21307 -23.7292,-6.77973 a 1.0119016,1.0119016 0 0 1 -0.1016,-0.75894 c 0.3441,-1.24464 0.3441,-1.24464 35.7608,5.00891 6.6076,1.17381 13.6302,2.39821 19.479,3.41011 -6.6482,-1.79105 -14.8345,-3.9363 -22.1607,-5.84879 -29.5475,-7.74105 -29.7904,-7.91306 -30.185,-8.54046 a 1.0119016,1.0119016 0 0 1 -0.1016,-0.75891 c 0.3239,-1.10297 0.3643,-1.29524 20.9666,3.2988 -9.107,-2.41846 -10.5541,-2.96488 -10.8679,-3.6226 a 1.0119016,1.0119016 0 0 1 -0.1016,-0.76905 c 0.3643,-1.31547 0.3846,-1.35596 29.0821,4.22974 3.5417,0.69821 7.3565,1.44702 10.9994,2.14524 l -5.6663,-1.45677 c -25.4391,-6.52677 -26.7548,-7.08331 -27.2607,-7.7714 a 1.0119016,1.0119016 0 0 1 -0.1015,-0.76905 c 0.1719,-0.60714 0.2529,-0.90058 3.5112,-0.29344 -3.2785,-1.01191 -3.6226,-1.24465 -3.8857,-1.61905 a 1.0119016,1.0119016 0 0 1 -0.091,-0.75893 c 0.253,-0.96131 0.3339,-1.2244 10.5137,1.15357 -0.07,0 -0.091,-0.10118 -0.1417,-0.14167 -6.3648,-1.74047 -6.4459,-1.92261 -6.6381,-2.2869 a 1.0119016,1.0119016 0 0 1 -0.091,-0.75892 c 0.2833,-1.0119 0.2833,-1.0119 22.7678,1.01189 4.8166,0.45537 10.0078,0.93095 13.6809,1.23453 l 0.1216,-0.0708 0.4249,0.12143 v 0 l -0.4453,-0.12143 0.4351,-0.86011 c 0.2429,0.10117 1.6899,0.46548 2.631,0.70833 2.4184,0.61726 2.4284,0.57678 2.6614,1.0119 a 0.91071142,0.91071142 0 0 1 0.081,0.70834 c -0.2427,1.01189 -0.2427,1.01189 -19.7927,-0.82976 -4.25,-0.39465 -8.9858,-0.82977 -12.9423,-1.17381 1.9226,0.43511 5.3936,1.34583 11.8596,3.14701 1.0725,0.29345 2.1655,0.56667 3.2279,0.84999 24.2857,6.36488 24.2857,6.45594 24.5892,7.03272 v 0 c 0.6274,0.26311 0.7085,0.40477 0.8097,0.58691 a 1.0119016,1.0119016 0 0 1 0.1015,0.76905 c -0.1923,0.71844 -0.2733,1.0119 -4.8572,0.081 2.3781,0.71844 2.621,1.01189 2.803,1.24463 a 1.0119016,1.0119016 0 0 1 0.091,0.75892 c -0.1719,0.65774 -0.263,1.01191 -4.25,0.17203 3.6935,1.01191 3.8353,1.2244 4.0478,1.58869 a 1.0119016,1.0119016 0 0 1 0.1112,0.74881 c -0.3642,1.30535 -0.3846,1.3863 -29.6993,-4.33095 -4.3612,-0.86011 -9.1071,-1.78094 -13.438,-2.60059 4.8671,1.275 10.3011,2.65119 15.0266,3.85535 21.1489,5.40356 21.25,5.50475 21.6345,6.15236 a 1.0119016,1.0119016 0 0 1 0.1016,0.75893 c -0.3137,1.19404 -0.3137,1.19404 -28.4042,-5.05951 l -2.0237,-0.45535 c 34.7488,9.10711 34.9612,9.28926 35.3457,10.03807 a 1.0119016,1.0119016 0 0 1 0.091,0.7488 c -0.3339,1.21429 -0.3339,1.21429 -34.4653,-4.80654 -6.6178,-1.16368 -13.6405,-2.3982 -19.5804,-3.42023 l 10.7362,2.77261 c 30.2964,7.80177 31.7234,8.44939 32.1988,9.10712 a 1.0726157,1.0726157 0 0 1 0.1113,0.76905 c -0.3541,1.29524 -0.3743,1.33571 -29.9321,-5.4845 23.5065,6.0714 23.7393,6.21307 24.1035,6.84045 a 1.1232108,1.1232108 0 0 1 0.1016,0.76903 c -0.3743,1.3256 -0.3846,1.40654 -36.054,-5.98034 l -13.6405,-2.8232 c 5.5755,1.47737 11.738,3.08632 17.3946,4.56369 32.7655,8.52021 32.9578,8.65175 33.3219,9.40055 a 1.0119016,1.0119016 0 0 1 0.091,0.75893 c -0.3643,1.35596 -0.4047,1.50774 -39.7881,-6.87081 -5.0594,-1.07261 -10.2505,-2.18571 -15.1177,-3.19761 l 10.3619,2.70178 c 34.4957,9.00592 36.0844,9.57259 36.4285,10.31127 a 1.0119016,1.0119016 0 0 1 0.1016,0.75893 c -0.3643,1.33571 -0.3947,1.47738 -43.1071,-5.82855 -5.2517,-0.9006 -10.5743,-1.8113 -15.1785,-2.59047 5.2619,1.38632 11.3941,2.975 17.2024,4.47261 36.8838,9.53212 40.2433,10.57436 40.8504,11.54579 a 1.1535678,1.1535678 0 0 1 0.1016,0.77917 c -0.3743,1.34583 -0.4047,1.447 -37.9463,-6.15237 -7.0833,-1.40654 -14.4803,-2.91426 -20.6933,-4.13866 6.4661,1.7101 14.288,3.72378 21.2498,5.50473 27.6048,7.08331 28.7785,7.4982 29.2745,8.23689 a 1.0119016,1.0119016 0 0 1 0.1016,0.75892 c -0.1418,0.51608 -0.2227,0.81965 -2.0239,0.55654 1.7505,0.57679 2.0239,0.78929 2.1654,1.06251 a 0.93094946,0.93094946 0 0 1 0.1016,0.7488 c -0.3645,1.34582 -0.4048,1.52798 -40.81,-5.30236 -5.7375,-1.01191 -11.7888,-2.02381 -16.9393,-2.82321 6.3042,1.68988 14.1667,3.73392 21.5433,5.66665 35.9226,9.39043 37.5619,9.91663 37.8452,10.68568 a 1.0119016,1.0119016 0 0 1 0.1113,0.75894 c -0.1922,0.6982 -0.2833,1.01188 -5.9602,-0.29347 a 2.6815392,2.6815392 0 0 1 1.2549,0.75893 1.0119016,1.0119016 0 0 1 0.091,0.76904 c -0.3642,1.37619 -0.3946,1.48751 -37.5819,-7.08331 l -3.0357,-0.70834 4.5332,1.19406 c 38.8065,10.11901 43.269,11.38389 43.7749,12.33507 a 1.0119016,1.0119016 0 0 1 0.1016,0.75893 c -0.4048,1.45715 -0.4859,1.72023 -46.1326,-8.8339 l -8.6519,-2.0238 c 7.0834,1.85178 14.6726,3.82499 21.3714,5.56546 32.9576,8.51009 33.1195,8.69224 33.4636,9.34997 a 1.0119016,1.0119016 0 0 1 0.1016,0.75893 c -0.3642,1.34584 -0.3744,1.39641 -43.0564,-6.26367 -10.797,-1.93275 -22.3934,-4.04762 -30.8326,-5.44404 8.4797,2.2869 20.2987,5.38332 31.2778,8.25713 46.0517,12.21363 51.3135,13.74161 51.8903,14.75351 a 1.33571,1.33571 0 0 1 0.1316,0.44524 c 4.6345,1.33571 5.7071,1.80118 5.9703,2.27679 a 1.0119016,1.0119016 0 0 1 0.1016,0.75892 c -0.3644,1.37618 -0.3644,1.37618 -45.05,-9.19819 -12.5982,-3.0357 -26.8457,-6.36486 -37.7336,-8.84401 16.5344,4.56367 42.429,11.35353 66.3403,17.62732 68.6067,17.97137 82.6621,21.86719 83.4312,23.1523 a 1.0119016,1.0119016 0 0 1 0.1112,0.76905 c -0.1517,0.54643 -0.2631,0.92083 -3.2886,0.3744 a 6.0714095,6.0714095 0 0 1 1.963,1.07261 1.1738059,1.1738059 0 0 1 0.1016,0.28334 c 3.2887,1.08274 4.8572,1.80119 5.1607,2.32738 a 1.1535678,1.1535678 0 0 1 0.1114,0.81963 c -0.3238,1.19405 -0.4857,1.77084 -32.3809,-6.32439 22.7374,6.07142 31.7838,8.97558 32.3809,10.11903 a 1.1636869,1.1636869 0 0 1 0.1112,0.81964 c -0.4149,1.53809 -0.4654,1.68987 -67.0182,-15.38091 -30.9339,-7.94343 -70.6408,-18.12315 -89.0473,-22.14041 14.5005,4.13869 42.4998,11.41426 68.0706,18.05234 62.8897,16.31184 77.9163,20.45052 79.3533,21.93802 a 0.44523669,0.44523669 0 0 1 0.091,0.11133 1.0119016,1.0119016 0 0 1 0.1016,0.77917 c -0.4654,1.71011 -0.6071,2.21607 -82.3485,-17.10114 -26.3095,-6.23332 -55.2802,-13.06366 -70.0844,-16.1196 14.6017,4.18928 43.5118,11.68747 69.9226,18.52792 62.9301,16.30174 77.9669,20.45053 79.4543,21.95827 a 0.44523669,0.44523669 0 0 1 0.091,0.11134 1.0827347,1.0827347 0 0 1 0.1112,0.78927 c -0.415,1.4875 -0.4452,1.61907 -61.726,-13.01303 -30.4381,-7.27557 -70.0136,-16.72674 -85.6777,-19.65114 12.5678,3.77439 41.4172,11.13091 67.5646,17.82971 52.467,13.4077 68.8094,17.7791 70.4486,19.42851 a 1.1434488,1.1434488 0 0 1 0.1016,0.13154 1.1029727,1.1029727 0 0 1 0.1112,0.7994 c -0.4351,1.55833 -0.5059,1.83155 -73.717,-15.63387 -26.5219,-6.31427 -55.6547,-13.26604 -70.4183,-16.37257 15.047,4.38153 45.657,12.26424 71.5616,18.9428 54.3697,14.01483 66.7149,17.39458 68.0403,18.7303 l 0.091,0.10117 a 1.0119016,1.0119016 0 0 1 0.091,0.78929 c -0.2632,1.01189 -0.425,1.56844 -14.7334,-1.89226 7.2553,2.08452 9.6637,3.0357 10.028,3.63273 a 1.0827347,1.0827347 0 0 1 0.1112,0.78928 c -0.4249,1.56844 -0.5059,1.85178 -69.1837,-14.7434 -20.8349,-5.05951 -44.9285,-10.85772 -60.2789,-14.28805 13.3873,3.66308 33.595,8.93508 52.2748,13.82257 60.5825,15.81603 75.0123,19.80291 76.3783,21.18921 a 0.76904521,0.76904521 0 0 1 0.081,0.11134 1.0119016,1.0119016 0 0 1 0.091,0.77916 c -0.4048,1.52798 -0.5262,2.02381 -64.2558,-14.07555 40.5977,10.56425 56.6664,15.08746 58.2856,16.76721 a 0.53630784,0.53630784 0 0 1 0.1015,0.12142 1.1636869,1.1636869 0 0 1 0.1114,0.81965 c -0.253,0.94108 -0.4048,1.47737 -14.5614,-1.93273 3.1977,1.0119 4.422,1.63929 4.7459,2.07441 a 1.1535678,1.1535678 0 0 1 0.1016,0.7994 c -0.4149,1.5482 -0.496,1.83153 -66.5629,-13.15473 -19.7625,-4.48273 -41.1846,-9.36009 -54.9767,-12.24402 10.5441,2.82321 25.5405,6.70892 40.2636,10.51367 57.4254,14.82436 72.7963,19.09457 74.3748,20.69338 a 0.58690292,0.58690292 0 0 1 0.1113,0.13154 1.1535678,1.1535678 0 0 1 0.1016,0.79941 c -0.4351,1.57858 -0.5261,1.9125 -64.3771,-14.79399 -22.8589,-5.99047 -49.6844,-13.00294 -64.3772,-16.40294 8.3381,2.11489 22.4137,5.9601 45.7582,12.45653 8.7934,2.28689 17.6576,4.56366 25.7832,6.66841 47.4076,12.2339 49.6743,12.87139 50.1196,13.79223 a 1.0119016,1.0119016 0 0 1 0.1016,0.7488 1.0726157,1.0726157 0 0 1 -0.4858,0.62738 c -0.3338,0.18213 -1.4064,0.11133 -3.9059,-0.42499 a 0.29345146,0.29345146 0 0 1 0,0.10118 c -0.4149,1.49763 -0.4553,1.68989 -58.1033,-12.30472 -21.8976,-5.32259 -47.357,-11.50531 -62.829,-14.88506 10.9487,2.97498 26.7344,7.08332 41.3766,10.92854 55.5535,14.51066 65.2171,17.26303 66.3909,18.45708 a 0.42499866,0.42499866 0 0 1 0.081,0.12143 1.0119016,1.0119016 0 0 1 0.1016,0.76904 c -0.3643,1.33571 -0.4858,1.78094 -35.2446,-7.0226 17.2023,4.61428 22.3226,6.37499 22.7476,7.17439 a 1.0827347,1.0827347 0 0 1 0.1113,0.78928 c -0.172,0.61726 -0.3036,1.07261 -4.0476,0.40476 a 1.2244008,1.2244008 0 0 1 0,0.68809 c -0.1822,0.61726 -0.2732,1.01191 -4.8672,0 a 0.66785504,0.66785504 0 0 1 0,0.1518 c -0.3846,1.43689 -0.4353,1.62914 -55.5838,-9.69403 -15.0065,-3.0863 -31.2678,-6.42558 -41.8826,-8.44939 9.5321,2.6006 23.5266,6.19286 35.72,9.31962 34.6172,8.8744 39.8184,10.372 40.6886,11.26247 a 0.50595079,0.50595079 0 0 1 0.1016,0.13155 1.0119016,1.0119016 0 0 1 0.1113,0.76905 c -0.4049,1.45714 -0.4958,1.81131 -53.4791,-9.0363 -8.2369,-1.68987 -16.5951,-3.39997 -23.3951,-4.74581 7.0833,1.88214 15.8566,4.04761 23.6785,6.07142 31.9457,8.0952 35.3357,9.10711 35.7606,10.0583 a 1.0119016,1.0119016 0 0 1 0.1113,0.77916 c -0.081,0.2732 -0.1315,0.48571 -0.425,0.59703 3.6226,1.0119 3.7035,1.20415 3.8958,1.56844 a 1.0119016,1.0119016 0 0 1 0.091,0.73869 c -0.3644,1.37619 -0.3746,1.39642 -43.5118,-8.27736 l -15.8161,-3.54165 15.2695,4.39165 c 13.5899,3.55177 22.262,5.86903 27.8072,7.41723 9.5017,2.55 9.7445,2.72202 10.038,3.2381 a 1.0119016,1.0119016 0 0 1 0.091,0.73868 1.0119016,1.0119016 0 0 1 -0.4656,0.60714 1.0119016,1.0119016 0 0 1 -0.5565,0.12143 c -1.3661,0.51607 -7.7612,-0.93095 -43.0159,-9.3095 l -1.0828,-0.26308 c 30.2458,7.78152 35.7707,9.41068 36.6815,10.34163 a 0.38452261,0.38452261 0 0 1 0.1015,0.13155 1.0119016,1.0119016 0 0 1 0.1114,0.77916 c -0.3442,1.2244 -0.4553,1.63927 -28.3333,-5.05951 26.4613,6.98212 26.7447,7.26546 27.1595,7.81187 a 1.0726157,1.0726157 0 0 1 0.1016,0.76906 c -0.3541,1.32558 -0.3643,1.34582 -41.3464,-6.98213 -8.8742,-1.80118 -18.3052,-3.71367 -25.9552,-5.21129 2.631,0.72857 5.606,1.53809 8.9452,2.47916 6.7899,1.79107 14.1666,3.69344 20.9767,5.46427 34.2934,8.87438 35.5684,9.21842 35.9832,10.11901 a 1.0119016,1.0119016 0 0 1 -0.3843,1.34583 c -0.415,0.25297 -1.6596,0.13156 -6.9823,-1.21429 -1.194,0.56668 -6.7493,-0.62736 -38.4522,-7.67019 -6.6988,-1.48751 -14.0351,-3.12679 -20.5924,-4.54345 7.1746,1.9125 15.4013,4.04761 22.8792,6.00058 35.2952,9.20829 35.4167,9.37021 35.8618,10.11902 a 1.0119016,1.0119016 0 0 1 0.081,0.7488 c -0.3846,1.44702 -0.4858,1.79107 -54.0052,-8.65177 -6.8203,-1.33569 -13.7518,-2.69164 -19.4893,-3.7845 9.6535,2.64106 23.0208,6.07142 34.0302,8.92497 33.9695,8.74282 33.8886,8.84402 34.2428,9.56246 a 1.0119016,1.0119016 0 0 1 0.091,0.75894 c -0.1822,0.66786 -0.2833,1.06249 -4.1893,0.28333 2.3679,0.7488 3.1065,1.16369 3.309,1.47737 a 1.0726157,1.0726157 0 0 1 0.1016,0.78928 c -0.3946,1.39644 -0.4554,1.62917 -48.9863,-9.59282 0.8602,0.22262 1.7103,0.45536 2.5501,0.65774 36.9242,9.60294 38.8267,10.2708 39.1404,11.02973 a 0.92083044,0.92083044 0 0 1 0.1016,0.75892 c -0.1721,0.64762 -0.2733,1.0119 -4.0476,0.2631 1.194,0.41486 1.4369,0.65773 1.5382,0.84999 a 0.95118748,0.95118748 0 0 1 0.1015,0.75894 c -0.3744,1.42676 -0.4452,1.64939 -48.8141,-9.522 l -5.9298,-1.35595 13.3571,3.4607 c 37.1571,9.60294 38.8368,10.26068 39.4643,11.04997 a 1.0119016,1.0119016 0 0 1 0.1015,0.75892 c -0.334,1.1738 -0.3744,1.35595 -23.5874,-4.46248 15.5225,4.0476 15.7957,4.32081 16.0486,4.84701 a 1.0119016,1.0119016 0 0 1 0.1114,0.75893 c -0.1517,0.52618 -0.2427,0.87023 -2.5701,0.50594 1.1636,0.40476 1.3153,0.55654 1.4267,0.78929 0.1113,0.23274 0.07,0.16191 0.1016,0.23274 a 1.8315419,1.8315419 0 0 1 0.6779,0.50594 1.0119016,1.0119016 0 0 1 0.081,0.76904 c -0.3644,1.36608 -0.3845,1.43691 -46.1325,-8.55057 l -13.7924,-3.11664 c 3.6428,0.96129 7.397,1.94284 11.0398,2.88392 40.3447,10.53389 44.6148,11.89996 45.1004,12.69936 a 1.0119016,1.0119016 0 0 1 0.1016,0.77917 c -0.3743,1.36606 -0.4047,1.47736 -41.326,-6.74939 -13.1548,-2.64107 -28.4446,-5.70713 -38.2802,-7.47797 7.8726,2.13513 19.2969,5.05952 29.8713,7.74106 36.57,9.29938 41.488,10.84759 42.0648,11.79878 a 1.0119016,1.0119016 0 0 1 0.1016,0.78928 c -0.3844,1.43691 -0.4552,1.7 -47.2354,-7.97379 -8.0953,-1.66964 -16.6155,-3.43034 -23.7393,-4.85714 6.4761,1.72025 14.1666,3.71369 21.3409,5.59582 40.8911,10.65537 42.9857,11.51544 43.5118,12.24396 a 1.0726157,1.0726157 0 0 1 0.1016,0.76907 c -0.3642,1.35599 -0.3642,1.35599 -41.2146,-8.00411 l -18.2144,-4.15891 c 6.1625,1.60892 12.8208,3.30892 18.963,4.87736 32.9476,8.44935 34.2327,9.10708 34.7084,9.72439 a 1.0119016,1.0119016 0 0 1 0.1016,0.7791 c -0.2023,0.73869 -0.2934,1.08274 -5.7779,-0.13153 6.7696,1.86195 8.0142,2.41851 8.247,2.87379 a 1.0119016,1.0119016 0 0 1 0.1113,0.75889 c -0.3642,1.27503 -0.3642,1.27503 -34.9206,-6.14222 -12.2947,-2.64107 -27.3923,-5.87908 -37.6936,-7.92314 8.9453,2.42858 21.6143,5.68686 32.6946,8.53028 33.1297,8.48983 34.607,9.0464 35.113,9.81545 a 1.0119016,1.0119016 0 0 1 0.1016,0.76907 1.0119016,1.0119016 0 0 1 -0.4654,0.58692 c -0.1722,0.10161 -0.3744,0.15176 -1.012,0.0912 a 1.0119016,1.0119016 0 0 1 0,0.34405 c -0.3845,1.38637 -0.4452,1.60892 -48.632,-8.51004 l -13.5493,-2.83337 c 5.2213,1.38637 10.8373,2.84353 16.0184,4.19941 34.9814,9.10714 35.1332,9.27911 35.5582,10.02795 a 1.0119016,1.0119016 0 0 1 0.091,0.74886 c -0.1923,0.71836 -0.2934,1.09279 -5.616,-0.0704 1.7809,0.57677 1.8822,0.71848 2.0238,1.01194 a 0.94106847,0.94106847 0 0 1 0.1016,0.73869 c -0.3642,1.3054 -0.3642,1.3054 -33.3927,-6.6684 -5.0595,-1.21429 -10.6755,-2.57028 -16.1904,-3.86554 l 14.4903,3.73399 c 34.6374,8.91484 38.1488,9.97737 38.7257,10.86781 a 1.0119016,1.0119016 0 0 1 0.091,0.75891 1.0119016,1.0119016 0 0 1 -0.4859,0.6173 c -0.3238,0.19219 -1.0827,0.19219 -3.2481,-0.26308 -0.334,0.87023 -1.6595,0.84989 -17.7792,-3.03572 15.5732,4.15888 18.6392,5.18087 19.0541,5.92971 a 1.0119016,1.0119016 0 0 1 0.1016,0.76907 c -0.3846,1.42679 -0.425,1.56838 -46.1932,-8.65176 -7.6602,-1.71009 -15.725,-3.50126 -22.8488,-5.05959 l 4.1486,1.13344 11.465,2.92437 c 35.9223,9.18798 42.4997,11.13091 43.5927,12.14274 a 0.45535573,0.45535573 0 0 1 0.1112,0.1417 1.0119016,1.0119016 0 0 1 0.1016,0.78929 1.0119016,1.0119016 0 0 1 -0.4654,0.58692 c -0.1621,0.10161 -0.2936,0.17197 -0.8602,0.10161 -0.4148,1.21429 -2.3881,1.01194 -43.5118,-7.82196 -4.8672,-1.01193 -9.9267,-2.12504 -14.6826,-3.12683 l 8.8439,2.26666 c 35.194,9.03634 41.7106,10.91839 42.7529,11.97076 a 0.60714095,0.60714095 0 0 1 0.1113,0.14172 1.0119016,1.0119016 0 0 1 0.1015,0.79943 c -0.2327,0.86007 -0.344,1.24466 -9.6839,-0.95119 12.6285,3.39997 13.5291,3.8452 13.853,4.35117 a 1.0119016,1.0119016 0 0 1 0.1016,0.75889 c -0.3745,1.35602 -0.3845,1.40661 -47.8629,-9.17793 l -14.7435,-3.27859 c 4.4726,1.17385 9.1071,2.37799 13.6202,3.54169 37.0254,9.64336 41.2249,10.91835 41.9837,11.68745 a 0.42499866,0.42499866 0 0 1 0.1114,0.16192 1.0119016,1.0119016 0 0 1 0.1016,0.7691 c -0.3541,1.33563 -0.3946,1.44697 -46.4462,-7.52862 -9.9368,-1.93277 -20.5215,-4.04765 -28.8594,-5.56546 5.8182,1.53812 12.6891,3.31902 19.469,5.05949 40.7189,10.56429 46.173,12.30479 46.7397,13.15479 a 1.0119016,1.0119016 0 0 1 0.1015,0.7691 c -0.2833,1.0118 -0.3642,1.3154 -16.1903,-2.4792 16.3319,4.3612 16.4939,4.5535 16.7873,5.1203 a 0.92083044,0.92083044 0 0 1 0.091,0.7487 c -0.344,1.3054 -0.3543,1.3256 -41.5993,-6.4661 -9.4309,-1.7809 -19.4993,-3.68328 -27.4022,-5.05944 5.7678,1.51777 12.588,3.27854 19.0338,4.92784 35.4165,9.1072 40.2231,10.5948 40.6785,11.4852 a 1.0119016,1.0119016 0 0 1 0.1112,0.7792 c -0.3743,1.3761 -0.415,1.5279 -45.5355,-6.8102 -10.5238,-1.9428 -21.8268,-4.0475 -30.1242,-5.4744 7.4476,2.0238 17.2933,4.5637 26.5015,6.9619 37.4404,9.7649 42.9857,11.3637 43.866,12.2542 a 0.60714095,0.60714095 0 0 1 0.1112,0.1214 1.0119016,1.0119016 0 0 1 0.091,0.75887 c -0.3541,1.3256 -0.3541,1.3256 -37.5415,-6.16237 -10.2708,-2.0745 -21.8469,-4.4018 -30.8225,-6.122 5.8791,1.5684 12.8107,3.3695 19.3577,5.0594 38.0475,9.90667 40.0511,10.57447 40.3647,11.38407 a 0.92083044,0.92083044 0 0 1 0.1016,0.7589 c -0.1418,0.5262 -0.243,0.8904 -2.378,0.5969 a 0.88035438,0.88035438 0 0 1 0,0.3643 c -0.1418,0.5262 -0.243,0.8804 -2.297,0.6173 2.1148,0.6578 2.2262,0.8197 2.3881,1.1232 a 1.0119016,1.0119016 0 0 1 0.091,0.759 c -0.3745,1.3154 -0.3949,1.3761 -39.3732,-6.2435 -12.6993,-2.4893 -27.3213,-5.35297 -37.0862,-7.08337 7.5893,2.0238 18.1232,4.74587 27.9083,7.25547 36.5801,9.36 43.3195,11.3029 44.3617,12.3654 a 0.45535573,0.45535573 0 0 1 0.1112,0.1417 1.0119016,1.0119016 0 0 1 0.1016,0.7892 c -0.3945,1.4471 -0.4756,1.7406 -46.8913,-7.7208 -11.8595,-2.4185 -24.6601,-5.0595 -33.5446,-6.6888 8.8947,2.4389 21.7154,5.7782 32.897,8.6923 34.7991,9.1072 34.9408,9.2185 35.2545,9.8965 a 1.0119016,1.0119016 0 0 1 0.091,0.7589 c -0.3641,1.3459 -0.3845,1.4268 -40.3747,-6.9112 -10.4226,-2.1756 -22.2619,-4.6446 -31.0148,-6.375 8.3784,2.2666 19.6916,5.1505 29.669,7.7005 34.9206,8.9249 38.9379,10.1189 39.464,11.0702 a 1.0726157,1.0726157 0 0 1 0.1114,0.7892 c -0.2935,1.0727 -0.3947,1.4269 -18.0321,-2.9041 11.3939,3.0357 11.4951,3.1673 11.7582,3.6833 a 1.0119016,1.0119016 0 0 1 0.091,0.7488 c -0.3947,1.4167 -0.4352,1.5684 -46.2236,-9.2184 l -0.2833,-0.081 11.5356,3.0357 c 34.0909,8.8441 34.263,9.0059 34.5868,9.6839 a 1.0119016,1.0119016 0 0 1 0.091,0.7589 c -0.3844,1.4066 -0.4554,1.6596 -43.5117,-7.0327 -8.834,-1.791 -18.2851,-3.7037 -25.5101,-5.0595 8.4394,2.2971 20.0762,5.2822 30.2965,7.9131 32.6842,8.3987 34.3033,8.935 34.6475,9.7143 a 1.0119016,1.0119016 0 0 1 0.1015,0.769 c -0.344,1.3156 -0.344,1.3156 -40.8504,-6.6785 -10.1191,-2.0239 -21.7357,-4.2906 -30.2357,-5.8894 9.9571,2.7423 24.4475,6.4863 36.2768,9.5525 30.954,7.9941 30.9844,8.0952 31.298,8.7326 a 1.0119016,1.0119016 0 0 1 0.091,0.7489 c -0.3846,1.4368 -0.4452,1.6191 -47.7314,-9.4511 l -11.0195,-2.5703 10.1189,2.5802 c 33.1398,8.4394 36.6208,9.6132 37.1974,10.4429 a 1.0119016,1.0119016 0 0 1 0.1114,0.7793 c -0.1518,0.506 -0.2328,0.85 -2.297,0.5768 1.2649,0.4452 1.5178,0.7082 1.6391,0.9005 a 1.0726157,1.0726157 0 0 1 0.1016,0.7691 c -0.253,0.9007 -0.3643,1.3154 -10.119,-1.012 7.397,2.0238 7.4881,2.2263 7.6804,2.6007 a 1.0624966,1.0624966 0 0 1 0.091,0.7487 c -0.1315,0.4554 -0.2023,0.7691 -1.5482,0.6275 a 0.73868816,0.73868816 0 0 1 0,0.3339 c -0.344,1.2749 -0.3743,1.3862 -32.5529,-6.3143 24.8828,6.5166 29.1327,7.9537 29.6588,8.7226 a 1.0119016,1.0119016 0 0 1 0.1113,0.7792 c -0.3845,1.3964 -0.4452,1.6089 -41.0428,-7.0125 -7.913,-1.6696 -16.3118,-3.4506 -23.1522,-4.8471 6.6278,1.7305 14.6826,3.7542 21.8974,5.5757 29.5274,7.4273 34.931,8.9755 35.9024,9.9672 a 0.81964029,0.81964029 0 0 1 0.1315,0.1518 1.1029727,1.1029727 0 0 1 0.1016,0.7994 c -0.344,1.2141 -0.344,1.2141 -34.0809,-5.353 -11.2827,-2.196 -24.8725,-4.8369 -35.1231,-6.6988 3.5214,1.0119 7.9131,2.1959 13.3774,3.744 l 8.3684,2.1858 c 42.2165,11.0197 47.8529,12.7095 48.7432,13.6202 a 0.63749799,0.63749799 0 0 1 0.1115,0.1314 1.0928537,1.0928537 0 0 1 0.091,0.7792 1.0726157,1.0726157 0 0 1 -0.4756,0.5971 c -0.4554,0.2631 -1.6596,0.1619 -6.8404,-1.184 -2.1655,0.1417 -9.6738,-1.1636 -37.5618,-5.9803 -8.0143,-1.3965 -16.5447,-2.8636 -23.4256,-4.0476 l 20.5821,5.4541 c 39.6564,10.4632 40.1118,10.6756 40.5267,11.4446 a 1.0119016,1.0119016 0 0 1 0.091,0.759 c -0.2024,0.759 -0.2935,1.0929 -6.5673,-0.3339 0,0 0,0 0,0 a 1.0119016,1.0119016 0 0 1 0.1114,0.7689 c -0.1214,0.4453 -0.2025,0.749 -1.2346,0.7084 1.6798,0.5161 1.7303,0.6478 1.872,0.9006 a 0.93094946,0.93094946 0 0 1 0.091,0.7489 1.0119016,1.0119016 0 0 1 -0.4655,0.5969 c -0.3237,0.1822 -0.5262,0.3037 -4.4726,-0.7184 -1.0118,0.3743 -4.7559,-0.3845 -20.4302,-3.8958 15.3505,4.0477 15.4516,4.1285 15.7654,4.6953 a 1.0624966,1.0624966 0 0 1 0.1016,0.7487 c -0.3541,1.265 -0.3541,1.265 -25.8236,-3.5316 l -0.678,-0.1213 2.1553,0.5565 c 20.5518,5.3833 20.491,5.4845 20.8047,5.9905 a 0.93094946,0.93094946 0 0 1 0.091,0.7489 c -0.2428,1.0118 -0.2428,1.0118 -14.6321,0.4248 l -6.4559,-0.2529 c 1.6494,0.4351 3.4303,0.9006 5.0595,1.3155 11.4143,2.9548 11.4143,3.0356 11.6874,3.4809 a 0.93094946,0.93094946 0 0 1 0.091,0.7489 c -0.2631,0.9512 -0.2631,0.9512 -10.0281,-0.4554 l -1.7606,-0.253 a 0.39464162,0.39464162 0 0 1 0,0.1518 c 6.5874,1.7809 6.6076,1.8012 6.3547,2.7321 a 1.0119016,1.0119016 0 0 1 -1.1738,0.688 h -0.1417 c -0.4351,-0.1415 -3.3392,-0.9308 -5.9196,-1.6189 -3.6631,-1.012 -5.6565,-1.528 -6.6988,-1.9126 h -0.1923 v 0 c -0.8297,-0.3238 -1.0118,-0.5362 -0.9511,-0.8296 -1.3155,-0.3645 -1.3863,-0.4657 -1.528,-0.7489 a 0.92083044,0.92083044 0 0 1 -0.091,-0.7286 c 0.2328,-0.8399 0.2733,-1.0118 6.6988,-0.1015 -9.6838,-2.5195 -9.6636,-2.631 -9.4005,-3.6125 0.2631,-0.9815 0.2732,-1.0119 14.4904,-0.4351 l 6.9113,0.2631 c -3.8756,-1.0119 -8.9756,-2.3779 -13.7416,-3.6226 -16.9089,-4.4523 -20.8452,-5.4845 -21.6143,-6.2636 z m 280.2159,-258.82432 c -10.028,-2.65118 -19.7827,-5.22142 -28.0501,-7.33629 8.2067,2.19581 17.9411,4.72557 28.0501,7.33629 z m 65.5205,15.28982 c -6.8101,-1.79106 -14.5107,-3.7845 -22.5351,-5.86902 8.0144,2.11487 15.7048,4.12855 22.5351,5.86902 z"
     id="path75"
     style="stroke-width:1.0119" />
  <path
     class="cls-1"
     d="m 208.21175,626.86682 c -56.85875,0 -101.13958,-36.73203 -112.786567,-93.60088 l 39.342737,-11.03985 c 4.60415,32.38085 29.27431,67.19026 72.49264,67.19026 35.78083,0 74.395,-26.97729 74.395,-70.55989 0,-41.48798 -33.03858,-56.59567 -64.9742,-71.19741 l -23.78981,-10.38212 c -49.77544,-22.60588 -78.7563,-45.07008 -78.7563,-92.63958 0,-52.54805 43.51176,-92.16399 101.28125,-92.16399 40.17248,0 74.30392,20.47076 93.60088,56.16053 l -32.16834,20.64279 c -16.13984,-27.91836 -34.21239,-39.36296 -62.38375,-39.36296 -29.4767,0 -59.99564,21.00707 -59.99564,56.1504 0,31.10588 32.61359,45.8088 56.42364,56.54507 l 24.22492,10.66544 c 55.02721,24.13386 86.87175,48.57128 86.87175,101.7467 -0.0202,62.71767 -49.98794,111.84549 -113.77821,111.84549 z"
     id="path77"
     style="stroke-width:1.0119" />
  <path
     class="cls-1"
     d="M 566.28324,620.6234 V 493.42737 c 0,-37.81477 -3.59225,-69.11288 -47.50877,-69.11288 -51.82961,0 -56.18078,46.08198 -56.18078,89.28007 V 620.6234 H 424.14143 V 224.63594 h 38.45226 v 155.37749 a 19.651129,19.651129 0 0 0 28.91003,17.34399 c 10.67555,-5.697 22.90945,-8.5708 36.42844,-8.5708 32.97788,0 76.78311,10.11902 76.78311,97.92171 V 620.6234 Z"
     id="path79"
     style="stroke-width:1.0119" />
  <path
     class="cls-1"
     d="M 728.02558,620.6234 V 395.01993 h 38.39156 v 225.65405 z m 19.22615,-283.19079 a 27.321343,27.321343 0 1 1 27.32134,-27.32134 27.392176,27.392176 0 0 1 -27.34158,27.32134 z"
     id="path81"
     style="stroke-width:1.0119" />
  <path
     class="cls-1"
     d="m 1004.973,626.86682 a 100.51218,100.51218 0 0 1 -51.41479,-13.70114 19.681486,19.681486 0 0 0 -10.119,-2.78273 19.802914,19.802914 0 0 0 -17.20233,10.2202 H 887.84533 V 224.63594 h 38.39155 v 160.18402 a 19.651129,19.651129 0 0 0 29.54752,16.98983 96.85922,96.85922 0 0 1 48.7129,-13.02317 c 62.8595,0 108.4759,50.05877 108.4759,119.04011 0.061,67.86823 -46.4261,119.04009 -108.0002,119.04009 z m -7.19467,-202.55233 c -47.69093,0 -73.44383,41.80166 -73.44383,81.11403 0,42.69212 25.38862,85.92055 73.86886,85.92055 52.04214,0 75.36634,-42.91475 75.36634,-85.44496 0.05,-39.29215 -23.6987,-81.58962 -75.79137,-81.58962 z"
     id="path83"
     style="stroke-width:1.0119" />
  <path
     class="cls-1"
     d="m 1298.7179,626.86682 c -61.5541,0 -107.98,-50.96947 -107.98,-118.55439 0,-69.26465 45.6165,-119.52581 108.4758,-119.52581 a 96.130651,96.130651 0 0 1 50.332,14.22734 19.671366,19.671366 0 0 0 27.8779,-7.96367 h 38.4523 v 225.65406 h -38.4523 a 19.701724,19.701724 0 0 0 -27.4935,-7.42736 c -14.9153,8.99579 -32.1582,13.58983 -51.2122,13.58983 z m 4.8065,-202.55233 c -47.6909,0 -73.4439,41.80166 -73.4439,81.11403 0,42.69212 25.3888,85.92055 73.8689,85.92055 52.0521,0 75.3665,-42.91475 75.3665,-85.44496 0.051,-39.29215 -23.6989,-81.58962 -75.7915,-81.58962 z"
     id="path85"
     style="stroke-width:1.0119" />
  <path
     class="cls-1"
     d="M 189.03621,1022.1561 V 707.45466 h -59.94506 v 381.59824 h 159.7995 v -57.1015 h -90.00864 a 9.8660403,9.8660403 0 0 1 -9.8458,-9.7953 z"
     id="path87"
     style="stroke-width:1.0119" />
  <path
     class="cls-1"
     d="m 520.81851,849.2828 a 9.8660403,9.8660403 0 0 1 -6.16248,5.0595 9.1071142,9.1071142 0 0 1 -2.62083,0.38453 9.8963976,9.8963976 0 0 1 -5.13035,-1.47739 106.108,106.108 0 0 0 -55.47244,-15.66424 c -68.55634,0 -118.30141,54.39984 -118.30141,129.33119 0,73.20091 50.59508,128.39001 117.80558,128.39001 20.87553,0 39.82844,-5.0594 56.33257,-15.0974 a 9.8255645,9.8255645 0 0 1 5.05951,-1.4267 10.513657,10.513657 0 0 1 2.59047,0.3439 9.9874687,9.9874687 0 0 1 6.0714,4.8064 l 2.79285,5.1203 h 54.03554 V 843.79828 h -54.329 z m 0.92082,115.24544 c 0,34.87019 -17.20232,75.60936 -65.55098,75.60936 -42.06475,0 -64.09385,-38.3006 -64.09385,-76.10517 0,-34.55643 22.26184,-71.27835 63.62837,-71.27835 45.58617,0 66.01646,36.04394 66.01646,71.77416 z"
     id="path89"
     style="stroke-width:1.0119" />
  <path
     class="cls-1"
     d="m 796.9968,837.5852 a 106.62407,106.62407 0 0 0 -53.63078,14.35889 9.7952073,9.7952073 0 0 1 -4.92795,1.3256 9.6535411,9.6535411 0 0 1 -4.89761,-1.3256 9.8356834,9.8356834 0 0 1 -4.93808,-8.51008 V 673.43454 h -58.07303 v 415.63876 h 54.01531 l 2.79284,-5.0596 a 10.048183,10.048183 0 0 1 6.07141,-4.7863 9.4815179,9.4815179 0 0 1 2.52976,-0.334 9.9672306,9.9672306 0 0 1 5.0595,1.3964 110.35799,110.35799 0 0 0 56.454,15.0774 c 67.17002,0 117.8157,-55.3914 117.8157,-128.86578 C 915.28807,891.78266 865.54301,837.5852 796.9968,837.5852 Z m 59.29745,126.94304 c 0,34.87019 -17.20234,75.60936 -65.551,75.60936 -42.07486,0 -64.10396,-38.3006 -64.10396,-76.10517 0,-34.55643 22.26184,-71.27835 63.62838,-71.27835 45.59628,0 66.02658,36.04394 66.02658,71.77416 z"
     id="path91"
     style="stroke-width:1.0119" />
  <path
     class="cls-1"
     d="m 133.39173,1171.9984 32.07729,74.1016 32.20883,-74.1016 17.90055,93.3075 h -10.11902 l -11.35354,-59.7022 h -0.22263 l -28.46478,63.3552 -28.33325,-63.3552 h -0.24286 l -11.35353,59.7022 h -10.06842 z"
     id="path95"
     style="stroke-width:1.0119" />
  <path
     class="cls-1"
     d="m 278.86272,1265.3059 h -9.3601 v -7.6094 h -0.25297 a 23.091594,23.091594 0 0 1 -18.96303,9.107 c -16.19043,0 -26.30944,-13.7011 -26.30944,-28.9098 0,-15.6847 9.95711,-29.1631 26.4511,-29.1631 a 23.799925,23.799925 0 0 1 18.82137,9.4106 h 0.25297 v -7.8321 h 9.3601 z m -45.32307,-28.1004 c 0,10.7666 6.32439,20.9666 18.03208,20.9666 12.06186,0 18.37614,-9.7245 18.37614,-20.8553 0,-11.131 -6.90118,-19.9042 -18.48745,-19.9042 -10.89818,0 -17.92077,9.4715 -17.92077,19.7929 z"
     id="path97"
     style="stroke-width:1.0119" />
  <path
     class="cls-1"
     d="m 306.85191,1230.6383 20.04578,-20.3596 h 12.52733 l -23.54695,23.4053 27.9892,31.6219 h -12.41602 l -22.14042,-25.0546 -2.45892,2.4589 v 22.5957 h -9.33986 v -96.6062 h 9.33986 z"
     id="path99"
     style="stroke-width:1.0119" />
  <path
     class="cls-1"
     d="m 367.88981,1189.5551 a 6.6785504,6.6785504 0 0 1 -13.34697,0 6.6785504,6.6785504 0 1 1 13.34697,0 z m -2.02379,75.7508 h -9.32975 v -55.0272 h 9.36011 z"
     id="path101"
     style="stroke-width:1.0119" />
  <path
     class="cls-1"
     d="m 396.60759,1216.9573 h 0.24286 c 3.86546,-5.2822 8.89461,-8.2167 15.69459,-8.2167 15.17852,0 18.73029,11.0096 18.73029,23.9013 v 32.664 h -9.3702 v -31.0349 c 0,-8.8947 -0.69822,-16.8584 -11.5964,-16.8584 -12.87138,0 -13.70114,11.9304 -13.70114,21.7762 v 26.1171 h -9.37022 v -55.0272 h 9.37022 z"
     id="path103"
     style="stroke-width:1.0119" />
  <path
     class="cls-1"
     d="m 500.48939,1262.665 c 0,8.7833 0,16.3927 -5.61604,23.6582 -5.15057,6.547 -13.15473,9.7041 -21.31065,9.7041 -15.35054,0 -26.70408,-9.7041 -27.05825,-25.2975 h 9.36009 c 0.14167,10.1797 7.49819,16.6154 17.56662,16.6154 14.5309,0 17.69816,-10.6553 17.69816,-23.0713 v -6.547 h -0.25299 a 24.285638,24.285638 0 0 1 -19.07434,9.107 c -16.04875,0 -26.22849,-13.4482 -26.22849,-28.7987 0,-15.3505 10.29104,-29.2742 26.57254,-29.2742 a 22.909451,22.909451 0 0 1 18.73029,9.3802 h 0.25299 v -7.8321 h 9.36007 z m -45.32306,-25.4089 c 0,10.7667 6.32438,20.9665 18.03209,20.9665 12.06187,0 18.37614,-9.7242 18.37614,-20.8553 0,-11.1308 -6.90118,-19.904 -18.48745,-19.904 -10.89819,-0.051 -17.92078,9.4208 -17.92078,19.7422 z"
     id="path105"
     style="stroke-width:1.0119" />
  <path
     class="cls-1"
     d="m 563.64218,1207.0104 21.89754,21.8974 21.78625,-21.8974 6.5369,6.4355 -21.88744,21.8976 21.88744,21.8875 -6.5369,6.4357 -21.78625,-21.8975 -21.89754,21.9076 -6.45592,-6.4357 21.89754,-21.8976 -21.89754,-21.8976 z"
     id="path107"
     style="stroke-width:1.0119" />
  <path
     class="cls-1"
     d="m 737.44641,1196.3449 a 37.764167,37.764167 0 0 0 -26.92671,-11.7078 c -19.68149,0 -35.63918,17.081 -35.63918,36.5398 0,19.459 16.04876,36.5398 35.82132,36.5398 9.95711,0 19.68148,-4.6952 26.70409,-11.7179 v 12.1429 a 45.535573,45.535573 0 0 1 -26.30946,8.6416 c -24.94337,0 -46.02127,-20.238 -46.02127,-45.3028 a 46.173069,46.173069 0 0 1 46.02127,-46.0213 42.621295,42.621295 0 0 1 26.30946,8.672 z"
     id="path109"
     style="stroke-width:1.0119" />
  <path
     class="cls-1"
     d="m 764.77786,1216.2388 h 0.22261 c 3.27857,-4.341 6.07142,-7.4982 12.14283,-7.4982 a 16.564828,16.564828 0 0 1 8.43926,2.5906 l -4.45237,8.5405 c -1.87203,-1.2853 -3.15713,-2.4591 -5.61606,-2.4591 -10.31127,0 -10.76662,13.2257 -10.76662,20.3797 v 27.5136 h -9.39045 v -55.0272 h 9.39045 z"
     id="path111"
     style="stroke-width:1.0119" />
  <path
     class="cls-1"
     d="m 801.5706,1239.7756 c 0.11134,10.1798 7.37676,18.3965 18.03209,18.3965 7.94342,0 13.15472,-4.8066 16.72673,-11.3738 l 7.96366,4.5839 c -5.25177,9.8155 -14.16662,15.4315 -25.38861,15.4315 -16.41304,0 -26.94693,-12.5274 -26.94693,-28.3333 0,-16.2714 9.50175,-29.7498 26.69396,-29.7498 17.67792,0 27.04813,14.6522 26.11718,31.0351 z m 33.39275,-7.9636 c -1.28511,-7.9535 -7.97379,-14.3994 -16.19043,-14.3994 a 17.414827,17.414827 0 0 0 -16.75708,14.3994 z"
     id="path113"
     style="stroke-width:1.0119" />
  <path
     class="cls-1"
     d="m 909.64169,1265.3059 h -9.37021 v -7.6094 h -0.24287 a 23.091594,23.091594 0 0 1 -18.96301,9.107 c -16.19043,0 -26.30945,-13.7011 -26.30945,-28.9098 0,-15.6847 9.95711,-29.1631 26.45111,-29.1631 a 23.799925,23.799925 0 0 1 18.85173,9.3703 h 0.24286 v -7.8322 h 9.33984 z m -45.32306,-28.1004 c 0,10.7666 6.32439,20.9666 18.03207,20.9666 12.05175,0 18.37615,-9.7245 18.37615,-20.8553 0,-11.131 -6.9113,-19.9042 -18.48745,-19.9042 -10.87796,0 -17.90055,9.4715 -17.90055,19.7929 z"
     id="path115"
     style="stroke-width:1.0119" />
  <path
     class="cls-1"
     d="m 938.62255,1265.3059 h -9.3702 v -46.3652 h -5.72737 v -8.662 h 5.72737 v -19.8028 h 9.3702 v 19.8028 h 9.83568 v 8.662 h -9.83568 z"
     id="path117"
     style="stroke-width:1.0119" />
  <path
     class="cls-1"
     d="m 971.75221,1189.5551 a 6.6684332,6.6684332 0 0 1 -13.33686,0 6.6684332,6.6684332 0 1 1 13.33686,0 z m -2.02379,75.7508 h -9.37022 v -55.0272 h 9.37022 z"
     id="path119"
     style="stroke-width:1.0119" />
  <path
     class="cls-1"
     d="m 1009.3646,1247.2739 16.4029,-36.9952 h 10.544 l -26.9469,58.6904 -27.04814,-58.6904 h 10.65529 z"
     id="path121"
     style="stroke-width:1.0119" />
  <path
     class="cls-1"
     d="m 1051.7734,1239.7756 c 0.1113,10.1798 7.3768,18.3965 18.0321,18.3965 7.9434,0 13.1547,-4.8066 16.7266,-11.3738 l 7.9637,4.5839 c -5.2517,9.8155 -14.1666,15.4315 -25.4087,15.4315 -16.3928,0 -26.9268,-12.5274 -26.9268,-28.3333 0,-16.2714 9.5018,-29.7498 26.6939,-29.7498 17.6779,0 27.0481,14.6522 26.1173,31.0351 z m 33.3927,-7.9636 c -1.2952,-7.9535 -7.9738,-14.3994 -16.1905,-14.3994 a 17.354113,17.354113 0 0 0 -16.7165,14.3994 z"
     id="path123"
     style="stroke-width:1.0119" />
  <path
     class="cls-1"
     d="m 1152.751,1207.0104 21.8976,21.8974 21.7862,-21.8974 6.537,6.4355 -21.8875,21.8976 21.8875,21.8875 -6.537,6.4357 -21.7862,-21.8975 -21.8976,21.9076 -6.4558,-6.4357 21.8975,-21.8873 -21.8975,-21.8976 z"
     id="path125"
     style="stroke-width:1.0119" />
  <path
     class="cls-1"
     d="m 1263.6656,1240.2513 -10.6451,25.0546 h -10.7667 l 40.7796,-92.4978 39.6969,92.4978 h -10.8778 l -10.4227,-25.0546 z m 19.0945,-44.5236 -15.0974,35.3456 h 29.8612 z"
     id="path127"
     style="stroke-width:1.0119" />
  <path
     class="cls-1"
     d="m 1342.9583,1216.2388 h 0.2529 c 3.2684,-4.341 6.0714,-7.4982 12.1428,-7.4982 a 16.504115,16.504115 0 0 1 8.4393,2.5906 l -4.4423,8.5405 c -1.872,-1.2853 -3.1572,-2.4591 -5.616,-2.4591 -10.3214,0 -10.797,13.2257 -10.797,20.3797 v 27.5136 h -9.3095 v -55.0272 h 9.3398 z"
     id="path129"
     style="stroke-width:1.0119" />
  <path
     class="cls-1"
     d="m 1387.2592,1265.3059 h -9.3701 v -46.3652 h -5.7273 v -8.662 h 5.7273 v -19.8028 h 9.3701 v 19.8028 h 9.8458 v 8.662 h -9.8458 z"
     id="path131"
     style="stroke-width:1.0119" />
</svg>
