<svg id="レイヤー_1" data-name="レイヤー 1" xmlns="http://www.w3.org/2000/svg" viewBox="0 0 1478.68 1069.02"><defs><style>.cls-1{fill:#221714;}</style></defs><path class="cls-1" d="M1525.29,569.7a.55.55,0,0,1-.11-.17.92.92,0,0,1-.11-.74c.33-1.23.39-1.43,24.35,3.81-15.23-4-16.18-4.51-16.56-5.1a1,1,0,0,1-.1-.75c.15-.56.25-.87,2.53-.44.36-.77,2.12-.59,22,1.52,4.48.47,9.48,1,13.6,1.41-3.27-.86-7.06-1.82-10.49-2.7-18.83-4.81-18.85-4.94-19.14-5.51a1,1,0,0,1-.11-.76c.32-1.16.32-1.16,22.4,1.91l1.47.2-3.59-.93c-19.65-5.11-19.77-5.23-20.13-5.83a1,1,0,0,1-.1-.75,1,1,0,0,1,.45-.57c.35-.21.51-.3,5.38,1,.38-.64,2-.45,15.27,1,2.27.25,4.8.55,7.21.81l-2.13-.54c-12-3-12.19-3.23-12.54-3.69-6-1.62-6.05-1.83-6.25-2.14a1,1,0,0,1-.08-.75c.24-.92.24-.92,13.34.46,1.82.19,3.83.42,5.8.61-9.17-2.29-9.24-2.44-9.51-2.93a1,1,0,0,1-.12-.72c-1.54-.48-1.63-.6-1.76-.87a1,1,0,0,1-.1-.74c.18-.66.18-.66,9-2.64l5.52-1.25-3.4-.9c-7.14-1.88-7.13-1.86-7.39-2.32a1,1,0,0,1-.08-.76c.22-.71.22-.71,6.55-.91l2.15-.08c-3-.79-3-.83-3.17-1.18a1.05,1.05,0,0,1-.08-.68c.22-.88.22-.88,4.37-.34l.27,0a1.76,1.76,0,0,1,.52-.19,1,1,0,0,1,.8-.43.88.88,0,0,1,.33.06l.41.1c.48.13.88.24,1,.78a1,1,0,0,1,0,.17.74.74,0,0,1,.28.37.94.94,0,0,1,0,.64c2.27.63,2.22.8,2,1.55s-.21.82-8.6,1.09l1,.27c7.14,1.87,7.13,1.85,7.38,2.31a.91.91,0,0,1,.1.72c-.18.67-.18.67-9.66,2.81l-5,1.14c3,.83,7.75,2.06,11.57,3,12.25,3.18,12.24,3.17,12,4.25-.23.82-.29,1.06-5.31-.13-.33.81-1.6.68-17.14-1l-2.32-.25c2.69.72,5.63,1.49,8.34,2.2,15,4,15.1,3.92,15.4,4.5a.87.87,0,0,1,.09.72c-.24.89-.67,1-3.28.29-1.17.26-4.86-.16-17.78-1.62l-4.21-.47,7.56,1.94c18.66,4.76,18.64,4.88,19,5.5a1,1,0,0,1,.1.74c-.21.77-.29,1.06-5.92-.33-.45.55-2.4.27-15.37-1.52-3.29-.46-7.06-1-10.5-1.44l8.1,2.08c19.3,4.92,19.34,5.09,19.64,5.66a1,1,0,0,1,.1.76c-.3,1.06-.3,1.06-23.53-1.39-4.29-.46-8.84-.94-12.59-1.31,5,1.34,11.5,3,17.27,4.5,21.29,5.46,21.41,5.57,21.74,6.2a1,1,0,0,1,.1.75l0,.09,0,.06a.94.94,0,0,1,.08.75c-.32,1.25-.32,1.25-26.68-4.54l-9.34-2.05,8.34,2.17c24.52,6.35,24.52,6.41,24.89,7.06a1,1,0,0,1,.1.75,1,1,0,0,1-1.53.48c-1.46-.62-13.38-3.71-23.92-6.45C1529.15,571.33,1526,570.36,1525.29,569.7Z" transform="translate(-277.36 -2.9)"/><path class="cls-1" d="M1185.48,851.91c-.23-.23-.18-.45-.11-.72.3-1.12.3-1.12,20.94,2.76l7.25,1.36-5.84-1.51c-24.58-6.37-24.84-6.54-25.21-7.22a1,1,0,0,1-.1-.75c.33-1.18.36-1.29,20.1,3.15-23.22-6-24.41-6.58-24.9-7.23a1.09,1.09,0,0,1-.1-.75c.19-.68.3-1,4.3-.11-2.9-.89-3.67-1.22-3.84-1.65a1,1,0,0,1-.11-.76c.14-.48.22-.78,1.82-.58-7.83-2.15-7.92-2.35-8.18-2.71a.92.92,0,0,1-.09-.74c.34-1.25.34-1.25,38.06,5.27,7.67,1.33,15.8,2.73,22.47,3.85L1219,839.89,1207.63,837c-32.31-8.21-37.5-9.72-38.43-10.66a.48.48,0,0,1-.12-.17,1.19,1.19,0,0,1-.08-.16c-1.34-.46-1.44-.61-1.57-.84a1,1,0,0,1-.09-.73c.39-1.41.47-1.7,51.36,8.2,6,1.18,12.17,2.37,17.44,3.37-6.24-1.62-13.63-3.48-20.28-5.16-31.33-7.87-35.7-9.05-36.27-10.19a1.14,1.14,0,0,1-.1-.79c.37-1.37.42-1.51,38.46,6.56,8.74,1.85,18.62,4,26.26,5.48-9-2.46-21.46-5.67-31.69-8.33-32.36-8.37-32.52-8.48-32.91-9.21a1,1,0,0,1-.1-.75c.37-1.36.4-1.44,41.79,8.47l-2.7-.7c-34.61-8.91-36.33-9.55-36.88-10.34a1,1,0,0,1-.1-.76c.14-.5.23-.83,2.18-.53a.54.54,0,0,1,0-.22c.23-.85.34-1.25,8.47.63-2.51-.78-3.2-1.17-3.42-1.5a1.05,1.05,0,0,1-.1-.76c.14-.51.23-.81,2.34-.46-1.65-.56-2.25-1-2.4-1.2a1.07,1.07,0,0,1-.1-.78c.37-1.38.38-1.42,41.16,8.11l11.4,2.66c-37.94-9.81-44-11.74-44.52-12.65a1,1,0,0,1-.11-.77c.37-1.33.38-1.39,43.36,7.1,7.48,1.47,15.37,3,22.09,4.33-5.28-1.38-11.23-2.91-16.9-4.37-37-9.53-42-11-42.46-12a1,1,0,0,1-.1-.78c.37-1.35.41-1.48,38.68,6.25,9.18,1.84,19.54,3.94,27.62,5.47-5.8-1.53-12.8-3.35-19.7-5.15-39.21-10.16-44.73-11.68-45.3-12.76a1,1,0,0,1-.1-.76c.36-1.28.36-1.28,35.2,6.93l5.23,1.23c-28.59-7.4-34.24-9.1-35.19-10.06l-.12-.14a1.11,1.11,0,0,1-.1-.78c.23-.86.34-1.23,9.56.92-8-2.21-9.72-3-10.07-3.5a1,1,0,0,1-.09-.78c.37-1.38.42-1.56,44.69,7.68,6.54,1.36,13.41,2.8,19.51,4-4.82-1.27-10.14-2.65-15.41-4-39.2-10.23-43.75-11.62-44.29-12.49a1,1,0,0,1-.1-.75c.4-1.45.47-1.72,45.88,7.55,12,2.44,25.82,5.26,34.92,6.93-8.73-2.4-22-5.79-33.47-8.74-34.72-8.9-38.44-10-39-10.91a1.06,1.06,0,0,1-.1-.78c.39-1.38.46-1.67,49,7.82,7.33,1.43,15.08,3,21.63,4.19-5.42-1.42-11.7-3.05-17.9-4.65-38-9.87-43.4-11.42-44-12.41a1,1,0,0,1-.1-.76c.2-.75.3-1.1,6.09.23a.67.67,0,0,1-.28-.28,1.13,1.13,0,0,1-.11-.78c.08-.28.14-.5.54-.58,0-.08-.12-.14-.17-.22a1,1,0,0,1-.1-.75c.38-1.37.42-1.55,46.82,7.79,6.71,1.35,13.81,2.78,19.89,4-8.1-2.18-18.2-4.81-27.2-7.15-34.33-8.95-38.1-10.06-38.8-10.77a.48.48,0,0,1-.12-.17,1,1,0,0,1-.09-.75c.36-1.34.39-1.45,43.41,6.49,11.76,2.18,24.47,4.53,33.11,6-8-2.16-19.34-5.1-29.28-7.66-31.84-8.21-33.18-8.66-33.69-9.45a1,1,0,0,1-.09-.75c.37-1.31.38-1.36,42.88,6.66,8.56,1.62,17.67,3.34,25,4.68-6.56-1.75-14.52-3.83-22-5.79-35.09-9.17-39-10.35-39.68-11.07a.36.36,0,0,1-.11-.14.94.94,0,0,1-.09-.75c.33-1.22.34-1.26,31.64,6.42l-1.44-.38c-34.45-8.93-34.62-9.06-35-9.8a1,1,0,0,1-.1-.76c.36-1.33.38-1.42,45.23,7.33,10.83,2.11,22.44,4.37,31.09,6-7.83-2.11-18.11-4.79-27.74-7.29-37.54-9.77-39.63-10.36-40-11.25a.94.94,0,0,1-.1-.75c.35-1.29.35-1.29,42.16,8,7.11,1.59,14.85,3.31,21.92,4.87l-16-4.22c-38.18-10-39.87-10.69-40.4-11.37a1,1,0,0,1-.1-.75c.24-.86.34-1.24,9.87,1-6-1.65-6.47-1.91-6.66-2.34a1,1,0,0,1-.1-.74c.37-1.35.39-1.44,37.86,6.61,7.57,1.62,16,3.42,23.19,4.92l-12.54-3.22c-34.14-8.76-40.47-10.6-41.48-11.62a.71.71,0,0,1-.1-.14.58.58,0,0,1-.1-.27c-5.16-1.45-6.22-2-6.44-2.37a1,1,0,0,1-.1-.76c.38-1.41.42-1.55,45.64,8.54,9.49,2.12,19.57,4.37,27.7,6.13-9-2.42-20.27-5.35-29.75-7.82-32.58-8.45-32.64-8.61-33-9.21a1,1,0,0,1-.1-.76c.35-1.26.41-1.47,29.62,5.7-24.38-6.3-25.62-6.83-26.09-7.5a1,1,0,0,1-.12-.66c-1.18-.44-1.64-.73-1.75-1a1,1,0,0,1-.1-.76c.31-1.17.41-1.52,25.58,4.46-24.82-6.55-26.09-7.05-26.36-7.7a1,1,0,0,1-.1-.74c.24-.86.34-1.22,9.44,1a.93.93,0,0,1-.38-.35,1,1,0,0,1-.1-.74c.36-1.26.36-1.26,35.5,6.12,9.5,2,20.12,4.23,28.82,6l-14.22-3.71c-41.11-10.69-44.82-11.86-45.42-12.83a1,1,0,0,1-.1-.76.79.79,0,0,1,.28-.5l-.08-.1a1,1,0,0,1-.09-.79c.39-1.41.47-1.7,50.5,9l10.36,2.23c-4.55-1.18-9.36-2.41-14-3.59-35.39-9.07-41.91-10.94-42.93-12a.45.45,0,0,1-.11-.14,1,1,0,0,1-.1-.78c.18-.65.27-1,4.39-.22-2.22-.74-2.89-1.11-3.14-1.47a1.06,1.06,0,0,1-.1-.78c.37-1.36.38-1.38,42.49,8.27l12.26,2.8c-5.15-1.36-10.5-2.74-15.51-4-36-9.4-37.41-9.76-37.83-10.63a1,1,0,0,1-.1-.74c.39-1.38.41-1.5,41.16,6.93,11.59,2.39,24.89,5.14,34.05,6.88-8.2-2.21-19.77-5.16-29.89-7.74-33.19-8.45-39.09-10.15-40-11.12a.47.47,0,0,1-.12-.13,1,1,0,0,1-.1-.77c.4-1.46.48-1.77,49.43,8.06,9,1.8,18.54,3.72,26,5.16-8.7-2.37-20.39-5.42-30.69-8.1-36.08-9.42-36.24-9.6-36.56-10.26a1,1,0,0,1-.1-.75c.36-1.29.36-1.29,40.1,7.39l21.56,4.68-11.86-3.33c-2.73-.72-5.46-1.42-8.08-2.1-30.38-7.9-33.38-8.8-34-9.4l-.07-.07c-4.77-1.4-5.41-1.75-5.67-2.16a1,1,0,0,1-.1-.75c.21-.73.3-1,6.71.47a1,1,0,0,1-.25-.27,1,1,0,0,1-.1-.76c.23-.84.35-1.25,9.68.89-6-1.69-7.18-2.31-7.43-2.69a1,1,0,0,1-.11-.76c.37-1.31.37-1.31,36.55,7.05,8,1.85,16.83,3.88,24.62,5.64-5.83-1.54-12.21-3.2-18.32-4.79-39.11-10.2-41-10.84-41.36-11.63a1,1,0,0,1-.1-.74c.22-.81.34-1.22,7.84.52a1.88,1.88,0,0,1-.18-.21,1,1,0,0,1-.09-.75c.35-1.25.35-1.25,35.23,6.82,8,1.85,17.24,4,25.48,5.86l-10.11-2.8-10.3-2.66c-31.6-8.18-35.13-9.22-35.81-9.91a.51.51,0,0,1-.12-.16,1,1,0,0,1-.1-.76,1,1,0,0,1,.46-.58.75.75,0,0,1,.24-.1.68.68,0,0,1,.58-.47c-1.06-.41-1.49-.7-1.62-.92a1.07,1.07,0,0,1-.1-.78c.35-1.21.35-1.21,33.92,5.34,13.13,2.56,29.31,5.72,40.08,7.63-6.59-1.78-15.11-4-23.08-6.06-39.69-10.34-41.78-11.19-42.27-11.93a1.05,1.05,0,0,1-.1-.76c.37-1.37.4-1.48,41,7.54l15,3.33-1.64-.46L1384.46,661c-34.94-9-38.93-10.27-39.36-11.06a1,1,0,0,1-.11-.76,1.05,1.05,0,0,1,.47-.6c.34-.19.92-.22,4.82.74,1-.69,6.26.34,42.27,7.65,7.16,1.46,14.69,3,21.24,4.29l-18.38-4.85c-38-10-42.12-11.21-42.84-11.94a.53.53,0,0,1-.1-.14,1,1,0,0,1-.11-.75c.36-1.3.36-1.3,33.44,6.79,6.48,1.58,13.8,3.37,20.69,5L1393.4,652c-32.7-8.4-35.63-9.42-36.1-10.13a1,1,0,0,1-.1-.75c.38-1.39.4-1.47,41.94,8.41l10.87,2.58-.33-.09-1.52-.4c-21-5.44-33.22-8.66-40.24-10.65-11.66-3.11-12.37-3.46-12.58-4a1,1,0,0,1-.1-.74,1,1,0,0,1,.49-.62c.4-.23,1.59-.14,5.07.68,3.72.39,14.25,2.69,44.89,9.57l14.56,3.24-9.44-2.46c-40.1-10.47-44.32-11.82-44.82-12.62a1,1,0,0,1-.1-.76c.18-.65.29-1.06,4.34-.26a.93.93,0,0,1,0-.47c.36-1.33.37-1.36,39.19,6.59,13.64,2.79,29.37,6,39.79,7.95-7.73-2.07-18.34-4.78-28.21-7.33-39-10-46.12-12-47.21-13.15a.67.67,0,0,1-.11-.14,1,1,0,0,1-.1-.77c.39-1.41.44-1.59,54.37,9.49,13.65,2.8,28.36,5.82,38.88,7.87-8.67-2.33-20.11-5.33-30.81-8.13-47.06-12.32-53.15-14.14-54-15.06a.57.57,0,0,1-.11-.12,1.07,1.07,0,0,1-.1-.77s0-.12.07-.18c-1.37-.5-1.91-.8-2.08-1.09a1,1,0,0,1-.1-.76c.19-.68.28-1,5.17.08a.33.33,0,0,1-.08-.11,1,1,0,0,1-.1-.75c.44-1.59.54-2,60.6,13.46,10.93,2.8,22.49,5.77,32.34,8.23-12.13-3.26-27-7.14-40.32-10.62-47.82-12.49-54.5-14.39-55.41-15.32a.47.47,0,0,1-.09-.12.92.92,0,0,1-.1-.74c.46-1.69.64-2.32,77.72,16.39,13.84,3.36,27.92,6.78,38.51,9.26-14.31-3.94-35.32-9.4-53.63-14.16-49.58-12.89-54.75-14.34-55.28-15.33a1,1,0,0,1-.09-.75.76.76,0,0,1,.19-.35,1.61,1.61,0,0,1-.58-.48,1.11,1.11,0,0,1-.11-.8c.48-1.73.64-2.32,76.1,17.43,14.93,3.9,30.91,8.09,42.92,11.09-14.68-4-35.63-9.42-54-14.16-49.28-12.73-54.26-14.2-54.76-15.14a1,1,0,0,1-.08-.76c.41-1.56.51-1.92,70.27,13.91,19.61,4.45,41,9.3,53.48,11.89-13-3.68-36.13-9.61-57.31-15.06-50.39-13-61.94-16.11-63.28-17.47a.94.94,0,0,1-.09-.12,1.09,1.09,0,0,1-.1-.77c.42-1.56.49-1.8,66.59,15.7,21.63,5.72,46.85,12.39,61.72,16-16.64-4.77-46.91-12.57-70.93-18.77-49.07-12.65-53.89-14-54.48-15a1,1,0,0,1-.1-.75c.41-1.5.45-1.69,66.67,15,20.47,5.17,44,11.13,59.72,14.85-14.81-4.06-36.92-9.83-57.37-15.17-59-15.42-66.92-17.68-67.56-18.76a1,1,0,0,1-.09-.76c.45-1.62.57-2.06,76.49,16.28,18.56,4.5,38.66,9.36,51.92,12.36-13.2-3.61-33.43-8.81-52.12-13.61-55.54-14.25-69.69-18.16-71.23-19.71a.64.64,0,0,1-.1-.13,1,1,0,0,1-.1-.79c.23-.89.38-1.41,11.93,1.37-10.78-3-15.64-4.66-16.48-5.51l-.09-.12a1.17,1.17,0,0,1-.11-.8c.44-1.6.56-2,80.73,17.09,21.13,5,44.12,10.52,58.14,13.63-13.52-3.75-35.67-9.39-56-14.61-54.21-13.84-72.18-18.65-74-20.45a.36.36,0,0,1-.11-.14,1.11,1.11,0,0,1-.11-.8c.53-1.93,4.9-1.54,93,19.5,15.33,3.67,31,7.39,42.36,10-15.41-4.23-39.11-10.38-61-16.05-64.75-16.78-78.75-20.74-79.45-22.06a1.13,1.13,0,0,1-.1-.79c.45-1.64.58-2.14,80.62,16.77,26.27,6.21,55.08,13,69.87,16.06-14.34-4.1-42.42-11.38-68-18-61.72-16-76.45-20.07-77.88-21.53a.39.39,0,0,1-.09-.11,1,1,0,0,1-.1-.78c.55-2,5.23-1.48,99.79,22.78,17.69,4.53,35.72,9.17,48.24,12.25-18.55-5.23-50.1-13.37-77.19-20.36-61.49-15.86-75.38-19.67-76.79-21.1l-.1-.11a1,1,0,0,1-.09-.78c.42-1.56.5-1.83,80.38,19.06,21.93,5.74,45.45,11.9,63,16.3-6.92-1.89-15.89-4.36-27.44-7.59-9.25-2.38-18.89-4.84-28.22-7.22-60.37-15.38-80.35-20.71-82.29-22.67l-.1-.14a1.1,1.1,0,0,1-.11-.81,1,1,0,0,1,.31-.5,1.13,1.13,0,0,1,0-.6c.11-.42.21-.76,1.43-.72-4.12-1.26-5.64-1.93-5.81-2.3a1,1,0,0,1-.1-.77c.39-1.44.45-1.63,56.24,11.59,2.56.6,5.14,1.22,7.69,1.81l-9.8-2.53c-41.82-10.81-47.71-12.62-48.31-13.54a1,1,0,0,1-.13-.54c-5.8-1.64-6.49-2-6.62-2.37a1,1,0,0,1-.1-.74c.36-1.33.39-1.42,43.91,6.39,9.66,1.73,20,3.58,27.9,4.94-5.67-1.49-12.54-3.27-19.32-5-38-9.8-44.87-11.8-45.89-12.84a.3.3,0,0,1-.11-.14,1,1,0,0,1-.1-.75c.36-1.35.36-1.35,34.44,6.52,8.33,1.93,17.59,4.07,25.46,5.83-7.49-2-16.24-4.28-24.14-6.35-35.36-9.21-35.49-9.32-35.87-10.07a1,1,0,0,1-.1-.73c.38-1.37.4-1.42,35.36,6.62l7.57,1.74-5.88-1.5c-31-7.91-36.56-9.52-37.49-10.46a.68.68,0,0,1-.12-.13,1.06,1.06,0,0,1-.1-.78c.18-.68.29-1.07,5.42,0a.84.84,0,0,1-.52-.43,1,1,0,0,1-.1-.75c.33-1.21.33-1.21,30.75,3.92,9.74,1.65,20.87,3.53,28.74,4.74-6.13-1.65-14.26-3.76-21.84-5.72-30.46-7.9-31.86-8.35-32.17-9.1a.94.94,0,0,1-.09-.75c.11-.43.2-.75,1.37-.69-.93-.37-1.3-.56-1.42-.85a1,1,0,0,1-.1-.77c.36-1.31.38-1.39,36,5.82,7.44,1.5,15.77,3.19,22.55,4.51-7.7-2.07-17.6-4.64-26.39-6.91-30.92-8-31.07-8.14-31.47-8.84a1,1,0,0,1-.09-.74c.29-1.15.29-1.15,30.41,4,10,1.7,22.09,3.78,30.63,5.12-7-1.9-16.56-4.39-25-6.58-30.84-8.05-31-8.21-31.3-8.84a1,1,0,0,1-.09-.75c.36-1.33.38-1.41,37,6.37,6.26,1.34,13.11,2.8,19.25,4.07l-13.82-3.62c-33.95-8.83-35.57-9.35-35.86-10.13a1,1,0,0,1-.11-.74c.36-1.31.37-1.33,33.13,5.46,4.33.88,9,1.85,13.41,2.76l-3.56-.92c-27.71-7.08-31.76-8.32-32.56-9.13a.61.61,0,0,1-.12-.16,1.05,1.05,0,0,1-.11-.76c.35-1.26.36-1.3,29.2,5.35-23.25-6-23.15-6.14-23.45-6.7a1,1,0,0,1-.1-.75c.34-1.23.34-1.23,35.34,4.95,6.53,1.16,13.47,2.37,19.25,3.37-6.57-1.77-14.66-3.89-21.9-5.78-29.2-7.65-29.44-7.82-29.83-8.44a1,1,0,0,1-.1-.75c.32-1.09.36-1.28,20.72,3.26-9-2.39-10.43-2.93-10.74-3.58a1,1,0,0,1-.1-.76c.36-1.3.38-1.34,28.74,4.18,3.5.69,7.27,1.43,10.87,2.12l-5.59-1.44c-25.14-6.45-26.44-7-26.94-7.68a1,1,0,0,1-.1-.76c.17-.6.25-.89,3.47-.29-3.24-1-3.58-1.23-3.84-1.6a1,1,0,0,1-.09-.75c.25-.95.33-1.21,10.39,1.14-.07,0-.09-.1-.14-.14-6.29-1.72-6.37-1.9-6.56-2.26a1,1,0,0,1-.09-.75c.28-1,.28-1,22.5,1,4.76.45,9.89.92,13.52,1.22l.12-.07.42.12h0l-.44-.12.43-.85c.24.1,1.67.46,2.6.7,2.39.61,2.4.57,2.63,1a.9.9,0,0,1,.08.7c-.24,1-.24,1-19.56-.82-4.2-.39-8.88-.82-12.79-1.16,1.9.43,5.33,1.33,11.72,3.11,1.06.29,2.14.56,3.19.84,24,6.29,24,6.38,24.3,6.95h0c.62.26.7.4.8.58a1,1,0,0,1,.1.76c-.19.71-.27,1-4.8.08,2.35.71,2.59,1,2.77,1.23a1,1,0,0,1,.09.75c-.17.65-.26,1-4.2.17,3.65,1,3.79,1.21,4,1.57a1,1,0,0,1,.11.74c-.36,1.29-.38,1.37-29.35-4.28-4.31-.85-9-1.76-13.28-2.57,4.81,1.26,10.18,2.62,14.85,3.81,20.9,5.34,21,5.44,21.38,6.08a1,1,0,0,1,.1.75c-.31,1.18-.31,1.18-28.07-5l-2-.45c34.34,9,34.55,9.18,34.93,9.92a1,1,0,0,1,.09.74c-.33,1.2-.33,1.2-34.06-4.75-6.54-1.15-13.48-2.37-19.35-3.38l10.61,2.74c29.94,7.71,31.35,8.35,31.82,9a1.06,1.06,0,0,1,.11.76c-.35,1.28-.37,1.32-29.58-5.42,23.23,6,23.46,6.14,23.82,6.76a1.11,1.11,0,0,1,.1.76c-.37,1.31-.38,1.39-35.63-5.91l-13.48-2.79c5.51,1.46,11.6,3.05,17.19,4.51,32.38,8.42,32.57,8.55,32.93,9.29a1,1,0,0,1,.09.75c-.36,1.34-.4,1.49-39.32-6.79-5-1.06-10.13-2.16-14.94-3.16l10.24,2.67c34.09,8.9,35.66,9.46,36,10.19a1,1,0,0,1,.1.75c-.36,1.32-.39,1.46-42.6-5.76-5.19-.89-10.45-1.79-15-2.56,5.2,1.37,11.26,2.94,17,4.42,36.45,9.42,39.77,10.45,40.37,11.41a1.14,1.14,0,0,1,.1.77c-.37,1.33-.4,1.43-37.5-6.08-7-1.39-14.31-2.88-20.45-4.09,6.39,1.69,14.12,3.68,21,5.44,27.28,7,28.44,7.41,28.93,8.14a1,1,0,0,1,.1.75c-.14.51-.22.81-2,.55,1.73.57,2,.78,2.14,1.05a.92.92,0,0,1,.1.74c-.36,1.33-.4,1.51-40.33-5.24-5.67-1-11.65-2-16.74-2.79,6.23,1.67,14,3.69,21.29,5.6,35.5,9.28,37.12,9.8,37.4,10.56a1,1,0,0,1,.11.75c-.19.69-.28,1-5.89-.29a2.65,2.65,0,0,1,1.24.75,1,1,0,0,1,.09.76c-.36,1.36-.39,1.47-37.14-7l-3-.7,4.48,1.18c38.35,10,42.76,11.25,43.26,12.19a1,1,0,0,1,.1.75c-.4,1.44-.48,1.7-45.59-8.73l-8.55-2c7,1.83,14.5,3.78,21.12,5.5,32.57,8.41,32.73,8.59,33.07,9.24a1,1,0,0,1,.1.75c-.36,1.33-.37,1.38-42.55-6.19-10.67-1.91-22.13-4-30.47-5.38,8.38,2.26,20.06,5.32,30.91,8.16C1497,556.49,1502.2,558,1502.77,559a1.32,1.32,0,0,1,.13.44c4.58,1.32,5.64,1.78,5.9,2.25a1,1,0,0,1,.1.75c-.36,1.36-.36,1.36-44.52-9.09-12.45-3-26.53-6.29-37.29-8.74,16.34,4.51,41.93,11.22,65.56,17.42,67.8,17.76,81.69,21.61,82.45,22.88a1,1,0,0,1,.11.76c-.15.54-.26.91-3.25.37a6,6,0,0,1,1.94,1.06,1.16,1.16,0,0,1,.1.28c3.25,1.07,4.8,1.78,5.1,2.3a1.14,1.14,0,0,1,.11.81c-.32,1.18-.48,1.75-32-6.25,22.47,6,31.41,8.87,32,10a1.15,1.15,0,0,1,.11.81c-.41,1.52-.46,1.67-66.23-15.2-30.57-7.85-69.81-17.91-88-21.88,14.33,4.09,42,11.28,67.27,17.84,62.15,16.12,77,20.21,78.42,21.68a.44.44,0,0,1,.09.11,1,1,0,0,1,.1.77c-.46,1.69-.6,2.19-81.38-16.9-26-6.16-54.63-12.91-69.26-15.93,14.43,4.14,43,11.55,69.1,18.31,62.19,16.11,77.05,20.21,78.52,21.7a.44.44,0,0,1,.09.11,1.07,1.07,0,0,1,.11.78c-.41,1.47-.44,1.6-61-12.86-30.08-7.19-69.19-16.53-84.67-19.42,12.42,3.73,40.93,11,66.77,17.62,51.85,13.25,68,17.57,69.62,19.2a1.13,1.13,0,0,1,.1.13,1.09,1.09,0,0,1,.11.79c-.43,1.54-.5,1.81-72.85-15.45-26.21-6.24-55-13.11-69.59-16.18,14.87,4.33,45.12,12.12,70.72,18.72,53.73,13.85,65.93,17.19,67.24,18.51l.09.1a1,1,0,0,1,.09.78c-.26,1-.42,1.55-14.56-1.87,7.17,2.06,9.55,3,9.91,3.59a1.07,1.07,0,0,1,.11.78c-.42,1.55-.5,1.83-68.37-14.57-20.59-5-44.4-10.73-59.57-14.12,13.23,3.62,33.2,8.83,51.66,13.66,59.87,15.63,74.13,19.57,75.48,20.94a.76.76,0,0,1,.08.11,1,1,0,0,1,.09.77c-.4,1.51-.52,2-63.5-13.91,40.12,10.44,56,14.91,57.6,16.57a.53.53,0,0,1,.1.12,1.15,1.15,0,0,1,.11.81c-.25.93-.4,1.46-14.39-1.91,3.16,1,4.37,1.62,4.69,2.05a1.14,1.14,0,0,1,.1.79c-.41,1.53-.49,1.81-65.78-13-19.53-4.43-40.7-9.25-54.33-12.1,10.42,2.79,25.24,6.63,39.79,10.39,56.75,14.65,71.94,18.87,73.5,20.45a.58.58,0,0,1,.11.13,1.14,1.14,0,0,1,.1.79c-.43,1.56-.52,1.89-63.62-14.62-22.59-5.92-49.1-12.85-63.62-16.21,8.24,2.09,22.15,5.89,45.22,12.31,8.69,2.26,17.45,4.51,25.48,6.59,46.85,12.09,49.09,12.72,49.53,13.63a1,1,0,0,1,.1.74,1.06,1.06,0,0,1-.48.62c-.33.18-1.39.11-3.86-.42a.29.29,0,0,1,0,.1c-.41,1.48-.45,1.67-57.42-12.16-21.64-5.26-46.8-11.37-62.09-14.71,10.82,2.94,26.42,7,40.89,10.8,54.9,14.34,64.45,17.06,65.61,18.24a.42.42,0,0,1,.08.12,1,1,0,0,1,.1.76c-.36,1.32-.48,1.76-34.83-6.94,17,4.56,22.06,6.3,22.48,7.09a1.07,1.07,0,0,1,.11.78c-.17.61-.3,1.06-4,.4a1.21,1.21,0,0,1,0,.68c-.18.61-.27,1-4.81,0a.66.66,0,0,1,0,.15c-.38,1.42-.43,1.61-54.93-9.58-14.83-3.05-30.9-6.35-41.39-8.35,9.42,2.57,23.25,6.12,35.3,9.21,34.21,8.77,39.35,10.25,40.21,11.13a.5.5,0,0,1,.1.13,1,1,0,0,1,.11.76c-.4,1.44-.49,1.79-52.85-8.93-8.14-1.67-16.4-3.36-23.12-4.69,7,1.86,15.67,4,23.4,6,31.57,8,34.92,9,35.34,9.94a1,1,0,0,1,.11.77c-.08.27-.13.48-.42.59,3.58,1,3.66,1.19,3.85,1.55a1,1,0,0,1,.09.73c-.36,1.36-.37,1.38-43-8.18l-15.63-3.5,15.09,4.34c13.43,3.51,22,5.8,27.48,7.33,9.39,2.52,9.63,2.69,9.92,3.2a1,1,0,0,1,.09.73,1,1,0,0,1-.46.6,1,1,0,0,1-.55.12c-1.35.51-7.67-.92-42.51-9.2l-1.07-.26c29.89,7.69,35.35,9.3,36.25,10.22a.38.38,0,0,1,.1.13,1,1,0,0,1,.11.77c-.34,1.21-.45,1.62-28-5,26.15,6.9,26.43,7.18,26.84,7.72a1.06,1.06,0,0,1,.1.76c-.35,1.31-.36,1.33-40.86-6.9-8.77-1.78-18.09-3.67-25.65-5.15,2.6.72,5.54,1.52,8.84,2.45,6.71,1.77,14,3.65,20.73,5.4,33.89,8.77,35.15,9.11,35.56,10a1,1,0,0,1-.38,1.33c-.41.25-1.64.13-6.9-1.2-1.18.56-6.67-.62-38-7.58-6.62-1.47-13.87-3.09-20.35-4.49,7.09,1.89,15.22,4,22.61,5.93,34.88,9.1,35,9.26,35.44,10a1,1,0,0,1,.08.74c-.38,1.43-.48,1.77-53.37-8.55-6.74-1.32-13.59-2.66-19.26-3.74,9.54,2.61,22.75,6,33.63,8.82,33.57,8.64,33.49,8.74,33.84,9.45a1,1,0,0,1,.09.75c-.18.66-.28,1.05-4.14.28,2.34.74,3.07,1.15,3.27,1.46a1.06,1.06,0,0,1,.1.78c-.39,1.38-.45,1.61-48.41-9.48.85.22,1.69.45,2.52.65,36.49,9.49,38.37,10.15,38.68,10.9a.91.91,0,0,1,.1.75c-.17.64-.27,1-4,.26,1.18.41,1.42.65,1.52.84a.94.94,0,0,1,.1.75c-.37,1.41-.44,1.63-48.24-9.41l-5.86-1.34,13.2,3.42c36.72,9.49,38.38,10.14,39,10.92a1,1,0,0,1,.1.75c-.33,1.16-.37,1.34-23.31-4.41,15.34,4,15.61,4.27,15.86,4.79a1,1,0,0,1,.11.75c-.15.52-.24.86-2.54.5,1.15.4,1.3.55,1.41.78s.07.16.1.23a1.81,1.81,0,0,1,.67.5,1,1,0,0,1,.08.76c-.36,1.35-.38,1.42-45.59-8.45L1340.29,687c3.6.95,7.31,1.92,10.91,2.85,39.87,10.41,44.09,11.76,44.57,12.55a1,1,0,0,1,.1.77c-.37,1.35-.4,1.46-40.84-6.67-13-2.61-28.11-5.64-37.83-7.39,7.78,2.11,19.07,5,29.52,7.65,36.14,9.19,41,10.72,41.57,11.66a1,1,0,0,1,.1.78c-.38,1.42-.45,1.68-46.68-7.88-8-1.65-16.42-3.39-23.46-4.8,6.4,1.7,14,3.67,21.09,5.53,40.41,10.53,42.48,11.38,43,12.1a1.06,1.06,0,0,1,.1.76c-.36,1.34-.36,1.34-40.73-7.91l-18-4.11c6.09,1.59,12.67,3.27,18.74,4.82,32.56,8.35,33.83,9,34.3,9.61a1,1,0,0,1,.1.77c-.2.73-.29,1.07-5.71-.13,6.69,1.84,7.92,2.39,8.15,2.84a1,1,0,0,1,.11.75c-.36,1.26-.36,1.26-34.51-6.07-12.15-2.61-27.07-5.81-37.25-7.83,8.84,2.4,21.36,5.62,32.31,8.43,32.74,8.39,34.2,8.94,34.7,9.7a1,1,0,0,1,.1.76,1,1,0,0,1-.46.58c-.17.1-.37.15-1,.09a1,1,0,0,1,0,.34c-.38,1.37-.44,1.59-48.06-8.41l-13.39-2.8c5.16,1.37,10.71,2.81,15.83,4.15,34.57,9,34.72,9.17,35.14,9.91a1,1,0,0,1,.09.74c-.19.71-.29,1.08-5.55-.07,1.76.57,1.86.71,2,1a.93.93,0,0,1,.1.73c-.36,1.29-.36,1.29-33-6.59-5-1.2-10.55-2.54-16-3.82l14.32,3.69c34.23,8.81,37.7,9.86,38.27,10.74a1,1,0,0,1,.09.75,1,1,0,0,1-.48.61c-.32.19-1.07.19-3.21-.26-.33.86-1.64.84-17.57-3,15.39,4.11,18.42,5.12,18.83,5.86a1,1,0,0,1,.1.76c-.38,1.41-.42,1.55-45.65-8.55-7.57-1.69-15.54-3.46-22.58-5l4.1,1.12L1308,732c35.5,9.08,42,11,43.08,12a.45.45,0,0,1,.11.14,1,1,0,0,1,.1.78,1,1,0,0,1-.46.58c-.16.1-.29.17-.85.1-.41,1.2-2.36,1-43-7.73-4.81-1-9.81-2.1-14.51-3.09l8.74,2.24c34.78,8.93,41.22,10.79,42.25,11.83a.6.6,0,0,1,.11.14,1,1,0,0,1,.1.79c-.23.85-.34,1.23-9.57-.94,12.48,3.36,13.37,3.8,13.69,4.3a1,1,0,0,1,.1.75c-.37,1.34-.38,1.39-47.3-9.07l-14.57-3.24c4.42,1.16,9,2.35,13.46,3.5,36.59,9.53,40.74,10.79,41.49,11.55a.42.42,0,0,1,.11.16,1,1,0,0,1,.1.76c-.35,1.32-.39,1.43-45.9-7.44-9.82-1.91-20.28-4-28.52-5.5,5.75,1.52,12.54,3.28,19.24,5,40.24,10.44,45.63,12.16,46.19,13a1,1,0,0,1,.1.76c-.28,1-.36,1.3-16-2.45,16.14,4.31,16.3,4.5,16.59,5.06a.91.91,0,0,1,.09.74c-.34,1.29-.35,1.31-41.11-6.39-9.32-1.76-19.27-3.64-27.08-5,5.7,1.5,12.44,3.24,18.81,4.87,35,9,39.75,10.47,40.2,11.35a1,1,0,0,1,.11.77c-.37,1.36-.41,1.51-45-6.73-10.4-1.92-21.57-4-29.77-5.41,7.36,2,17.09,4.51,26.19,6.88,37,9.65,42.48,11.23,43.35,12.11a.6.6,0,0,1,.11.12,1,1,0,0,1,.09.75c-.35,1.31-.35,1.31-37.1-6.09-10.15-2.05-21.59-4.35-30.46-6.05,5.81,1.55,12.66,3.33,19.13,5,37.6,9.79,39.58,10.45,39.89,11.25a.91.91,0,0,1,.1.75c-.14.52-.24.88-2.35.59a.87.87,0,0,1,0,.36c-.14.52-.24.87-2.27.61,2.09.65,2.2.81,2.36,1.11a1,1,0,0,1,.09.75c-.37,1.3-.39,1.36-38.91-6.17-12.55-2.46-27-5.29-36.65-7,7.5,2,17.91,4.69,27.58,7.17,36.15,9.25,42.81,11.17,43.84,12.22a.45.45,0,0,1,.11.14,1,1,0,0,1,.1.78c-.39,1.43-.47,1.72-46.34-7.63-11.72-2.39-24.37-5-33.15-6.61,8.79,2.41,21.46,5.71,32.51,8.59,34.39,9,34.53,9.11,34.84,9.78a1,1,0,0,1,.09.75c-.36,1.33-.38,1.41-39.9-6.83-10.3-2.15-22-4.59-30.65-6.3,8.28,2.24,19.46,5.09,29.32,7.61,34.51,8.82,38.48,10,39,10.94a1.06,1.06,0,0,1,.11.78c-.29,1.06-.39,1.41-17.82-2.87,11.26,3,11.36,3.13,11.62,3.64a1,1,0,0,1,.09.74c-.39,1.4-.43,1.55-45.68-9.11l-.28-.08,11.4,3c33.69,8.74,33.86,8.9,34.18,9.57a1,1,0,0,1,.09.75c-.38,1.39-.45,1.64-43-6.95-8.73-1.77-18.07-3.66-25.21-5,8.34,2.27,19.84,5.22,29.94,7.82,32.3,8.3,33.9,8.83,34.24,9.6a1,1,0,0,1,.1.76c-.34,1.3-.34,1.3-40.37-6.6-10-2-21.48-4.24-29.88-5.82,9.84,2.71,24.16,6.41,35.85,9.44,30.59,7.9,30.62,8,30.93,8.63a1,1,0,0,1,.09.74c-.38,1.42-.44,1.6-47.17-9.34l-10.89-2.54,10,2.55c32.75,8.34,36.19,9.5,36.76,10.32a1,1,0,0,1,.11.77c-.15.5-.23.84-2.27.57,1.25.44,1.5.7,1.62.89a1.06,1.06,0,0,1,.1.76c-.25.89-.36,1.3-10-1,7.31,2,7.4,2.2,7.59,2.57a1.05,1.05,0,0,1,.09.74c-.13.45-.2.76-1.53.62a.73.73,0,0,1,0,.33c-.34,1.26-.37,1.37-32.17-6.24,24.59,6.44,28.79,7.86,29.31,8.62a1,1,0,0,1,.11.77c-.38,1.38-.44,1.59-40.56-6.93-7.82-1.65-16.12-3.41-22.88-4.79,6.55,1.71,14.51,3.71,21.64,5.51,29.18,7.34,34.52,8.87,35.48,9.85a.81.81,0,0,1,.13.15,1.09,1.09,0,0,1,.1.79c-.34,1.2-.34,1.2-33.68-5.29-11.15-2.17-24.58-4.78-34.71-6.62,3.48,1,7.82,2.17,13.22,3.7l8.27,2.16c41.72,10.89,47.29,12.56,48.17,13.46a.63.63,0,0,1,.11.13,1.08,1.08,0,0,1,.09.77,1.06,1.06,0,0,1-.47.59c-.45.26-1.64.16-6.76-1.17-2.14.14-9.56-1.15-37.12-5.91-7.92-1.38-16.35-2.83-23.15-4l20.34,5.39c39.19,10.34,39.64,10.55,40.05,11.31a1,1,0,0,1,.09.75c-.2.75-.29,1.08-6.49-.33,0,0,0,0,0,0a1,1,0,0,1,.11.76c-.12.44-.2.74-1.22.7,1.66.51,1.71.64,1.85.89a.92.92,0,0,1,.09.74,1,1,0,0,1-.46.59c-.32.18-.52.3-4.42-.71-1,.37-4.7-.38-20.19-3.85,15.17,4,15.27,4.08,15.58,4.64a1.05,1.05,0,0,1,.1.74c-.35,1.25-.35,1.25-25.52-3.49l-.67-.12,2.13.55c20.31,5.32,20.25,5.42,20.56,5.92a.92.92,0,0,1,.09.74c-.24,1-.24,1-14.46.42l-6.38-.25c1.63.43,3.39.89,5,1.3,11.28,2.92,11.28,3,11.55,3.44a.92.92,0,0,1,.09.74c-.26.94-.26.94-9.91-.45l-1.74-.25a.39.39,0,0,1,0,.15c6.51,1.76,6.53,1.78,6.28,2.7a1,1,0,0,1-1.16.68l-.14,0c-.43-.14-3.3-.92-5.85-1.6-3.62-1-5.59-1.51-6.62-1.89l-.19,0v0c-.82-.32-1-.53-.94-.82-1.3-.36-1.37-.46-1.51-.74a.91.91,0,0,1-.09-.72c.23-.83.27-1,6.62-.1-9.57-2.49-9.55-2.6-9.29-3.57s.27-1,14.32-.43l6.83.26c-3.83-1-8.87-2.35-13.58-3.58C1190.13,853.7,1186.24,852.68,1185.48,851.91ZM1462.4,596.13c-9.91-2.62-19.55-5.16-27.72-7.25C1442.79,591.05,1452.41,593.55,1462.4,596.13Zm64.75,15.11c-6.73-1.77-14.34-3.74-22.27-5.8C1512.8,607.53,1520.4,609.52,1527.15,611.24Z" transform="translate(-277.36 -2.9)"/><path class="cls-1" d="M388.82,410.68c-56.19,0-99.95-36.3-111.46-92.5l38.88-10.91c4.55,32,28.93,66.4,71.64,66.4,35.36,0,73.52-26.66,73.52-69.73,0-41-32.65-55.93-64.21-70.36l-23.51-10.26c-49.19-22.34-77.83-44.54-77.83-91.55,0-51.93,43-91.08,100.09-91.08,39.7,0,73.43,20.23,92.5,55.5l-31.79,20.4C440.7,89,422.84,77.69,395,77.69c-29.13,0-59.29,20.76-59.29,55.49,0,30.74,32.23,45.27,55.76,55.88l23.94,10.54c54.38,23.85,85.85,48,85.85,100.55C501.24,362.13,451.86,410.68,388.82,410.68Z" transform="translate(-277.36 -2.9)"/><path class="cls-1" d="M742.68,404.51V278.81c0-37.37-3.55-68.3-46.95-68.3-51.22,0-55.52,45.54-55.52,88.23V404.51h-38V13.18h38V166.73a19.42,19.42,0,0,0,28.57,17.14c10.55-5.63,22.64-8.47,36-8.47,32.59,0,75.88,10,75.88,96.77V404.51Z" transform="translate(-277.36 -2.9)"/><path class="cls-1" d="M902.52,404.51V181.56h37.94v223Zm19-279.86a27,27,0,1,1,27-27A27.07,27.07,0,0,1,921.5,124.65Z" transform="translate(-277.36 -2.9)"/><path class="cls-1" d="M1176.21,410.68a99.33,99.33,0,0,1-50.81-13.54,19.45,19.45,0,0,0-10-2.75,19.57,19.57,0,0,0-17,10.1l-37.94,0V13.18h37.94v158.3a19.42,19.42,0,0,0,29.2,16.79,95.72,95.72,0,0,1,48.14-12.87c62.12,0,107.2,49.47,107.2,117.64C1283,360.11,1237.06,410.68,1176.21,410.68Zm-7.11-200.17c-47.13,0-72.58,41.31-72.58,80.16,0,42.19,25.09,84.91,73,84.91,51.43,0,74.48-42.41,74.48-84.44C1244.05,252.31,1220.58,210.51,1169.1,210.51Z" transform="translate(-277.36 -2.9)"/><path class="cls-1" d="M1466.5,410.68c-60.83,0-106.71-50.37-106.71-117.16,0-68.45,45.08-118.12,107.2-118.12a95,95,0,0,1,49.74,14.06,19.44,19.44,0,0,0,27.55-7.87l38,0v223h-38a19.47,19.47,0,0,0-27.17-7.34C1502.37,406.14,1485.33,410.68,1466.5,410.68Zm4.75-200.17c-47.13,0-72.58,41.31-72.58,80.16,0,42.19,25.09,84.91,73,84.91,51.44,0,74.48-42.41,74.48-84.44C1546.2,252.31,1522.73,210.51,1471.25,210.51Z" transform="translate(-277.36 -2.9)"/><path class="cls-1" d="M369.87,801.32v-311H310.63V867.43H468.55V811H379.6A9.75,9.75,0,0,1,369.87,801.32Z" transform="translate(-277.36 -2.9)"/><path class="cls-1" d="M697.75,630.48a9.75,9.75,0,0,1-6.09,5,9,9,0,0,1-2.59.38A9.78,9.78,0,0,1,684,634.4a104.86,104.86,0,0,0-54.82-15.48c-67.75,0-116.91,53.76-116.91,127.81,0,72.34,50,126.88,116.42,126.88,20.63,0,39.36-5,55.67-14.92a9.71,9.71,0,0,1,5-1.41,10.39,10.39,0,0,1,2.56.34,9.87,9.87,0,0,1,6,4.75l2.76,5.06h53.4V625.06l-53.69,0Zm.91,113.89c0,34.46-17,74.72-64.78,74.72-41.57,0-63.34-37.85-63.34-75.21,0-34.15,22-70.44,62.88-70.44C678.47,673.44,698.66,709.06,698.66,744.37Z" transform="translate(-277.36 -2.9)"/><path class="cls-1" d="M970.68,618.92a105.37,105.37,0,0,0-53,14.19,9.68,9.68,0,0,1-4.87,1.31,9.54,9.54,0,0,1-4.84-1.31,9.72,9.72,0,0,1-4.88-8.41v-168H845.7V867.45l53.38,0,2.76-5a9.93,9.93,0,0,1,6-4.73,9.37,9.37,0,0,1,2.5-.33,9.85,9.85,0,0,1,5,1.38,109.06,109.06,0,0,0,55.79,14.9c66.38,0,116.43-54.74,116.43-127.35C1087.58,672.48,1038.42,618.92,970.68,618.92Zm58.6,125.45c0,34.46-17,74.72-64.78,74.72-41.58,0-63.35-37.85-63.35-75.21,0-34.15,22-70.44,62.88-70.44C1009.09,673.44,1029.28,709.06,1029.28,744.37Z" transform="translate(-277.36 -2.9)"/><path class="cls-1" d="M1672.64,12.38h-22.11v57h-9.48v-57h-22.27V2.9h53.86Zm83.4,57h-9.48v-57h-.32l-22.74,57h-6.16l-22.12-57h-.31v57h-9.48V2.9h16l19.11,47.85L1740.23,2.9H1756Z" transform="translate(-277.36 -2.9)"/><path class="cls-1" d="M314.88,949.4l31.7,73.23,31.83-73.23,17.69,92.21h-10l-11.22-59h-.22l-28.13,62.61-28-62.61h-.24l-11.22,59h-9.95Z" transform="translate(-277.36 -2.9)"/><path class="cls-1" d="M458.64,1041.61h-9.25v-7.52h-.25a22.82,22.82,0,0,1-18.74,9c-16,0-26-13.54-26-28.57,0-15.5,9.84-28.82,26.14-28.82A23.52,23.52,0,0,1,449.14,995h.25v-7.74h9.25Zm-44.79-27.77c0,10.64,6.25,20.72,17.82,20.72,11.92,0,18.16-9.61,18.16-20.61s-6.82-19.67-18.27-19.67C420.79,994.28,413.85,1003.64,413.85,1013.84Z" transform="translate(-277.36 -2.9)"/><path class="cls-1" d="M486.3,1007.35l19.81-20.12h12.38l-23.27,23.13,27.66,31.25H510.61l-21.88-24.76-2.43,2.43v22.33h-9.23V946.14h9.23Z" transform="translate(-277.36 -2.9)"/><path class="cls-1" d="M546.62,966.75a6.6,6.6,0,0,1-13.19,0,6.6,6.6,0,1,1,13.19,0Zm-2,74.86H535.4V987.23h9.25Z" transform="translate(-277.36 -2.9)"/><path class="cls-1" d="M575,993.83h.24c3.82-5.22,8.79-8.12,15.51-8.12,15,0,18.51,10.88,18.51,23.62v32.28H600v-30.67c0-8.79-.69-16.66-11.46-16.66-12.72,0-13.54,11.79-13.54,21.52v25.81h-9.26V987.23H575Z" transform="translate(-277.36 -2.9)"/><path class="cls-1" d="M677.66,1039c0,8.68,0,16.2-5.55,23.38-5.09,6.47-13,9.59-21.06,9.59-15.17,0-26.39-9.59-26.74-25h9.25c.14,10.06,7.41,16.42,17.36,16.42,14.36,0,17.49-10.53,17.49-22.8v-6.47h-.25a24,24,0,0,1-18.85,9c-15.86,0-25.92-13.29-25.92-28.46s10.17-28.93,26.26-28.93A22.64,22.64,0,0,1,668.16,995h.25v-7.74h9.25Zm-44.79-25.11c0,10.64,6.25,20.72,17.82,20.72,11.92,0,18.16-9.61,18.16-20.61s-6.82-19.67-18.27-19.67C639.81,994.28,632.87,1003.64,632.87,1013.84Z" transform="translate(-277.36 -2.9)"/><path class="cls-1" d="M740.07,984l21.64,21.64L783.24,984l6.46,6.36L768.07,1012l21.63,21.63-6.46,6.36-21.53-21.64L740.07,1040l-6.38-6.36L755.33,1012l-21.64-21.64Z" transform="translate(-277.36 -2.9)"/><path class="cls-1" d="M911.83,973.46a37.32,37.32,0,0,0-26.61-11.57C865.77,961.89,850,978.77,850,998s15.86,36.11,35.4,36.11c9.84,0,19.45-4.64,26.39-11.58v12a45,45,0,0,1-26,8.54c-24.65,0-45.48-20-45.48-44.77a45.63,45.63,0,0,1,45.48-45.48,42.12,42.12,0,0,1,26,8.57Z" transform="translate(-277.36 -2.9)"/><path class="cls-1" d="M938.84,993.12h.22c3.24-4.29,6-7.41,12-7.41a16.37,16.37,0,0,1,8.34,2.56l-4.4,8.44c-1.85-1.27-3.12-2.43-5.55-2.43-10.19,0-10.64,13.07-10.64,20.14v27.19h-9.28V987.23h9.28Z" transform="translate(-277.36 -2.9)"/><path class="cls-1" d="M975.2,1016.38c.11,10.06,7.29,18.18,17.82,18.18,7.85,0,13-4.75,16.53-11.24l7.87,4.53c-5.19,9.7-14,15.25-25.09,15.25-16.22,0-26.63-12.38-26.63-28,0-16.08,9.39-29.4,26.38-29.4,17.47,0,26.73,14.48,25.81,30.67Zm33-7.87c-1.27-7.86-7.88-14.23-16-14.23a17.21,17.21,0,0,0-16.56,14.23Z" transform="translate(-277.36 -2.9)"/><path class="cls-1" d="M1082,1041.61h-9.26v-7.52h-.24a22.82,22.82,0,0,1-18.74,9c-16,0-26-13.54-26-28.57,0-15.5,9.84-28.82,26.14-28.82a23.52,23.52,0,0,1,18.63,9.26h.24v-7.74H1082Zm-44.79-27.77c0,10.64,6.25,20.72,17.82,20.72,11.91,0,18.16-9.61,18.16-20.61s-6.83-19.67-18.27-19.67C1044.17,994.28,1037.23,1003.64,1037.23,1013.84Z" transform="translate(-277.36 -2.9)"/><path class="cls-1" d="M1110.64,1041.61h-9.26V995.79h-5.66v-8.56h5.66V967.66h9.26v19.57h9.72v8.56h-9.72Z" transform="translate(-277.36 -2.9)"/><path class="cls-1" d="M1143.38,966.75a6.59,6.59,0,0,1-13.18,0,6.59,6.59,0,1,1,13.18,0Zm-2,74.86h-9.26V987.23h9.26Z" transform="translate(-277.36 -2.9)"/><path class="cls-1" d="M1180.55,1023.79l16.21-36.56h10.42l-26.63,58-26.73-58h10.53Z" transform="translate(-277.36 -2.9)"/><path class="cls-1" d="M1222.46,1016.38c.11,10.06,7.29,18.18,17.82,18.18,7.85,0,13-4.75,16.53-11.24l7.87,4.53c-5.19,9.7-14,15.25-25.11,15.25-16.2,0-26.61-12.38-26.61-28,0-16.08,9.39-29.4,26.38-29.4,17.47,0,26.73,14.48,25.81,30.67Zm33-7.87c-1.28-7.86-7.88-14.23-16-14.23a17.15,17.15,0,0,0-16.52,14.23Z" transform="translate(-277.36 -2.9)"/><path class="cls-1" d="M1322.25,984l21.64,21.64L1365.42,984l6.46,6.36L1350.25,1012l21.63,21.63-6.46,6.36-21.53-21.64L1322.25,1040l-6.38-6.36,21.64-21.63-21.64-21.64Z" transform="translate(-277.36 -2.9)"/><path class="cls-1" d="M1431.86,1016.85l-10.52,24.76H1410.7L1451,950.2l39.23,91.41h-10.75l-10.3-24.76Zm18.87-44-14.92,34.93h29.51Z" transform="translate(-277.36 -2.9)"/><path class="cls-1" d="M1510.22,993.12h.25c3.23-4.29,6-7.41,12-7.41a16.31,16.31,0,0,1,8.34,2.56l-4.39,8.44c-1.85-1.27-3.12-2.43-5.55-2.43-10.2,0-10.67,13.07-10.67,20.14v27.19H1501V987.23h9.23Z" transform="translate(-277.36 -2.9)"/><path class="cls-1" d="M1554,1041.61h-9.26V995.79h-5.66v-8.56h5.66V967.66H1554v19.57h9.73v8.56H1554Z" transform="translate(-277.36 -2.9)"/></svg>